<svg class="svg-graphic" xmlns="http://www.w3.org/2000/svg" xmlns:xlink="http://www.w3.org/1999/xlink" viewBox="0 0 422.41 378.14" >
  <defs>
    <style>
      .\37 7d93f4d-097c-4fd2-ad20-a2411b80a0e5 {
        mask: url(#3c0f24ea-6ce2-4bfc-aa2c-9568e68f331d);
        filter: url(#c16ed512-69dd-4e01-8024-1454bd970222);
      }

      .\34 1634c40-c751-4aa3-a584-2ec0d6c449b5, .\38 37f4651-1f64-4501-830b-4f4be36988cf, .b6a648d4-eddf-4468-b76b-0aa7a235efb8, .bec6c47b-924f-4ae7-9825-b3228b23ec14, .cf15c0fd-a470-4c9c-bc7b-c8a2a3ccd6a2 {
        mix-blend-mode: multiply;
      }

      .b6a648d4-eddf-4468-b76b-0aa7a235efb8 {
        fill: url(#ca964986-4e8b-4f3a-bb13-512d8831a053);
      }

      .\31 4d708da-8c49-4ce7-b6dd-dbf3716f303b {
        mask: url(#322b3828-f2b4-4e22-8406-c2aec5f581c8);
        filter: url(#db9498ff-443f-40a3-a550-01a2138d0075);
      }

      .cf15c0fd-a470-4c9c-bc7b-c8a2a3ccd6a2 {
        fill: url(#59b9c85b-a1e8-4784-826a-9ab3fa757d95);
      }

      .\38 4734880-1f57-4ad6-b2d8-dae0eb3dba6d {
        isolation: isolate;
      }

      .d2f21ae2-681f-45bc-a306-c5abe7a647ec {
        mask: url(#62b0fdcd-2a11-43f2-8be3-72459e64f42c);
      }

      .bec6c47b-924f-4ae7-9825-b3228b23ec14 {
        fill: url(#5e4cbbed-43de-4abe-9d13-1051cbceb027);
      }

      .\38 37f4651-1f64-4501-830b-4f4be36988cf {
        fill: #bcc0e5;
      }

      .\30 f401e1f-6306-4ab7-a774-ee82120f2831 {
        fill: url(#5e719156-00f6-46a2-8d09-9da9e1b13711);
      }

      .\35 0acb280-0244-4b27-969c-4bf29ffea790 {
        fill: #fff;
      }

      .b490c675-f38c-4bd5-9df7-a81cb7b80944 {
        fill: url(#9f848c0b-6e32-4c4f-a7c7-362999eaf425);
      }

      .\30 d230cdb-f4d2-4cca-9980-ad3ed984d463 {
        fill: #e6e7f5;
      }

      .ec0e9fae-a41d-4b38-81cb-51806fe51da8 {
        fill: url(#4a245f9d-ca30-4463-a97f-33f0a04107d6);
      }

      .f0d172e2-65a8-431a-8df9-c2658efad07d {
        fill: #d6225d;
      }

      .\39 6c64aea-28b2-441f-abab-c3c0351dc989 {
        fill: #c9c9c9;
      }

      .\33 4a485d9-3e5d-4a68-a676-c711766df701 {
        fill: url(#a3c82885-39b9-4087-9bae-e24c5a4fb092);
      }

      .fb266d83-eba8-4fa8-9198-2b3ed23f41d1 {
        mask: url(#d05b8c4d-f22d-45a4-9451-0ef2ee79c3ad);
      }

      .\34 1634c40-c751-4aa3-a584-2ec0d6c449b5 {
        fill: url(#687bc1e1-3067-41f0-9b27-e3a3b715fa13);
      }

      .\37 bbec56f-552c-4536-b04e-2178adcd6eef {
        fill: #000070;
      }

      .e0e41289-e8bb-4c50-ae9c-08b99b392b63 {
        fill: #f5d5d5;
      }

      .\38 27995e9-c2e4-4a8b-8303-525dde88462a {
        fill: url(#59bd13ad-7514-4657-a1af-9a1c47269815);
      }

      .a22905e5-4425-4ed6-b1eb-02e237e442d7 {
        fill: url(#89272001-a7e8-4e77-a463-3623f35c1e3b);
      }

      .\32 aa0ce4b-690e-43dd-ad18-b2622ca58a5b {
        fill: #010854;
      }

      .cfe9cb68-44ba-4adb-8a6a-9f04ac94fc3a {
        fill: url(#0b1e2b0c-716e-465b-9e1d-556a9e83e0df);
      }

      .\37 dbf0e44-66f2-4f00-89fe-ed3e9b0e56b2 {
        fill: url(#b581d7dd-1a7a-4bc9-b2d6-76a127c801f4);
      }

      .\30 43c03e3-7d70-4749-9dff-90b6ac5d99ab {
        filter: url(#1a20688b-7596-4457-866d-ea7a0ad1ae42);
      }

      .\36 71b6866-6624-4991-89e4-d7d59b69f846 {
        filter: url(#7a31ddce-a4eb-4bcb-b9d7-f239ec952f18);
      }
    </style>
    <filter id="7a31ddce-a4eb-4bcb-b9d7-f239ec952f18" x="183.78" y="-8496.83" width="238.63" height="32766" filterUnits="userSpaceOnUse" color-interpolation-filters="sRGB">
      <feFlood flood-color="#fff" result="bg"/>
      <feBlend in="SourceGraphic" in2="bg"/>
    </filter>
    <mask id="3c0f24ea-6ce2-4bfc-aa2c-9568e68f331d" x="183.78" y="-8496.83" width="238.63" height="32766" maskUnits="userSpaceOnUse">
      <g class="671b6866-6624-4991-89e4-d7d59b69f846"/>
    </mask>
    <linearGradient id="ca964986-4e8b-4f3a-bb13-512d8831a053" data-name="ÅÂÁ˚ÏﬂÌÌ˚È „‡‰ËÂÌÚ 338" x1="183.78" y1="270.04" x2="422.41" y2="270.04" gradientUnits="userSpaceOnUse">
      <stop offset="0" stop-color="#fff"/>
      <stop offset="1"/>
    </linearGradient>
    <filter id="1a20688b-7596-4457-866d-ea7a0ad1ae42" x="110.3" y="-8496.83" width="106.76" height="32766" filterUnits="userSpaceOnUse" color-interpolation-filters="sRGB">
      <feFlood flood-color="#fff" result="bg"/>
      <feBlend in="SourceGraphic" in2="bg"/>
    </filter>
    <mask id="322b3828-f2b4-4e22-8406-c2aec5f581c8" x="110.3" y="-8496.83" width="106.76" height="32766" maskUnits="userSpaceOnUse">
      <g class="043c03e3-7d70-4749-9dff-90b6ac5d99ab"/>
    </mask>
    <linearGradient id="59b9c85b-a1e8-4784-826a-9ab3fa757d95" x1="110.3" y1="254.85" x2="217.06" y2="254.85" xlink:href="#ca964986-4e8b-4f3a-bb13-512d8831a053"/>
    <filter id="c16ed512-69dd-4e01-8024-1454bd970222" x="183.78" y="161.93" width="238.63" height="216.21" filterUnits="userSpaceOnUse" color-interpolation-filters="sRGB">
      <feFlood flood-color="#fff" result="bg"/>
      <feBlend in="SourceGraphic" in2="bg"/>
    </filter>
    <mask id="62b0fdcd-2a11-43f2-8be3-72459e64f42c" x="183.78" y="161.93" width="238.63" height="216.21" maskUnits="userSpaceOnUse">
      <g class="77d93f4d-097c-4fd2-ad20-a2411b80a0e5">
        <path class="b6a648d4-eddf-4468-b76b-0aa7a235efb8" d="M241.37,161.93H183.78l170,98.14a11.51,11.51,0,0,1,0,19.93l-170,98.14h57.59a32,32,0,0,0,16-4.28l157.67-91a14.77,14.77,0,0,0,0-25.59l-157.67-91A32,32,0,0,0,241.37,161.93Z"/>
      </g>
    </mask>
    <linearGradient id="5e4cbbed-43de-4abe-9d13-1051cbceb027" data-name="ÅÂÁ˚ÏﬂÌÌ˚È „‡‰ËÂÌÚ 26" x1="183.78" y1="270.04" x2="422.41" y2="270.04" gradientUnits="userSpaceOnUse">
      <stop offset="0" stop-color="#bcc0e5"/>
      <stop offset="1" stop-color="#bcc0e5"/>
    </linearGradient>
    <linearGradient id="5e719156-00f6-46a2-8d09-9da9e1b13711" data-name="ÅÂÁ˚ÏﬂÌÌ˚È „‡‰ËÂÌÚ 15" x1="217.76" y1="297.45" x2="158.68" y2="297.45" gradientUnits="userSpaceOnUse">
      <stop offset="0" stop-color="#dcdefa"/>
      <stop offset="1" stop-color="#f2f3fa"/>
    </linearGradient>
    <linearGradient id="9f848c0b-6e32-4c4f-a7c7-362999eaf425" data-name="çÓ‚˚È Ó·‡ÁÂˆ „‡‰ËÂÌÚ‡ 1" y1="250.61" x2="367.54" y2="250.61" gradientUnits="userSpaceOnUse">
      <stop offset="0" stop-color="#f7f8ff"/>
      <stop offset="1" stop-color="#f2f3fa"/>
    </linearGradient>
    <linearGradient id="4a245f9d-ca30-4463-a97f-33f0a04107d6" data-name="ÅÂÁ˚ÏﬂÌÌ˚È „‡‰ËÂÌÚ 111" x1="313.09" y1="40.94" x2="124.09" y2="269.94" gradientUnits="userSpaceOnUse">
      <stop offset="0" stop-color="#5b68f5"/>
      <stop offset="1" stop-color="#010854"/>
    </linearGradient>
    <linearGradient id="a3c82885-39b9-4087-9bae-e24c5a4fb092" x1="255.07" y1="80.06" x2="229.82" y2="124.31" gradientUnits="userSpaceOnUse">
      <stop offset="0.01" stop-color="#fff"/>
      <stop offset="1" stop-color="#d6225d"/>
    </linearGradient>
    <filter id="db9498ff-443f-40a3-a550-01a2138d0075" x="110.3" y="245.71" width="106.76" height="18.28" filterUnits="userSpaceOnUse" color-interpolation-filters="sRGB">
      <feFlood flood-color="#fff" result="bg"/>
      <feBlend in="SourceGraphic" in2="bg"/>
    </filter>
    <mask id="d05b8c4d-f22d-45a4-9451-0ef2ee79c3ad" x="110.3" y="245.71" width="106.76" height="18.28" maskUnits="userSpaceOnUse">
      <g class="14d708da-8c49-4ce7-b6dd-dbf3716f303b">
        <path class="cf15c0fd-a470-4c9c-bc7b-c8a2a3ccd6a2" d="M127.85,245.71c-9.69,0-17.54,4.09-17.54,9.14s7.85,9.14,17.54,9.14h89.22V245.71H127.85Z"/>
      </g>
    </mask>
    <linearGradient id="687bc1e1-3067-41f0-9b27-e3a3b715fa13" x1="110.3" y1="254.85" x2="217.06" y2="254.85" xlink:href="#5e4cbbed-43de-4abe-9d13-1051cbceb027"/>
    <linearGradient id="59bd13ad-7514-4657-a1af-9a1c47269815" x1="133.74" y1="289.73" x2="119.49" y2="192.98" xlink:href="#4a245f9d-ca30-4463-a97f-33f0a04107d6"/>
    <linearGradient id="89272001-a7e8-4e77-a463-3623f35c1e3b" x1="142.84" y1="288.39" x2="128.59" y2="191.64" xlink:href="#4a245f9d-ca30-4463-a97f-33f0a04107d6"/>
    <linearGradient id="0b1e2b0c-716e-465b-9e1d-556a9e83e0df" x1="126.42" y1="229.85" x2="126.42" y2="90.46" gradientUnits="userSpaceOnUse">
      <stop offset="0" stop-color="#2e3192"/>
      <stop offset="1" stop-color="#f0587c"/>
    </linearGradient>
    <linearGradient id="b581d7dd-1a7a-4bc9-b2d6-76a127c801f4" x1="101.19" y1="179.25" x2="101.19" y2="142.07" xlink:href="#0b1e2b0c-716e-465b-9e1d-556a9e83e0df"/>
  </defs>
  <title>1</title>
  <g id="question-1-svg" class="84734880-1f57-4ad6-b2d8-dae0eb3dba6d">
    <g id="46f3124f-5e95-4682-a5aa-80e9119df7fa" data-name="ëÎÓÈ 1">
      <g class="question-1-podium d2f21ae2-681f-45bc-a306-c5abe7a647ec" style="opacity: 0;">
        <path class="bec6c47b-924f-4ae7-9825-b3228b23ec14" d="M241.37,161.93H183.78l170,98.14a11.51,11.51,0,0,1,0,19.93l-170,98.14h57.59a32,32,0,0,0,16-4.28l157.67-91a14.77,14.77,0,0,0,0-25.59l-157.67-91A32,32,0,0,0,241.37,161.93Z"/>
      </g>
      <g class="question-1-podium" style="opacity: 0;">
        <path class="837f4651-1f64-4501-830b-4f4be36988cf" d="M367.51,272c-0.29-4.43-3.64-9-9.93-12.65L205.52,171.68c-12-6.94-30.24-7.69-40.66-1.67L7,261.22C2,264.1-.24,268,0,272c0.29,4.43,3.64,9,9.93,12.65L162,372.4c12,6.94,30.24,7.69,40.66,1.67l157.83-91.21C365.49,280,367.78,276.09,367.51,272Z"/>
        <path class="0f401e1f-6306-4ab7-a774-ee82120f2831" d="M367.51,268.76h0V253.67l-61.71,30L205.52,225.8c-12-6.94-30.24-7.69-40.66-1.67L61.8,283.69,0,253.67v14a9.49,9.49,0,0,0,0,1.12c0.29,4.43,3.64,9,9.93,12.65L162,369.11a46.9,46.9,0,0,0,21.76,5.72h0c7.07,0.17,13.88-1.15,18.9-4l157.83-91.21C365.48,276.69,367.77,272.8,367.51,268.76Z"/>
        <path class="50acb280-0244-4b27-969c-4bf29ffea790" d="M367.51,253.67c-0.29-4.43-3.64-9-9.93-12.65L205.52,153.31c-12-6.94-30.24-7.69-40.66-1.67L7,242.85c-5,2.88-7.27,6.77-7,10.82,0.29,4.43,3.64,9,9.93,12.65L162,354c12,6.94,30.24,7.69,40.66,1.67l157.83-91.21C365.49,261.61,367.78,257.72,367.51,253.67Z"/>
        <path class="b490c675-f38c-4bd5-9df7-a81cb7b80944" d="M367.51,250.61c-0.29-4.43-3.64-9-9.93-12.65L205.52,150.24c-12-6.94-30.24-7.69-40.66-1.67L7,239.79c-5,2.88-7.27,6.77-7,10.82,0.29,4.43,3.64,9,9.93,12.65L162,351c12,6.94,30.24,7.69,40.66,1.67l157.83-91.21C365.49,258.55,367.78,254.65,367.51,250.61Z"/>
      </g>
      <g id="question-1-screen" style="opacity: 0;">
        <g>
          <path class="0d230cdb-f4d2-4cca-9980-ad3ed984d463" d="M327.61,107.41V256.71a5.78,5.78,0,0,1-8.67,5L163.28,171.86a19.35,19.35,0,0,1-9.67-16.76V5.79a5.78,5.78,0,0,1,8.67-5L317.93,90.65A19.35,19.35,0,0,1,327.61,107.41Z"/>
          <path class="ec0e9fae-a41d-4b38-81cb-51806fe51da8" d="M323.54,109.84V259.14a5.78,5.78,0,0,1-8.67,5L159.22,174.29a19.35,19.35,0,0,1-9.67-16.76V8.22a5.78,5.78,0,0,1,8.67-5L313.87,93.08A19.35,19.35,0,0,1,323.54,109.84Z"/>
        </g>
        <g id="dots">
          <polygon id="dot-1" style="opacity: 0;" class="50acb280-0244-4b27-969c-4bf29ffea790" points="281.24 181.01 284.4 182.84 284.4 179.19 281.24 177.37 281.24 181.01"/>
          <polygon id="dot-2" style="opacity: 0;" class="50acb280-0244-4b27-969c-4bf29ffea790" points="289.42 185.73 292.57 187.56 292.57 183.91 289.42 182.08 289.42 185.73"/>
          <polygon id="dot-3" style="opacity: 0;" class="f0d172e2-65a8-431a-8df9-c2658efad07d" points="297.59 190.45 300.75 192.27 300.75 188.63 297.59 186.8 297.59 190.45"/>
          <polygon id="dot-4" style="opacity: 0;" class="f0d172e2-65a8-431a-8df9-c2658efad07d" points="305.76 195.17 308.92 196.99 308.92 193.34 305.76 191.52 305.76 195.17"/>
          <polygon id="dot-5" style="opacity: 0;" class="50acb280-0244-4b27-969c-4bf29ffea790" points="256.73 176.25 259.89 178.08 259.89 174.43 256.73 172.6 256.73 176.25"/>
          <polygon id="dot-6" style="opacity: 0;" class="50acb280-0244-4b27-969c-4bf29ffea790" points="264.9 180.97 268.06 182.79 268.06 179.15 264.9 177.32 264.9 180.97"/>
          <polygon id="dot-7" style="opacity: 0;" class="50acb280-0244-4b27-969c-4bf29ffea790" points="273.07 185.69 276.23 187.51 276.23 183.86 273.07 182.04 273.07 185.69"/>
          <polygon id="dot-8" style="opacity: 0;" class="50acb280-0244-4b27-969c-4bf29ffea790" points="281.24 190.41 284.4 192.23 284.4 188.58 281.24 186.76 281.24 190.41"/>
          <polygon id="dot-9" style="opacity: 0;" class="50acb280-0244-4b27-969c-4bf29ffea790" points="289.42 195.12 292.57 196.95 292.57 193.3 289.42 191.47 289.42 195.12"/>
          <polygon id="dot-10" style="opacity: 0;" class="f0d172e2-65a8-431a-8df9-c2658efad07d" points="297.59 199.84 300.75 201.66 300.75 198.02 297.59 196.19 297.59 199.84"/>
          <polygon id="dot-11" style="opacity: 0;" class="f0d172e2-65a8-431a-8df9-c2658efad07d" points="305.76 204.56 308.92 206.38 308.92 202.74 305.76 200.91 305.76 204.56"/>
          <polygon id="dot-12" style="opacity: 0;" class="50acb280-0244-4b27-969c-4bf29ffea790" points="256.73 185.64 259.89 187.47 259.89 183.82 256.73 182 256.73 185.64"/>
          <polygon id="dot-13" style="opacity: 0;" class="50acb280-0244-4b27-969c-4bf29ffea790" points="264.9 190.36 268.06 192.19 268.06 188.54 264.9 186.71 264.9 190.36"/>
          <polygon id="dot-14" style="opacity: 0;" class="50acb280-0244-4b27-969c-4bf29ffea790" points="273.07 195.08 276.23 196.9 276.23 193.25 273.07 191.43 273.07 195.08"/>
          <polygon id="dot-15" style="opacity: 0;" class="50acb280-0244-4b27-969c-4bf29ffea790" points="281.24 199.8 284.4 201.62 284.4 197.97 281.24 196.15 281.24 199.8"/>
          <polygon id="dot-16" style="opacity: 0;" class="50acb280-0244-4b27-969c-4bf29ffea790" points="289.42 204.51 292.57 206.34 292.57 202.69 289.42 200.87 289.42 204.51"/>
          <polygon id="dot-17" style="opacity: 0;" class="f0d172e2-65a8-431a-8df9-c2658efad07d" points="297.59 209.23 300.75 211.06 300.75 207.41 297.59 205.58 297.59 209.23"/>
          <polygon id="dot-18" style="opacity: 0;" class="f0d172e2-65a8-431a-8df9-c2658efad07d" points="305.76 213.95 308.92 215.77 308.92 212.13 305.76 210.3 305.76 213.95"/>
          <polygon id="dot-19" style="opacity: 0;" class="50acb280-0244-4b27-969c-4bf29ffea790" points="256.73 195.03 259.89 196.86 259.89 193.21 256.73 191.39 256.73 195.03"/>
          <polygon id="dot-20" style="opacity: 0;" class="50acb280-0244-4b27-969c-4bf29ffea790" points="264.9 199.75 268.06 201.58 268.06 197.93 264.9 196.1 264.9 199.75"/>
          <polygon id="dot-21" style="opacity: 0;" class="50acb280-0244-4b27-969c-4bf29ffea790" points="273.07 204.47 276.23 206.29 276.23 202.65 273.07 200.82 273.07 204.47"/>
          <polygon id="dot-22" style="opacity: 0;" class="50acb280-0244-4b27-969c-4bf29ffea790" points="281.24 209.19 284.4 211.01 284.4 207.36 281.24 205.54 281.24 209.19"/>
          <polygon id="dot-23" style="opacity: 0;" class="50acb280-0244-4b27-969c-4bf29ffea790" points="289.42 213.91 292.57 215.73 292.57 212.08 289.42 210.26 289.42 213.91"/>
          <polygon id="dot-24" style="opacity: 0;" class="f0d172e2-65a8-431a-8df9-c2658efad07d" points="297.59 218.62 300.75 220.45 300.75 216.8 297.59 214.97 297.59 218.62"/>
          <polygon id="dot-25" style="opacity: 0;" class="f0d172e2-65a8-431a-8df9-c2658efad07d" points="305.76 223.34 308.92 225.16 308.92 221.52 305.76 219.69 305.76 223.34"/>
          <polygon id="dot-26" style="opacity: 0;" class="50acb280-0244-4b27-969c-4bf29ffea790" points="256.73 204.43 259.89 206.25 259.89 202.6 256.73 200.78 256.73 204.43"/>
          <polygon id="dot-27" style="opacity: 0;" class="50acb280-0244-4b27-969c-4bf29ffea790" points="264.9 209.14 268.06 210.97 268.06 207.32 264.9 205.5 264.9 209.14"/>
          <polygon id="dot-28" style="opacity: 0;" class="50acb280-0244-4b27-969c-4bf29ffea790" points="273.07 213.86 276.23 215.69 276.23 212.04 273.07 210.21 273.07 213.86"/>
          <polygon id="dot-29" style="opacity: 0;" class="50acb280-0244-4b27-969c-4bf29ffea790" points="281.24 218.58 284.4 220.4 284.4 216.75 281.24 214.93 281.24 218.58"/>
          <polygon id="dot-30" style="opacity: 0;" class="50acb280-0244-4b27-969c-4bf29ffea790" points="289.42 223.3 292.57 225.12 292.57 221.47 289.42 219.65 289.42 223.3"/>
        </g>
        <g>
          <path  style="opacity: 0;" class="first-line 50acb280-0244-4b27-969c-4bf29ffea790" d="M166.3,84.5a0.23,0.23,0,0,1-.23-0.23V65.62a0.23,0.23,0,0,1,.46,0V84.27A0.23,0.23,0,0,1,166.3,84.5Z"/>
          <path  style="opacity: 0;" class="second-line 50acb280-0244-4b27-969c-4bf29ffea790" d="M189.59,98a0.23,0.23,0,0,1-.23-0.23V52.06a0.23,0.23,0,1,1,.46,0V97.72A0.23,0.23,0,0,1,189.59,98Z"/>
          <polygon style="opacity: 0;" class="second-line 50acb280-0244-4b27-969c-4bf29ffea790" points="193.44 105.61 185.74 101.16 185.74 104.85 193.44 109.3 193.44 105.61"/>
          <polygon style="opacity: 0;" class="first-line 50acb280-0244-4b27-969c-4bf29ffea790" points="169.75 91.93 162.05 87.48 162.05 91.17 169.75 95.62 169.75 91.93"/>
          <path style="opacity: 0;" class="third-line 50acb280-0244-4b27-969c-4bf29ffea790" d="M212.88,111.4a0.23,0.23,0,0,1-.23-0.23V92.51a0.23,0.23,0,0,1,.46,0v18.65A0.23,0.23,0,0,1,212.88,111.4Z"/>
          <polygon style="opacity: 0;" class="third-line 50acb280-0244-4b27-969c-4bf29ffea790" points="216.73 119.06 209.03 114.61 209.03 118.3 216.73 122.74 216.73 119.06"/>
          <path style="opacity: 0;" class="fourth-line 50acb280-0244-4b27-969c-4bf29ffea790" d="M236.18,124.76a0.23,0.23,0,0,1-.23-0.23V78.88a0.23,0.23,0,1,1,.46,0v45.65A0.23,0.23,0,0,1,236.18,124.76Z"/>
          <polygon style="opacity: 0;" class="fourth-line 50acb280-0244-4b27-969c-4bf29ffea790" points="240.03 132.5 232.32 128.06 232.32 131.75 240.03 136.19 240.03 132.5"/>
          <path style="opacity: 0;" class="fifth-line 96c64aea-28b2-441f-abab-c3c0351dc989" d="M259.47,138.21a0.23,0.23,0,0,1-.23-0.23V119.33a0.23,0.23,0,1,1,.46,0V138A0.23,0.23,0,0,1,259.47,138.21Z"/>
          <polygon style="opacity: 0;" class="fifth-line 50acb280-0244-4b27-969c-4bf29ffea790" points="263.32 145.95 255.62 141.51 255.62 145.19 263.32 149.64 263.32 145.95"/>
          <path style="opacity: 0;" class="sixth-line 50acb280-0244-4b27-969c-4bf29ffea790" d="M282.76,151.66a0.23,0.23,0,0,1-.23-0.23V105.77a0.23,0.23,0,0,1,.46,0v45.65A0.23,0.23,0,0,1,282.76,151.66Z"/>
          <polygon style="opacity: 0;" class="sixth-line 50acb280-0244-4b27-969c-4bf29ffea790" points="286.61 159.4 278.91 154.95 278.91 158.64 286.61 163.09 286.61 159.4"/>
          <path style="opacity: 0;" class="seventh-line 50acb280-0244-4b27-969c-4bf29ffea790" d="M306.06,165.11a0.23,0.23,0,0,1-.23-0.23V146.22a0.23,0.23,0,1,1,.46,0v18.65A0.23,0.23,0,0,1,306.06,165.11Z"/>
          <polygon style="opacity: 0;" class="seventh-line 50acb280-0244-4b27-969c-4bf29ffea790" points="309.91 172.85 302.2 168.4 302.2 172.09 309.91 176.54 309.91 172.85"/>
          <path style="opacity: 0;" class="line 34a485d9-3e5d-4a68-a676-c711766df701" d="M161.66,69.78a1.87,1.87,0,0,1-.85-1.46,0.52,0.52,0,0,1,.84-0.49l4.64,2.66,0.06,0c3.13,1.81,6.73-.69,10.2-3.11,4.11-2.85,8.35-5.8,13-3.19l0.13,0.07c4.47,2.58,8.36,8.8,12.12,14.83,3.54,5.66,7.2,11.52,11.05,13.74,3.46,2,6.65-3.87,9.74-9.55,3.8-7,7.73-14.21,13.55-10.84s9.5,12.77,13.19,21.94c3.23,8,6.29,15.65,10.05,17.83l0,0a51.46,51.46,0,0,0,11.83,4.67,53.65,53.65,0,0,1,11.45,4.43c4.45,2.42,8,7.18,11.37,11.77s7.05,9.53,11.81,12.28L306,145.5l8.24,4.76a1.87,1.87,0,0,1,.85,1.46,0.52,0.52,0,0,1-.85.49l-8.23-4.75-0.14-.08c-5.26-3-9.06-8.18-12.74-13.15-3.33-4.49-6.47-8.75-10.38-10.87a51.51,51.51,0,0,0-11.1-4.28,52.93,52.93,0,0,1-12.21-4.84l-0.07,0c-4.72-2.72-8-10.93-11.5-19.61s-7-17.43-11.74-20.16-8.62,4.35-12,10.61-6.74,12.39-11.26,9.78-8.4-8.84-12.17-14.88-7.18-11.48-11-13.69l-0.11-.06c-3.93-2.2-7.93.57-11.79,3.26s-7.58,5.26-11.44,3l-0.09-.05-4.62-2.65h0Z"/>
        </g>
        <path style="opacity: 0;"  class="wheel-screen-1 f0d172e2-65a8-431a-8df9-c2658efad07d" d="M178.76,123.77c-9.23-5.33-16.71-1-16.71,9.65s7.48,23.62,16.71,28.95,16.71,1,16.71-9.65S188,129.1,178.76,123.77Zm0,34.08c-7.07-4.08-12.8-14-12.8-22.17s5.73-11.47,12.8-7.39,12.8,14,12.8,22.17S185.83,161.93,178.76,157.85Z"/>
        <path style="opacity: 0;"  class="wheel-screen-2 f0d172e2-65a8-431a-8df9-c2658efad07d" d="M228,152.2c-9.23-5.33-16.71-1-16.71,9.65s7.48,23.62,16.71,28.95,16.71,1,16.71-9.65S237.23,157.53,228,152.2Zm0,34.08c-7.07-4.08-12.8-14-12.8-22.17s5.73-11.47,12.8-7.39,12.8,14,12.8,22.17S235.07,190.36,228,186.28Z"/>
        <polygon style="opacity: 0;" class="top-thingy f0d172e2-65a8-431a-8df9-c2658efad07d" points="234.82 67.01 235.9 70.71 236.98 68.26 239.75 69.86 239.75 63.63 232.05 59.19 232.05 65.42 234.82 67.01"/>
        <path style="opacity: 0;" class="wheel-screen-1 50acb280-0244-4b27-969c-4bf29ffea790" d="M189.33,140.83l3.23-.68c-3-6.82-8.07-13.07-13.8-16.38v4.52C183.15,130.82,187,135.61,189.33,140.83Z"/>
        <path style="opacity: 0;" class=" wheel-screen-2 50acb280-0244-4b27-969c-4bf29ffea790" d="M240.8,178.89c0,3.42-1,6-2.7,7.5l3.09,4.55c2.2-2,3.53-5.33,3.53-9.79,0-10.66-7.48-23.62-16.71-28.95v4.52C235.07,160.8,240.8,170.73,240.8,178.89Z"/>
      </g>
      <g id="question-1-person" style="opacity: 0;">
        <g class="fb266d83-eba8-4fa8-9198-2b3ed23f41d1">
          <path class="41634c40-c751-4aa3-a584-2ec0d6c449b5" d="M127.85,245.71c-9.69,0-17.54,4.09-17.54,9.14s7.85,9.14,17.54,9.14h89.22V245.71H127.85Z"/>
        </g>
        <path class="7bbec56f-552c-4536-b04e-2178adcd6eef" d="M124.57,257.45c2.64,2.21,3.18,2,3.52,3.52s-3.87.62-5.87-.13a6.44,6.44,0,0,1-2.46-1.7c-0.83-1.08-1.66-.54-3.22-1.08s-1.75-2.05-1.07-4.43,5.22,0,6.2.72A29.27,29.27,0,0,1,124.57,257.45Z"/>
        <path class="e0e41289-e8bb-4c50-ae9c-08b99b392b63" d="M125.17,131c1.31-2.82,2.63-1,3.33-4.43s-0.69-8-5.69-11.33-8.2.66-8.75,6.49a15.36,15.36,0,0,0,2.85,10.12l4.7,1.61Z"/>
        <path class="827995e9-c2e4-4a8b-8303-525dde88462a" d="M129.83,190.86C128,204,125.94,210.33,125,220.4s-2.28,25.86-3.49,31.69c-0.8,3.89-6.11,3.48-5.78,0,0.32-3.3-.68-26.22-1.43-32.28s-1.93-32.13-1.93-32.13l17-13.41Z"/>
        <path class="7bbec56f-552c-4536-b04e-2178adcd6eef" d="M137.32,250.51c2.64,2.21,3.18,2,3.52,3.52s-3.87.62-5.87-.13a6.44,6.44,0,0,1-2.46-1.7c-0.83-1.08-1.66-.54-3.22-1.08s-1.75-2.05-1.07-4.43,5.22,0,6.2.72A29.27,29.27,0,0,1,137.32,250.51Z"/>
        <path class="a22905e5-4425-4ed6-b1eb-02e237e442d7" d="M135.47,191.33c3.9,13.19,3.22,12.07,2.23,22.14s-2.28,25.86-3.49,31.69c-0.8,3.89-6.11,3.48-5.78,0,0.32-3.3-.68-26.22-1.43-32.28s-1.93-32.13-1.93-32.13l4.75-10.13Z"/>
        <path class="2aa0ce4b-690e-43dd-ad18-b2622ca58a5b" d="M127.85,121c-1.93.52-2.27,1.4-3.26,2.3s-1.85,1.65-2.75,1c-1.72-1.18-1.27-2.32-2.14-3.34s-1-.9-0.3-1.94,1.05-.94,2.39-0.93a16.41,16.41,0,0,0,3.72-.64L126,118s2.51-2.65.12-4.63-6.78-2.49-9.31-.57c0,0-3.1-.61-4.92,4s2.83,12.84,4.09,13.51c1,0.52,1.82.06,2.27-1.84s0.6-2.92-.49-3.55-1.6-2.62-.43-3.06a1.53,1.53,0,0,1,2.28.75c0.66,1,1.73,5.82,2.64,6.6s2.84-.67,4.38-0.74a10.87,10.87,0,0,1,1.12,0C130.89,128.12,130.07,120.44,127.85,121Z"/>
        <path class="e0e41289-e8bb-4c50-ae9c-08b99b392b63" d="M128.16,127.81c-0.35-.38-1.69.74-3-1.94-0.31-.65-2.93.11-3.35-0.47s4.77-1,6.27-1.61-0.11-2.69.41-3.13,1.76,2.36,1.95,3.59a18.39,18.39,0,0,0,.56,2.42S131.36,131.31,128.16,127.81Z"/>
        <path class="cfe9cb68-44ba-4adb-8a6a-9f04ac94fc3a" d="M109.24,141.42l5.41-3.56c2.44-3.85,2.64-5.93,2.64-5.93a14.15,14.15,0,0,0,8.27-.85s-0.8,2.39.06,3.41h0c5.93,1.17,7.44,4,9.37,6.12a132,132,0,0,1-6.31-11.83c-0.51-1.18,2.44-3.87,3.06-2.75,0.86,1.57,21.16,29.65,12.75,29.27s-11.44-3.75-11.44-3.75,7.45,41.72,7.23,48.88c-0.67,21.67-30.63,24.27-31.29,11-0.54-10.79,1.24-33.21-.64-43C108.36,168.51,103.21,145.9,109.24,141.42Z"/>
        <path class="e0e41289-e8bb-4c50-ae9c-08b99b392b63" d="M107.69,173.69c1-2.28.88-.35,3.27,1.29a22,22,0,0,0,5.9,1.4c2.48,0.22,1.23,4.24-2.82,4.57s-4.06-1.29-5.84-2.12C105.87,177.75,107.69,173.69,107.69,173.69Z"/>
        <path class="7dbf0e44-66f2-4f00-89fe-ed3e9b0e56b2" d="M108.14,142.07C97,154.69,87.07,167.51,94.82,174.51c4.34,3.92,13.23,5.44,14.22,4.44a3,3,0,0,0,0-4.55s-6.64-4.06-6.64-6.59c0-1,7.91-12,7.92-13.9C110.4,145.66,108.14,142.07,108.14,142.07Z"/>
        <path class="2aa0ce4b-690e-43dd-ad18-b2622ca58a5b" d="M125.17,131a14.15,14.15,0,0,1-8.27.85s-0.21,2.09-2.64,5.93l-0.54.36c6.49,4.56,9.61,10.37,11.26,9.43s0.25-13.16.25-13.16h0C124.37,133.44,125.17,131,125.17,131Z"/>
      </g>
    </g>
  </g>
</svg>
