<svg class="svg-graphic" xmlns="http://www.w3.org/2000/svg" xmlns:xlink="http://www.w3.org/1999/xlink" viewBox="0 0 271.76 233.82" >
  <defs>
    <style>
      .\39 6672419-66ce-466b-88f5-9c87206c5203 {
        mask: url(#34ba6d13-6b7f-487b-99b6-37e82cd9bb31);
        filter: url(#69077a60-2d9e-435e-a40f-eb37984f282f);
      }

      .\31 39e1d07-bf66-421e-818b-d93ef0d39484, .\33 21c8c7e-b160-4915-9168-b0c40827b9d0, .\37 67e03cb-1912-4116-9b67-5f59594d3844, .d24682a5-b0bd-44db-86f9-75813c7a0742 {
        mix-blend-mode: multiply;
      }

      .\33 21c8c7e-b160-4915-9168-b0c40827b9d0 {
        fill: url(#a60f8284-2815-4774-958d-d08f809dab8b);
      }

      .\30 da45362-a156-4ad7-beb0-d95199f4f9af {
        mask: url(#86327907-11e6-4d06-a1c4-0f90529a7961);
        filter: url(#925bb2b4-b02a-4554-9025-42f36be8f325);
      }

      .d24682a5-b0bd-44db-86f9-75813c7a0742 {
        fill: url(#71a3458a-f22a-4c44-90a8-037d9b595faf);
      }

      .\38 938c6d9-b760-4d39-a56c-11f8b3699cf6 {
        isolation: isolate;
      }

      .\39 5bd3f43-49e3-4ec1-b39f-df61acb3d825 {
        mask: url(#241e30fd-d28c-42af-9879-760d06be0687);
      }

      .\31 39e1d07-bf66-421e-818b-d93ef0d39484 {
        fill: url(#65374281-d82a-4f54-bf50-12b4d99cc39f);
      }

      .\36 7f2b70b-4868-46b6-9c87-d27bb4c912e4 {
        fill: #f2f3fa;
      }

      .ab5dca77-360d-48fd-8812-c0ee14958e50 {
        fill: #c4d3ed;
      }

      .eb3e4ba5-8b80-460f-93ae-acc50094726d {
        fill: url(#9097d8f1-3ee4-4fc6-928b-a4399dcf5b4e);
      }

      .\33 87829e1-26fd-4fcc-a7bf-a11c27b9b48e {
        fill: url(#20433900-3516-4a34-8923-7e1d0b2e3446);
      }

      .a0135bf2-92e2-4fc6-8f05-d8c4413b8770 {
        fill: #6f7cbc;
      }

      .c802c5e3-1161-477c-978c-7f0e13f0609b {
        fill: #828ec7;
      }

      .b81c54b9-a0ef-46e2-b202-4aa6da0795f2 {
        fill: #acbae0;
      }

      .b35b8fef-4c52-4389-b674-25849fc8af00 {
        fill: url(#f61930a8-f011-45f6-82c2-e4d64d5ff3cf);
      }

      .\35 3fcc07c-bcf6-421f-b7ac-9f40adac162f {
        fill: #96a3d3;
      }

      .\39 e625063-eacb-4f67-ba67-7217921c02ba {
        fill: #514ea1;
      }

      .fbf940dc-bd4f-404c-aaef-9cafde9cab9d {
        fill: url(#ee5d1c28-ddbc-43be-8341-28e1d34fee3b);
      }

      .\37 13e3ed1-53b1-47cc-acb7-7a611bcffc3f {
        fill: url(#537a8fa3-8088-4ba3-a92d-ec2819cc4f16);
      }

      .\33 c1142e8-4076-49da-8e0c-47a66a76eb17 {
        fill: #2e3192;
      }

      .c7027048-242e-4acb-a5cb-24cfaf625e41 {
        fill: url(#a920d5cc-db86-410e-a5b5-e8decf29b35d);
      }

      .\33 7e4df13-be26-4007-b38f-2a092d417c72 {
        fill: url(#757536ad-2d6d-45ce-8cd6-9bb39906ef57);
      }

      .\31 6c990ad-87b7-437e-9f0a-ed991abaa9ed {
        fill: url(#85336363-ef03-4acb-a535-957c990407b2);
      }

      .d242b14a-0b8e-43ac-be7f-a9994ba318b6 {
        fill: url(#f4d728eb-a7cf-4e76-8bb9-9a1e3d9593a2);
      }

      .\37 ec4437e-7cd8-458b-8c00-e4de841215f8 {
        fill: #eef1f9;
      }

      .cc0f0dea-27cd-4a3c-b2e3-444635c23bcb {
        fill: #ced7ed;
      }

      .\35 c36f7f3-8ea1-46c8-b6c4-f3e0223e05d0 {
        fill: #b6c4e5;
      }

      .f4f1bcc7-3a37-4a13-86a7-814cfef695a0 {
        fill: url(#8cd9878a-c58d-42dc-8857-6a2fdc7491f3);
      }

      .\32 1b5ef8f-5b5e-4cd7-a284-a7421d817b69 {
        fill: #d9e1f3;
      }

      .d2da78d2-e9c1-4886-8bb2-fe50b6fc86cb {
        fill: url(#6a8952ed-56f5-4c24-9efa-c3dd9ebde02e);
      }

      .f237941e-6f56-4dfd-951f-f39ebb8333fb {
        fill: url(#27c6f542-f4da-40b5-8591-2b0a0a411257);
      }

      .\33 e349681-4495-49d3-80d4-7b7e5af17050 {
        fill: #e9edf7;
      }

      .e0a488ba-dca0-4b01-89c1-63c79c4f287b {
        fill: #d4dcf0;
      }

      .\35 21312e2-e74a-4de4-8c04-57f0accd7533 {
        fill: url(#dd6fdbf5-9ae6-491a-984a-3fab79d882ee);
      }

      .d8c80ad8-4d67-4be6-973c-b5b534d2e854 {
        mask: url(#b839cdf5-aeeb-4fc6-93a5-3aac20f71af2);
      }

      .\37 67e03cb-1912-4116-9b67-5f59594d3844 {
        fill: url(#4e5d550b-8316-4102-9dc8-dbc5c96920a0);
      }

      .ce33989c-9c78-45a2-b8cd-627d0fe905b9 {
        fill: url(#58c91e9e-ff99-40bb-bde6-ebe47d9ebdbd);
      }

      .\39 1b1c85c-db0f-47d6-93f0-5ae7c175b27d {
        fill: url(#34e80ae3-79b3-40bf-b73d-627a80476d0d);
      }

      .\33 b329501-533f-46a1-8135-77d37722b2c9 {
        fill: url(#7a40ca58-a938-4175-923d-cc63bd8ed6ee);
      }

      .d47f45c3-8409-4e46-a24e-2276f650bcad {
        fill: url(#5a6a20a6-8141-49d5-911f-b66dc89c0412);
      }

      .\33 6f35340-5da1-4677-8fa4-9da0b7870ea1 {
        fill: url(#647ba248-5b34-44b3-bbd0-85ead88f7ba8);
      }

      .b5f5a742-37d1-4f9d-b9ee-081700610ae5 {
        fill: url(#668416c0-eb30-457f-a4db-4f39ef78fb5a);
      }

      .fe9b7632-2561-40f6-8763-bac4df37bd7d {
        fill: url(#49776d15-3d20-4c07-a63b-60625fa6b069);
      }

      .d3f4f943-69cc-418c-9cb3-8bf0c906f53f {
        fill: url(#19386777-3cf8-44e4-9f41-d9e2392abcc2);
      }

      .\32 19b60c7-bf85-40c4-9506-14746e0b5dc6 {
        fill: #625ea9;
      }

      .\39 b4ee88b-14bf-4a1d-a5b3-bf58ad551fb2 {
        fill: url(#dd1e8110-9f0d-4efe-a31b-5e2cf1b7535a);
      }

      .\36 c9928fc-206f-4140-a380-870d9a3d2d9b {
        fill: url(#43c37029-0e49-4ef3-a904-43f5d8c70e38);
      }

      .\30 c2a558b-f668-47f0-bbb0-59c6f00ca339 {
        fill: url(#3681cb3e-057b-4de9-8bbf-adcea8a56c41);
      }

      .\33 e068e72-ad26-4b31-b1b6-f337369c1983 {
        fill: url(#14626e5c-f9a2-41ee-9a02-8593b47ac51c);
      }

      .eb9c316d-8c8c-4b86-bc30-de938174d3b4 {
        fill: url(#713c9c7e-b41e-419c-b286-c6915567742e);
      }

      .\38 4704e8e-69cf-472d-8ea8-238a66dfa4b9 {
        fill: url(#1247b8dc-45de-40ff-b6f5-03622a280999);
      }

      .a5b4f6b4-cc81-4184-aa85-671ced932808 {
        fill: url(#5a42fb59-55cd-4bf0-8810-09f49779b6eb);
      }

      .\36 deddd7f-d6d1-4f19-b464-ce85b5a6c152 {
        filter: url(#61d0936a-a0c9-4ab2-aead-670cb85ecbee);
      }

      .a616885f-5bee-49be-b82f-8e63c9485b8b {
        filter: url(#1c0e07ed-6eb2-4d94-bbf1-a513557a5d01);
      }
    </style>
    <filter id="1c0e07ed-6eb2-4d94-bbf1-a513557a5d01" x="46.2" y="-8493.92" width="65.06" height="32766" filterUnits="userSpaceOnUse" color-interpolation-filters="sRGB">
      <feFlood flood-color="#fff" result="bg"/>
      <feBlend in="SourceGraphic" in2="bg"/>
    </filter>
    <mask id="34ba6d13-6b7f-487b-99b6-37e82cd9bb31" x="46.2" y="-8493.92" width="65.06" height="32766" maskUnits="userSpaceOnUse">
      <g class="a616885f-5bee-49be-b82f-8e63c9485b8b"/>
    </mask>
    <linearGradient id="a60f8284-2815-4774-958d-d08f809dab8b" data-name="ÅÂÁ˚ÏﬂÌÌ˚È „‡‰ËÂÌÚ 338" x1="46.2" y1="84.84" x2="111.26" y2="84.84" gradientUnits="userSpaceOnUse">
      <stop offset="0" stop-color="#fff"/>
      <stop offset="1"/>
    </linearGradient>
    <filter id="61d0936a-a0c9-4ab2-aead-670cb85ecbee" x="139.19" y="-8493.92" width="101.24" height="32766" filterUnits="userSpaceOnUse" color-interpolation-filters="sRGB">
      <feFlood flood-color="#fff" result="bg"/>
      <feBlend in="SourceGraphic" in2="bg"/>
    </filter>
    <mask id="86327907-11e6-4d06-a1c4-0f90529a7961" x="139.19" y="-8493.92" width="101.24" height="32766" maskUnits="userSpaceOnUse">
      <g class="6deddd7f-d6d1-4f19-b464-ce85b5a6c152"/>
    </mask>
    <linearGradient id="71a3458a-f22a-4c44-90a8-037d9b595faf" x1="139.19" y1="155.27" x2="240.42" y2="155.27" xlink:href="#a60f8284-2815-4774-958d-d08f809dab8b"/>
    <filter id="69077a60-2d9e-435e-a40f-eb37984f282f" x="46.2" y="55.37" width="65.06" height="58.95" filterUnits="userSpaceOnUse" color-interpolation-filters="sRGB">
      <feFlood flood-color="#fff" result="bg"/>
      <feBlend in="SourceGraphic" in2="bg"/>
    </filter>
    <mask id="241e30fd-d28c-42af-9879-760d06be0687" x="46.2" y="55.37" width="65.06" height="58.95" maskUnits="userSpaceOnUse">
      <g class="96672419-66ce-466b-88f5-9c87206c5203">
        <path class="321c8c7e-b160-4915-9168-b0c40827b9d0" d="M61.9,55.37H46.2L92.54,82.12a3.14,3.14,0,0,1,0,5.43L46.2,114.32H61.9a8.71,8.71,0,0,0,4.36-1.17l43-24.82a4,4,0,0,0,0-7l-43-24.82A8.71,8.71,0,0,0,61.9,55.37Z"/>
      </g>
    </mask>
    <linearGradient id="65374281-d82a-4f54-bf50-12b4d99cc39f" data-name="ÅÂÁ˚ÏﬂÌÌ˚È „‡‰ËÂÌÚ 26" x1="46.2" y1="84.84" x2="111.26" y2="84.84" gradientUnits="userSpaceOnUse">
      <stop offset="0" stop-color="#bdbfe0"/>
      <stop offset="1" stop-color="#bdbfe0"/>
    </linearGradient>
    <linearGradient id="9097d8f1-3ee4-4fc6-928b-a4399dcf5b4e" x1="1265.32" y1="111.17" x2="1281.21" y2="111.17" gradientTransform="matrix(-1, 0, 0, 1, 1320.32, 0)" gradientUnits="userSpaceOnUse">
      <stop offset="0" stop-color="#c4d3ed"/>
      <stop offset="1" stop-color="#f2f3fa"/>
    </linearGradient>
    <linearGradient id="20433900-3516-4a34-8923-7e1d0b2e3446" y1="82.84" x2="94.3" y2="82.84" gradientUnits="userSpaceOnUse">
      <stop offset="0" stop-color="#fff"/>
      <stop offset="1" stop-color="#e9edf7"/>
    </linearGradient>
    <linearGradient id="f61930a8-f011-45f6-82c2-e4d64d5ff3cf" x1="19.88" y1="32.88" x2="20.68" y2="31.5" gradientUnits="userSpaceOnUse">
      <stop offset="0" stop-color="#acbae0"/>
      <stop offset="1" stop-color="#c4d3ed"/>
    </linearGradient>
    <linearGradient id="ee5d1c28-ddbc-43be-8341-28e1d34fee3b" x1="32.11" y1="23.56" x2="32.36" y2="32.56" gradientUnits="userSpaceOnUse">
      <stop offset="0" stop-color="#f7aab6"/>
      <stop offset="1" stop-color="#ffdea9"/>
    </linearGradient>
    <linearGradient id="537a8fa3-8088-4ba3-a92d-ec2819cc4f16" x1="37.37" y1="43.82" x2="53.9" y2="98.51" gradientUnits="userSpaceOnUse">
      <stop offset="0" stop-color="#f9bec1"/>
      <stop offset="1" stop-color="#ffdea9"/>
    </linearGradient>
    <linearGradient id="a920d5cc-db86-410e-a5b5-e8decf29b35d" x1="823.05" y1="8.38" x2="855.08" y2="8.38" gradientTransform="matrix(0.97, -0.24, 0.24, 0.97, -771.32, 252.39)" gradientUnits="userSpaceOnUse">
      <stop offset="0" stop-color="#fac6cc"/>
      <stop offset="1" stop-color="#ffdfb4"/>
    </linearGradient>
    <linearGradient id="757536ad-2d6d-45ce-8cd6-9bb39906ef57" x1="358.93" y1="-65.83" x2="345.25" y2="-58.27" gradientTransform="matrix(-0.89, 0.45, 0.45, 0.89, 376.43, -85.64)" gradientUnits="userSpaceOnUse">
      <stop offset="0" stop-color="#f8c1d9"/>
      <stop offset="1" stop-color="#ffdea9"/>
    </linearGradient>
    <linearGradient id="85336363-ef03-4acb-a535-957c990407b2" x1="44.09" y1="44.24" x2="28.36" y2="15.41" gradientTransform="matrix(1, 0, 0, 1, 0, 0)" xlink:href="#757536ad-2d6d-45ce-8cd6-9bb39906ef57"/>
    <linearGradient id="f4d728eb-a7cf-4e76-8bb9-9a1e3d9593a2" x1="24.61" y1="40.33" x2="46.76" y2="40.33" gradientUnits="userSpaceOnUse">
      <stop offset="0" stop-color="#f0587e"/>
      <stop offset="1" stop-color="#2c3492"/>
    </linearGradient>
    <linearGradient id="8cd9878a-c58d-42dc-8857-6a2fdc7491f3" x1="41" y1="52.98" x2="42.23" y2="52.98" gradientUnits="userSpaceOnUse">
      <stop offset="0" stop-color="#ced7ed"/>
      <stop offset="1" stop-color="#b6c4e5"/>
    </linearGradient>
    <linearGradient id="6a8952ed-56f5-4c24-9efa-c3dd9ebde02e" x1="44.31" y1="47.75" x2="22.9" y2="8.5" gradientTransform="matrix(1, 0, 0, 1, 0, 0)" xlink:href="#757536ad-2d6d-45ce-8cd6-9bb39906ef57"/>
    <linearGradient id="27c6f542-f4da-40b5-8591-2b0a0a411257" x1="1383.61" y1="1712.63" x2="1383.27" y2="1712.63" gradientTransform="translate(2230.63 -303.9) rotate(120)" gradientUnits="userSpaceOnUse">
      <stop offset="0" stop-color="#d81d5b"/>
      <stop offset="1" stop-color="#f16f90"/>
    </linearGradient>
    <linearGradient id="dd6fdbf5-9ae6-491a-984a-3fab79d882ee" x1="43.4" y1="51.03" x2="8.68" y2="19.17" gradientTransform="matrix(1, 0, 0, 1, 0, 0)" xlink:href="#757536ad-2d6d-45ce-8cd6-9bb39906ef57"/>
    <filter id="925bb2b4-b02a-4554-9025-42f36be8f325" x="139.19" y="109.41" width="101.24" height="91.73" filterUnits="userSpaceOnUse" color-interpolation-filters="sRGB">
      <feFlood flood-color="#fff" result="bg"/>
      <feBlend in="SourceGraphic" in2="bg"/>
    </filter>
    <mask id="b839cdf5-aeeb-4fc6-93a5-3aac20f71af2" x="139.19" y="109.41" width="101.24" height="91.73" maskUnits="userSpaceOnUse">
      <g class="0da45362-a156-4ad7-beb0-d95199f4f9af">
        <path class="d24682a5-b0bd-44db-86f9-75813c7a0742" d="M163.62,109.41H139.19L211.3,151a4.88,4.88,0,0,1,0,8.45l-72.12,41.64h24.43a13.56,13.56,0,0,0,6.78-1.82l66.89-38.62a6.27,6.27,0,0,0,0-10.85L170.4,111.23A13.56,13.56,0,0,0,163.62,109.41Z"/>
      </g>
    </mask>
    <linearGradient id="4e5d550b-8316-4102-9dc8-dbc5c96920a0" x1="139.19" y1="155.27" x2="240.42" y2="155.27" xlink:href="#65374281-d82a-4f54-bf50-12b4d99cc39f"/>
    <linearGradient id="58c91e9e-ff99-40bb-bde6-ebe47d9ebdbd" x1="1167.62" y1="196.01" x2="1192.33" y2="196.01" gradientTransform="matrix(-1, 0, 0, 1, 1320.32, 0)" gradientUnits="userSpaceOnUse">
      <stop offset="0" stop-color="#c4d3ed"/>
      <stop offset="1" stop-color="#f2f3fa"/>
    </linearGradient>
    <linearGradient id="34e80ae3-79b3-40bf-b73d-627a80476d0d" x1="67.13" y1="151.91" x2="213.86" y2="151.91" xlink:href="#20433900-3516-4a34-8923-7e1d0b2e3446"/>
    <linearGradient id="7a40ca58-a938-4175-923d-cc63bd8ed6ee" x1="165.44" y1="24.29" x2="140.76" y2="70.3" gradientUnits="userSpaceOnUse">
      <stop offset="0" stop-color="#fac5c5"/>
      <stop offset="1" stop-color="#ffdea9"/>
    </linearGradient>
    <linearGradient id="5a6a20a6-8141-49d5-911f-b66dc89c0412" x1="1052.66" y1="133.67" x2="1065.95" y2="133.67" gradientTransform="matrix(-1, 0, 0, 1, 1235.61, 0)" xlink:href="#757536ad-2d6d-45ce-8cd6-9bb39906ef57"/>
    <linearGradient id="647ba248-5b34-44b3-bbd0-85ead88f7ba8" x1="1066.15" y1="126.42" x2="1078.94" y2="126.42" gradientTransform="matrix(-1, 0, 0, 1, 1235.61, 0)" gradientUnits="userSpaceOnUse">
      <stop offset="0" stop-color="#f6abcc"/>
      <stop offset="1" stop-color="#ffdea9"/>
    </linearGradient>
    <linearGradient id="668416c0-eb30-457f-a4db-4f39ef78fb5a" x1="171.47" y1="9.28" x2="171.47" y2="37.45" gradientTransform="matrix(1, 0, 0, 1, 0, 0)" xlink:href="#647ba248-5b34-44b3-bbd0-85ead88f7ba8"/>
    <linearGradient id="49776d15-3d20-4c07-a63b-60625fa6b069" x1="172.88" y1="0.33" x2="172.88" y2="22.5" gradientTransform="translate(-1.32 -11.57) rotate(4.09)" xlink:href="#757536ad-2d6d-45ce-8cd6-9bb39906ef57"/>
    <linearGradient id="19386777-3cf8-44e4-9f41-d9e2392abcc2" x1="69.99" y1="111.95" x2="21.28" y2="-18.79" gradientTransform="matrix(-1, 0, 0, 1, 226.04, 0)" xlink:href="#757536ad-2d6d-45ce-8cd6-9bb39906ef57"/>
    <linearGradient id="dd1e8110-9f0d-4efe-a31b-5e2cf1b7535a" x1="24.85" y1="29.6" x2="38.43" y2="29.6" gradientTransform="matrix(-1, 0, 0, 1, 150.27, 0)" xlink:href="#757536ad-2d6d-45ce-8cd6-9bb39906ef57"/>
    <linearGradient id="43c37029-0e49-4ef3-a904-43f5d8c70e38" x1="104.72" y1="40.62" x2="117.83" y2="28.47" gradientTransform="matrix(1, 0, 0, 1, 0, 0)" xlink:href="#647ba248-5b34-44b3-bbd0-85ead88f7ba8"/>
    <linearGradient id="3681cb3e-057b-4de9-8bbf-adcea8a56c41" x1="87.74" y1="48.51" x2="98.78" y2="87.14" gradientUnits="userSpaceOnUse">
      <stop offset="0" stop-color="#e7bac1"/>
      <stop offset="1" stop-color="#ffdea9"/>
    </linearGradient>
    <linearGradient id="14626e5c-f9a2-41ee-9a02-8593b47ac51c" x1="86.4" y1="63.84" x2="124.58" y2="63.84" gradientUnits="userSpaceOnUse">
      <stop offset="0" stop-color="#2c3492"/>
      <stop offset="1" stop-color="#f0587e"/>
    </linearGradient>
    <linearGradient id="713c9c7e-b41e-419c-b286-c6915567742e" x1="144.89" y1="58.47" x2="85.7" y2="63.02" xlink:href="#3681cb3e-057b-4de9-8bbf-adcea8a56c41"/>
    <linearGradient id="1247b8dc-45de-40ff-b6f5-03622a280999" x1="108.86" y1="52.16" x2="127.57" y2="52.16" xlink:href="#14626e5c-f9a2-41ee-9a02-8593b47ac51c"/>
    <linearGradient id="5a42fb59-55cd-4bf0-8810-09f49779b6eb" x1="165.15" y1="20.45" x2="138.74" y2="69.7" xlink:href="#7a40ca58-a938-4175-923d-cc63bd8ed6ee"/>
  </defs>
  <title>6</title>
  <g id="question-6-svg" class="8938c6d9-b760-4d39-a56c-11f8b3699cf6">
    <g id="ed5fa236-bc1a-4c9c-a089-660cb2ee685d" data-name="Layer 4">
      <g style="opacity: 0;" class="podium-2 95bd3f43-49e3-4ec1-b39f-df61acb3d825">
        <path class="139e1d07-bf66-421e-818b-d93ef0d39484" d="M61.9,55.37H46.2L92.54,82.12a3.14,3.14,0,0,1,0,5.43L46.2,114.32H61.9a8.71,8.71,0,0,0,4.36-1.17l43-24.82a4,4,0,0,0,0-7l-43-24.82A8.71,8.71,0,0,0,61.9,55.37Z"/>
      </g>
      <g style="opacity: 0;" class="podium-2">
        <path class="67f2b70b-4868-46b6-9c87-d27bb4c912e4" d="M3.93,88.36v4.32l-0.15-.1C1.91,91.45.1,89.63,0,87.31c0,0,0-.08,0-0.12V82.87Z"/>
        <polygon class="67f2b70b-4868-46b6-9c87-d27bb4c912e4" points="37.51 107.87 37.51 112.2 3.93 92.68 3.93 88.36 37.51 107.87"/>
        <path class="ab5dca77-360d-48fd-8812-c0ee14958e50" d="M90.32,88.36c2.66-1.54,4-3.55,4-5.57v4.32c0,2-1.28,4-3.95,5.57L56.53,112.2v-4.32Z"/>
        <path class="eb3e4ba5-8b80-460f-93ae-acc50094726d" d="M37.51,107.87h19v4.32a14.26,14.26,0,0,1-1.91.93l-0.11,0a21.79,21.79,0,0,1-14.34.2,15.23,15.23,0,0,1-2.66-1.16v-4.32Z"/>
        <path class="387829e1-26fd-4fcc-a7bf-a11c27b9b48e" d="M3.95,77.33l33.8-19.52c5.28-3.05,13.82-3.05,19.07,0L90.4,77.33c5.22,3,5.2,8-.09,11L56.53,107.87c-5.26,3-13.8,3-19,0L3.93,88.36C-1.32,85.31-1.31,80.36,3.95,77.33Z"/>
      </g>
      <g>
        <g style="opacity: 0;" class="sitter">
          <g>
            <g>
              <g>
                <polygon class="a0135bf2-92e2-4fc6-8f05-d8c4413b8770" points="49.95 76.3 48.93 76.9 48.93 56.52 49.95 55.93 49.95 76.3"/>
                <polygon class="c802c5e3-1161-477c-978c-7f0e13f0609b" points="48.93 76.9 48.02 76.35 48.02 55.98 48.93 56.52 48.93 76.9"/>
              </g>
              <g>
                <g>
                  <polygon class="a0135bf2-92e2-4fc6-8f05-d8c4413b8770" points="36.2 84.25 35.19 84.84 35.19 32.11 36.2 31.52 36.2 84.25"/>
                  <polygon class="c802c5e3-1161-477c-978c-7f0e13f0609b" points="35.19 84.84 34.27 84.3 34.27 31.57 35.19 32.11 35.19 84.84"/>
                </g>
                <g>
                  <polygon class="a0135bf2-92e2-4fc6-8f05-d8c4413b8770" points="22.45 76.3 21.44 76.89 21.44 34.61 22.45 34.02 22.45 76.3"/>
                  <polygon class="c802c5e3-1161-477c-978c-7f0e13f0609b" points="21.44 76.89 20.52 76.35 20.52 34.07 21.44 34.61 21.44 76.89"/>
                </g>
              </g>
            </g>
            <g>
              <path class="b81c54b9-a0ef-46e2-b202-4aa6da0795f2" d="M20.25,47.54V33.37l-0.75-.44V47.1a0.76,0.76,0,0,0,.35.67l0.75,0.44A0.76,0.76,0,0,1,20.25,47.54Z"/>
              <path class="ab5dca77-360d-48fd-8812-c0ee14958e50" d="M36.52,23.12l-0.76-.44a0.57,0.57,0,0,0-.23-0.07,0.94,0.94,0,0,0-.51.14L20.55,31.11l0.75,0.44S36.47,23.09,36.52,23.12Z"/>
              <path class="b35b8fef-4c52-4389-b674-25849fc8af00" d="M21.3,31.55l-0.75-.44a1.76,1.76,0,0,0-.32.25,2.4,2.4,0,0,0-.47.62,2.22,2.22,0,0,0-.25.75,1.58,1.58,0,0,0,0,.21l0.75,0.44Z"/>
              <path class="53fcc07c-bcf6-421f-b7ac-9f40adac162f" d="M36.83,23.8a0.64,0.64,0,0,0-1.05-.61L21.3,31.55a2.32,2.32,0,0,0-1.05,1.82V47.54a0.67,0.67,0,0,0,1.1.6l14.47-8.36a2.26,2.26,0,0,0,1-1.82V23.8Z"/>
            </g>
          </g>
          <g>
            <path class="9e625063-eacb-4f67-ba67-7217921c02ba" d="M36.52,12.59a3.19,3.19,0,0,0-2.17-1.11,10.41,10.41,0,0,0-3,.29,7.2,7.2,0,0,0-2.68.92A4.81,4.81,0,0,0,27,15.06c-1,2.77-.68,5.83-1.7,8.63a15.53,15.53,0,0,0-1.14,6.15A2.44,2.44,0,0,0,24.44,31a2.52,2.52,0,0,0,1.85.89,19.71,19.71,0,0,0,5.54,0c1.58-.22,3.41-0.36,4.4-1.75a7.39,7.39,0,0,0,1-2.67,11.13,11.13,0,0,0,.23-4.9A23.21,23.21,0,0,1,36.84,20a12,12,0,0,1,.44-3.44A4.81,4.81,0,0,0,37,13.15,3,3,0,0,0,36.52,12.59Z"/>
            <path class="fbf940dc-bd4f-404c-aaef-9cafde9cab9d" d="M29.09,25.26s1.69-1.12,1-4.82l4.3,1a12.47,12.47,0,0,0,1,8.37l-1.45,3.53Z"/>
            <g>
              <path class="713e3ed1-53b1-47cc-acb7-7a611bcffc3f" d="M46.64,79.21c-2.5-2.27-3-3.49-2.89-5.6C44,68,47.06,62.47,48.34,59.24,50.36,54.11,51,53.1,50,51,47.84,46,36.68,45,31.49,44.87l-2,7.93a23.53,23.53,0,0,0,14,1c1.56-.33-1.13,4.56-1.37,6.62-0.36,3.08-.2,9.26-1.55,12.52a8.75,8.75,0,0,0-.78,1.45C39.56,75.61,44.49,79.81,46.64,79.21Z"/>
              <path class="3c1142e8-4076-49da-8e0c-47a66a76eb17" d="M46.12,78.43a5.35,5.35,0,0,1-1.38-1.28c0-.06.15,0.94-1.15,0.23a11.74,11.74,0,0,1-3.71-3.62s-0.58,1.56-.2,2l0.14,0.16,0.84,3.8,0.57,0.36-0.08-2.94c0.3,0.22.65,0.46,1.1,0.73,2.69,1.75,1.31,2.79,4.89,2C48.72,79.58,47.23,79.22,46.12,78.43Z"/>
            </g>
            <g>
              <path class="c7027048-242e-4acb-a5cb-24cfaf625e41" d="M47.86,55.34c2.1,8.65,9.52,13,10,17.46a20.64,20.64,0,0,0,4,2.43,4,4,0,0,0,3.62-.11A6.24,6.24,0,0,1,63.1,74a47.44,47.44,0,0,1-7.25-11.16c-2-4.18-2.76-8.6-3.69-11.19-0.85-2.35-3.34-2.65-5.71-2.79A99.19,99.19,0,0,0,34.05,49c-4.17.67-6.16,0.41-6.68,2.41-1,4,3.2,4.67,6.45,5.21C39,57.46,47.65,54.45,47.86,55.34Z"/>
              <path class="3c1142e8-4076-49da-8e0c-47a66a76eb17" d="M64.17,74.38a5.05,5.05,0,0,1-1.15-.5c-0.06,0,.48,1.23-0.83.89a13.39,13.39,0,0,1-4.45-2.57s0,1.57.39,1.87l0.16,0.11,1.17,2.58L60.1,77l-0.61-2.24L60.39,75c2.77,1,1.75,2.43,5.58.75C67.31,75.18,65.47,74.87,64.17,74.38Z"/>
            </g>
            <path class="37e4df13-be26-4007-b38f-2a092d417c72" d="M29.75,21.1c-1.39-3.4-.59-7,2.59-8.09a2.81,2.81,0,0,1,2.65.9,6.75,6.75,0,0,1,.94,4.64,6.78,6.78,0,0,1-.61,2.3A3.44,3.44,0,0,1,32,23,3.67,3.67,0,0,1,29.75,21.1Z"/>
            <path class="16c990ad-87b7-437e-9f0a-ed991abaa9ed" d="M39,27.1A3.66,3.66,0,0,0,38.06,25a2.48,2.48,0,0,0-2.73-.21L37,39.66s3-.51,2.72-1.35C39.24,36.59,39.95,31.34,39,27.1Z"/>
            <path class="d242b14a-0b8e-43ac-be7f-a9994ba318b6" d="M42.16,46c-4-.92-5.13-0.74-5.13-2.41a33,33,0,0,1,.7-5.77c0.23-1.09.49-2.88,0.75-4,0.44-1.79-.23-2.15-1.07-3.79A5.74,5.74,0,0,1,37,28c-0.05-2.25.42-3.58,0.11-3.63-0.6-.09-2.31.17-3-0.84a22.45,22.45,0,0,0,.3,7.63c-3-2.41-4.19-7.65-4.82-7a15.38,15.38,0,0,1-3.83,2.36c-0.65.33-1,1.5-1.12,2.14,0.09,0.12,6.53,5.46,1.42,16-1.57,3.24-1.76,6.74,1.07,9.66,1.44,1.48,5,2.56,9.21,2.68a12.24,12.24,0,0,1,1-4.65c3-5.37,7.69-4.95,9.42-4.89A25.94,25.94,0,0,0,42.16,46Z"/>
            <path class="9e625063-eacb-4f67-ba67-7217921c02ba" d="M34.25,14.68a5.14,5.14,0,0,1-2,.92,2.65,2.65,0,0,0-2.11,2.61c0.07,1.41.51,2.76,0.5,4.19a5.64,5.64,0,0,1-.39,1.7c-0.56,1.47-4.26,2.57-5.14,2.73-0.27,0,4.13-11.76,5.11-12.82,0.79-.87,2.77-2.16,4-1.5a1.25,1.25,0,0,1,.64,1.06A1.55,1.55,0,0,1,34.25,14.68Z"/>
          </g>
        </g>
        <g style="opacity: 0;" class="desk">
          <g>
            <polygon class="53fcc07c-bcf6-421f-b7ac-9f40adac162f" points="60.68 64.13 59.68 64.71 59.68 46.24 60.68 45.66 60.68 64.13"/>
            <polygon class="b81c54b9-a0ef-46e2-b202-4aa6da0795f2" points="59.68 64.71 58.78 64.18 58.78 45.71 59.68 46.24 59.68 64.71"/>
          </g>
          <g>
            <polygon class="53fcc07c-bcf6-421f-b7ac-9f40adac162f" points="82.58 76.75 81.58 77.34 81.58 44.07 82.58 43.48 82.58 76.75"/>
            <polygon class="b81c54b9-a0ef-46e2-b202-4aa6da0795f2" points="81.58 77.34 80.68 76.81 80.68 43.53 81.58 44.07 81.58 77.34"/>
          </g>
          <g>
            <polygon class="53fcc07c-bcf6-421f-b7ac-9f40adac162f" points="16.05 90.31 15.05 90.89 15.05 57.62 16.05 57.04 16.05 90.31"/>
            <polygon class="b81c54b9-a0ef-46e2-b202-4aa6da0795f2" points="15.05 90.89 14.15 90.36 14.15 57.09 15.05 57.62 15.05 90.89"/>
          </g>
          <g>
            <polygon class="7ec4437e-7cd8-458b-8c00-e4de841215f8" points="14.15 56.54 36.8 69.7 82.58 43.2 59.9 30.04 14.15 56.54"/>
            <g>
              <polygon class="b81c54b9-a0ef-46e2-b202-4aa6da0795f2" points="14.15 56.54 14.15 58.91 36.8 72.08 36.8 69.7 14.15 56.54"/>
              <polygon class="53fcc07c-bcf6-421f-b7ac-9f40adac162f" points="36.8 69.7 36.8 72.08 82.58 45.57 82.58 43.2 36.8 69.7"/>
            </g>
          </g>
          <g>
            <polygon class="53fcc07c-bcf6-421f-b7ac-9f40adac162f" points="37.8 102.94 36.8 103.53 36.8 70.25 37.8 69.67 37.8 102.94"/>
            <polygon class="b81c54b9-a0ef-46e2-b202-4aa6da0795f2" points="36.8 103.53 35.9 102.99 35.9 69.72 36.8 70.25 36.8 103.53"/>
          </g>
        </g>
        <g style="opacity: 0;" class="desk">
          <path class="cc0f0dea-27cd-4a3c-b2e3-444635c23bcb" d="M32.45,47.75l8.3,4.78v0.69l-8.3-4.78a0.6,0.6,0,0,1-.33-0.51V47.24A0.6,0.6,0,0,0,32.45,47.75Z"/>
          <path class="5c36f7f3-8ea1-46c8-b6c4-f3e0223e05d0" d="M58,43.26V44a0.46,0.46,0,0,1,0,.19,0.75,0.75,0,0,1-.3.29L42.44,53.22V52.53S58,43.31,58,43.26Z"/>
          <path class="f4f1bcc7-3a37-4a13-86a7-814cfef695a0" d="M42.43,52.53H40.76v0.69l0.15,0.07a1.77,1.77,0,0,0,.62.13,1.91,1.91,0,0,0,.61-0.08,1.4,1.4,0,0,0,.3-0.12V52.53Z"/>
          <path class="21b5ef8f-5b5e-4cd7-a284-a7421d817b69" d="M57.65,42.78a0.51,0.51,0,0,1,0,1L42.43,52.53a1.84,1.84,0,0,1-1.67,0l-8.3-4.78a0.53,0.53,0,0,1,0-1L47.69,38a1.8,1.8,0,0,1,1.65,0Z"/>
        </g>
        <path style="opacity: 0;" class="sitter d2da78d2-e9c1-4886-8bb2-fe50b6fc86cb" d="M39.53,37.33l-2.11,2.23a9.49,9.49,0,0,0,2.35,1.74,27,27,0,0,0,2.95,1.47l0.64-1.21C41.43,39.26,39.53,37.33,39.53,37.33Z"/>
        <path class="f237941e-6f56-4dfd-951f-f39ebb8333fb" d="M56,37.73l-0.12-.07a0.19,0.19,0,0,0-.21.07,0.47,0.47,0,0,0-.12.25,0.2,0.2,0,0,0,0,0,0.16,0.16,0,0,0,0,.09l0,0,0.12,0.07Z"/>
        <g>
          <path class="3e349681-4495-49d3-80d4-7b7e5af17050" d="M40.22,46.05l0.53,0.31a0.28,0.28,0,0,0,.25,0l0.54-.31a0.08,0.08,0,0,0,0-.15L41,45.6a0.28,0.28,0,0,0-.25,0l-0.54.31A0.08,0.08,0,0,0,40.22,46.05Z"/>
          <path class="3e349681-4495-49d3-80d4-7b7e5af17050" d="M39.2,46.64L39.74,47A0.28,0.28,0,0,0,40,47l0.54-.31a0.08,0.08,0,0,0,0-.15L40,46.18a0.28,0.28,0,0,0-.25,0l-0.54.31A0.08,0.08,0,0,0,39.2,46.64Z"/>
          <path class="3e349681-4495-49d3-80d4-7b7e5af17050" d="M38.19,47.23l0.53,0.31a0.28,0.28,0,0,0,.25,0l0.54-.31a0.08,0.08,0,0,0,0-.15L39,46.77a0.28,0.28,0,0,0-.25,0l-0.54.31A0.08,0.08,0,0,0,38.19,47.23Z"/>
          <path class="3e349681-4495-49d3-80d4-7b7e5af17050" d="M40.45,47a0.28,0.28,0,0,0-.25,0l-0.54.31a0.08,0.08,0,0,0,0,.15L40.2,47.8a0.28,0.28,0,0,0,.25,0L41,47.49a0.08,0.08,0,0,0,0-.15Z"/>
          <path class="3e349681-4495-49d3-80d4-7b7e5af17050" d="M38.5,47.66L38,47.35a0.28,0.28,0,0,0-.25,0l-0.54.31a0.08,0.08,0,0,0,0,.15l0.53,0.31a0.28,0.28,0,0,0,.26,0l0.54-.31A0.08,0.08,0,0,0,38.5,47.66Z"/>
          <path class="3e349681-4495-49d3-80d4-7b7e5af17050" d="M40,47.93l-0.53-.31a0.28,0.28,0,0,0-.25,0l-1,.6a0.08,0.08,0,0,0,0,.15l0.53,0.31a0.28,0.28,0,0,0,.26,0l1-.6A0.08,0.08,0,0,0,40,47.93Z"/>
          <path class="3e349681-4495-49d3-80d4-7b7e5af17050" d="M41.45,48.35a0.08,0.08,0,0,0,0-.15l-0.53-.31a0.28,0.28,0,0,0-.25,0l-0.54.31-1,.58a0.08,0.08,0,0,0,0,.15l0.53,0.31a0.28,0.28,0,0,0,.26,0l1-.58Z"/>
          <path class="3e349681-4495-49d3-80d4-7b7e5af17050" d="M41.9,49.05l-0.53-.31a0.28,0.28,0,0,0-.25,0l-1,.6a0.08,0.08,0,0,0,0,.15L40.6,49.8a0.28,0.28,0,0,0,.26,0l1-.6A0.08,0.08,0,0,0,41.9,49.05Z"/>
        </g>
        <g style="opacity: 0;" class="desk">
          <path class="cc0f0dea-27cd-4a3c-b2e3-444635c23bcb" d="M41.11,52.83V40.36L40.51,40V52.48a0.6,0.6,0,0,0,.28.54l0.6,0.35A0.6,0.6,0,0,1,41.11,52.83Z"/>
          <path class="21b5ef8f-5b5e-4cd7-a284-a7421d817b69" d="M57.75,30.07l-0.6-.35A0.45,0.45,0,0,0,57,29.67a0.75,0.75,0,0,0-.41.11L41.34,38.56l0.6,0.35S57.71,30,57.75,30.07Z"/>
          <path class="e0a488ba-dca0-4b01-89c1-63c79c4f287b" d="M41.34,38.56a1.4,1.4,0,0,0-.26.2,1.91,1.91,0,0,0-.37.49,1.77,1.77,0,0,0-.2.6,1.25,1.25,0,0,0,0,.16l0.6,0.35,0.84-1.45Z"/>
          <path class="5c36f7f3-8ea1-46c8-b6c4-f3e0223e05d0" d="M58,30.61a0.51,0.51,0,0,0-.84-0.48L41.94,38.91a1.84,1.84,0,0,0-.84,1.45V52.83a0.53,0.53,0,0,0,.88.48l15.21-8.78a1.8,1.8,0,0,0,.8-1.44V30.61Z"/>
        </g>
        <path style="opacity: 0;" class="sitter 521312e2-e74a-4de4-8c04-57f0accd7533" d="M27.21,39.72a41.31,41.31,0,0,0,.35-6.35c0.08-1.33.84-2,.28-3.29a13.31,13.31,0,0,0-1-2.13c-0.44-.72-1-1.24-1.49-0.79-0.91.86-1.59,2.7-1.33,6,0.18,2.15-.23,4.07.27,7l0.24,1.31a1.22,1.22,0,0,0,.49.77l0.84,0.59s2,1.52,7.33,2.73a9.2,9.2,0,0,1,1.83.85,5.47,5.47,0,0,0,1.64,1.57c0.29,0.18,1.62.88,2.06,0.67a5.85,5.85,0,0,0,1.71-1,0.27,0.27,0,0,0-.06-0.38,11.41,11.41,0,0,0-2.26-1.35,6.81,6.81,0,0,0,1.13.22c0.28,0,.48-0.37-0.06-0.58l-1.43-.54a12.31,12.31,0,0,1-3-.64s-3.8-2.33-6-3.77C28.32,40.24,27.49,39.88,27.21,39.72Z"/>
      </g>
    </g>
    <g style="opacity: 0;" class="podium-1" id="e84df1ae-33cc-4401-a1b1-98e363faedd5" data-name="Layer 2">
      <g class=" d8c80ad8-4d67-4be6-973c-b5b534d2e854">
        <path class="767e03cb-1912-4116-9b67-5f59594d3844" d="M163.62,109.41H139.19L211.3,151a4.88,4.88,0,0,1,0,8.45l-72.12,41.64h24.43a13.56,13.56,0,0,0,6.78-1.82l66.89-38.62a6.27,6.27,0,0,0,0-10.85L170.4,111.23A13.56,13.56,0,0,0,163.62,109.41Z"/>
      </g>
    </g>
    <g id="b115a5cd-b4ae-465a-aeff-a318b00cafa8" data-name="Partnership">
      <g style="opacity: 0;" class="podium-1">
        <path class="67f2b70b-4868-46b6-9c87-d27bb4c912e4" d="M73.25,160.5v6.72L73,167.08c-2.92-1.76-5.73-4.6-5.84-8.21,0-.06,0-0.12,0-0.18V152Z"/>
        <polygon class="67f2b70b-4868-46b6-9c87-d27bb4c912e4" points="125.5 190.87 125.5 197.6 73.25 167.23 73.25 160.5 125.5 190.87"/>
        <path class="ab5dca77-360d-48fd-8812-c0ee14958e50" d="M207.66,160.5c4.14-2.39,6.21-5.53,6.2-8.66v6.72c0,3.13-2,6.27-6.14,8.66L155.09,197.6v-6.72Z"/>
        <path class="ce33989c-9c78-45a2-b8cd-627d0fe905b9" d="M125.49,190.87h29.59v6.72a22.2,22.2,0,0,1-3,1.44l-0.18.06a33.91,33.91,0,0,1-22.31.3,23.71,23.71,0,0,1-4.14-1.8v-6.72Z"/>
        <path class="91b1c85c-db0f-47d6-93f0-5ae7c175b27d" d="M73.27,143.34L125.87,113c8.22-4.75,21.51-4.75,29.67,0l52.26,30.37c8.13,4.72,8.08,12.42-.14,17.17l-52.58,30.37c-8.18,4.72-21.47,4.72-29.59,0L73.25,160.5C65.08,155.76,65.09,148.06,73.27,143.34Z"/>
      </g>
      <g>
        <g style="opacity: 0;" class="woman">
          <path class="3b329501-533f-46a1-8135-77d37722b2c9" d="M167.11,21.36s-3.66-.53-5.79,1A6.87,6.87,0,0,0,159.78,24c-1.34,2-2,9.34-3.59,18.59a38.76,38.76,0,0,0-3.5,4.85,31.57,31.57,0,0,1-5.33,6.67l-3,2.42-0.87,3.38,5.75,0.63L151,55.84a13.13,13.13,0,0,1,2.45-3.19c1.87-1.75,2.4-1.81,4-3.79a14,14,0,0,0,2.79-4.21c0.38-1.21,2.13-4.21,2.58-6.79S167.11,21.36,167.11,21.36Z"/>
          <path class="9e625063-eacb-4f67-ba67-7217921c02ba" d="M156.45,39.59a11.37,11.37,0,0,0,5.88,1.75s3.62-18.47,3.67-19c0.12-1.32-.38-1.65-2.71-1.15-3.12.67-4.29,3.19-4.91,5.68C157.88,28.84,156.54,39.14,156.45,39.59Z"/>
          <path class="d47f45c3-8409-4e46-a24e-2276f650bcad" d="M175.94,127.62c1.56-.13,3.11-0.26,4.67-0.24-0.25,1.52-.52,3-0.8,4.54s-0.53,5.35-1.51,6.63c-1.36,1.78-7.72,1.57-7.94.94,0.8-2,2.39-2.78,3.23-4.59C174.8,132.28,175.83,131,175.94,127.62Z"/>
          <path class="36f35340-5da1-4677-8fa4-9da0b7870ea1" d="M160.33,129.08c1.85-2.32,2.63-5.26,2.7-8.87l4.66,0.05c-0.63,3-1.27,6-1,8.18,0.24,1.61-2.34,2.65-2.34,2.65a30,30,0,0,1-7.72,1.54A11,11,0,0,0,160.33,129.08Z"/>
          <path class="3c1142e8-4076-49da-8e0c-47a66a76eb17" d="M171.72,137c0.07-.54-1.65,2.8-5.12,3.67a1.27,1.27,0,0,0,0,2.41,11.06,11.06,0,0,0,6.38.77c3.67-.68,3.47-2.9,6.37-2.9,1.1,0,.23-6.76.23-6.76a6.68,6.68,0,0,1-5.55,4.15C172.34,138.53,171.52,138.49,171.72,137Z"/>
          <path class="3c1142e8-4076-49da-8e0c-47a66a76eb17" d="M159.58,129.77c0.07-.51-1.56,2.64-4.83,3.46a1.2,1.2,0,0,0,0,2.28c1.67,0.7,3.75,1.48,6.07.7,1.45-.48,3.33-2.75,5.94-2.9,1-.06.24-6.18,0.24-6.18a6.3,6.3,0,0,1-5.23,3.91C160.17,131.23,159.39,131.18,159.58,129.77Z"/>
          <path class="3c1142e8-4076-49da-8e0c-47a66a76eb17" d="M160.34,55.91c0.37-1.29.88-3,1.31-4.75,7.11,3,16.18.24,16.26,0.48,1.66,4.94,3.54,9.82,5.11,14.79a31.45,31.45,0,0,1,1.4,9c0,1.15-.82,15.36-1.67,29.07-0.78,12.68-1.56,24.92-1.65,26a10.13,10.13,0,0,1-7-.25c1.17-3.09.25-24,.25-24L169.43,77.6l-0.5,23.9s0,19.62.29,23.48c-2.29,1.41-6.3,1.08-8.47-.09-0.07,0,.5-20.55.5-20.55s-4.62-25.37-4-31.94A92.06,92.06,0,0,1,160.34,55.91Z"/>
          <path class="9e625063-eacb-4f67-ba67-7217921c02ba" d="M181.38,31.78s0.14-3.62.09-6c0-1.43-3-3.13-4.33-3.62s-9.31,11.31-9.31,11.31l-0.66-12.81A6,6,0,0,0,164,21c-0.72.22,0.58,1.08-1.46,7.75-0.62,2-2.59,3.34-1.94,6,0.3,1.21.86,4.84,1.26,7.26a45,45,0,0,1-3,16.15,7.93,7.93,0,0,0,5.58,2.67s1.42-5.33,1.5-6.17c0,0,.58,6.25,1,6.5,0,0,9.67.67,14.25-3.17,0,0-5.18-4.84-3.47-17.13A95.62,95.62,0,0,1,181.38,31.78Z"/>
          <path class="3c1142e8-4076-49da-8e0c-47a66a76eb17" d="M167,18a5.82,5.82,0,0,1-.95-0.35,7.21,7.21,0,0,1-3.67-5.55c-0.64-4.26.33-8.61,4.2-10.91,4.08-2.43,8.66-1,11.37,2.77,2.18,3,2.8,8.31.63,11.56-1.54,2.31-4.75,2.64-7.52,2.75A13.45,13.45,0,0,1,167,18Z"/>
          <path class="b5f5a742-37d1-4f9d-b9ee-081700610ae5" d="M175.26,19.78a28.06,28.06,0,0,1,0-5.12l-8.84.13c2.53,5.78.81,6,.81,6l-0.53,7.09,1,5.85s9.23-11.39,8.82-11.73A3.81,3.81,0,0,1,175.26,19.78Z"/>
          <path class="fe9b7632-2561-40f6-8763-bac4df37bd7d" d="M166.54,17.57a6.89,6.89,0,0,1-1.08-2.67c-0.38-1.49-.93-7.53,1.22-8.12a1.57,1.57,0,0,1,1.36.38,6.61,6.61,0,0,1,1,1.1,10.56,10.56,0,0,0,3,2.62c0.95,0.55,2.59,1,3.1,2.09C176.3,15.33,174,19,171,19.53A4.26,4.26,0,0,1,166.54,17.57Z"/>
          <path class="7ec4437e-7cd8-458b-8c00-e4de841215f8" d="M165.11,26.61s2.21-1.62,1.46-5.92c-0.08-.47.92-0.29,0.92-0.29s0.28,1.56.33,2.08A55.05,55.05,0,0,1,167.95,33s5.87-11.3,7.88-12.12c1.17-.48,1.85,1.07,1.85,1.07a7.86,7.86,0,0,0-3.35,7.37s-1.94,0-5.94,4.38c-0.26.28-1,1.37-1.23,1.69-0.06.07,0-2.51-.12-3.75C166.53,27.84,165.11,26.61,165.11,26.61Z"/>
          <path class="d3f4f943-69cc-418c-9cb3-8bf0c906f53f" d="M177.7,26.4c0.67-3.29,3.76-2.84,4.69-1.49,3,4.37,2.45,16.65,2.56,18.24,0.14,1.91.24,4.25,0.19,5.94-0.23,6.87-3.37,11.68-4,18.56A29.1,29.1,0,0,0,181,71.4c0.07,1.93-1.26,5.51-3.87,4.5a1.55,1.55,0,0,1-1.25-1.81c0.15-.64.46-1.23,0.65-1.87,0.24-.82,0-0.64,0-0.64a7,7,0,0,1-.78,1.77,0.74,0.74,0,0,1-1-.47,11,11,0,0,1,1.53-4.19c0.4-.59,1.21-1.08,1.41-2a60.69,60.69,0,0,0,.94-7.94c0.63-8.25.7-8.37,1.25-10.25a8.61,8.61,0,0,0,0-3.42C178.65,38.78,176.53,32.17,177.7,26.4Z"/>
          <path class="9e625063-eacb-4f67-ba67-7217921c02ba" d="M177.38,25c-0.84,1.53-.44,10.13,2,20.44,0,0,3.87.88,6.19-1.12,0,0-.62-11.92-1-14.33s-1.62-6.49-4.9-6.23A3.34,3.34,0,0,0,177.38,25Z"/>
        </g>
        <g style="opacity: 0;" class="man">
          <path class="219b60c7-bf85-40c4-9506-14746e0b5dc6" d="M91.68,152.29l5.21-.18c0,1.79-.18.68,0,1.75,0,0,.32,1.25,2.54.14l2.52-1.17,3.75,2-8.94,4.84L91.41,157A13.19,13.19,0,0,0,91.68,152.29Z"/>
          <path class="219b60c7-bf85-40c4-9506-14746e0b5dc6" d="M109.57,162.49l5.34-.63a9,9,0,0,0,.11,2.23s0.65,0.65,2.91-.49l1.78-1.25,4.21,2.26-8.9,5.6-5.2-.73A44.11,44.11,0,0,1,109.57,162.49Z"/>
          <path class="3c1142e8-4076-49da-8e0c-47a66a76eb17" d="M109.39,166a8.38,8.38,0,0,0,4.61,1.23c3.83-.11,6.82-1.29,7.1-2a0.87,0.87,0,0,0-.27-1.18c-0.78-.69-1.69-1-3.71-0.36a35.21,35.21,0,0,1,5.21-2.62c1.64-.61,2.53-0.14,3.82.41a2.85,2.85,0,0,1,1.5,1.3,4,4,0,0,1-.2,2.25c-1.44,1.76-5.33,3.8-7.06,4.62-2.06,1-5.21,2.89-6.14,3.25-1.56.61-2.94-.11-4.32-0.79a1.37,1.37,0,0,1-.74-0.91A9.69,9.69,0,0,1,109.39,166Z"/>
          <path class="3c1142e8-4076-49da-8e0c-47a66a76eb17" d="M91.37,156.38A8.38,8.38,0,0,0,96,157.61c3.83-.11,6.82-1.29,7.1-2a0.87,0.87,0,0,0-.27-1.18c-0.78-.69-1.69-1-3.71-0.36a35.22,35.22,0,0,1,5.21-2.62c1.64-.61,2.53-0.14,3.82.41a2.85,2.85,0,0,1,1.5,1.3,4,4,0,0,1-.2,2.25c-1.44,1.76-5.42,3.23-6.69,3.79a18.5,18.5,0,0,0-4.19,2.32,9.63,9.63,0,0,1-2.31,1.76c-1.56.61-2.94-.11-4.32-0.79a1.37,1.37,0,0,1-.74-0.91A9.69,9.69,0,0,1,91.37,156.38Z"/>
          <path class="9b4ee88b-14bf-4a1d-a5b3-bf58ad551fb2" d="M120.37,32.06L117.3,35.4l-4-.73-0.61-5.83,8.92-5.05L121.79,24a2,2,0,0,1,.13,2.17l-1.27,2.22Z"/>
          <path class="6c9928fc-206f-4140-a380-870d9a3d2d9b" d="M104,38.41c0.32-1.13,2.17-3.79,2.44-8.59,0.08-1.54,1.78-.72,2.94-0.44,2.66,0.63,8.06-.11,8.06-0.11s-2.81,7.39-2.5,11.33C115.09,42.57,103.72,39.42,104,38.41Z"/>
          <path class="0c2a558b-f668-47f0-bbb0-59c6f00ca339" d="M97.54,55.24a67.4,67.4,0,0,1-9.69-3.63C85.76,59,85.15,67.42,85.57,68.49c2.88,5.88,6.83,7.29,9.5,10.13,2-.75,2.38-4.37,2.38-4.37l-2-8.87S96.91,58.9,97.54,55.24Z"/>
          <path class="9e625063-eacb-4f67-ba67-7217921c02ba" d="M118.79,164c-0.39.7-6,2.63-10.77,0.25,0,0,.18-21.57.73-38.14l-1.64-17.48L103.83,127s-3.81,14.86-3.1,27.68c-0.7,1.07-9.24,2.48-11.7-.71,0,0,1.15-7.14,2.6-27.7,0.34-4.87,1.54-13.9,1.33-18.83-0.62-15-.35-25.52,3.42-28.35l23.47,0.56a304.39,304.39,0,0,1,1.64,42.24C121.1,133.21,119.15,154.92,118.79,164Z"/>
          <path class="3e068e72-ad26-4b31-b1b6-f337369c1983" d="M94,39.14A18,18,0,0,1,103,36.4c8-.53,12.75,3.14,15.37,5,6.69,4.85,6.25,16.42,6.25,16.42s-3.08,3.41-2.58,6.25c1.5,8.67.42,25,.42,25S99.12,96,92,85.35c0,0,3.24-18.65,1.07-27.49,0,0-4.65-1.11-6.67-4.17C86.4,53.69,86.43,44.71,94,39.14Z"/>
          <path class="3c1142e8-4076-49da-8e0c-47a66a76eb17" d="M122.62,24.34c3.76-3.69.75-6.35-1.84-6.21-1.83.1-7.33-3-9.83-1a21.64,21.64,0,0,0-3.13,2.41,6.9,6.9,0,0,0-1.5,2.91,18.1,18.1,0,0,0-.21,4.94,7.16,7.16,0,0,0,.42,2.85,3.84,3.84,0,0,0,1.62,2,5.37,5.37,0,0,0,3.66.11,17.76,17.76,0,0,0,3.14-1.63,10.89,10.89,0,0,1,1.38-.77,2.4,2.4,0,0,1,.78-0.12l-0.87.83a9,9,0,0,0-1.45,1.86,2.65,2.65,0,0,0-.5,2.19,5.54,5.54,0,0,0,.63,1.66A2.55,2.55,0,0,0,118,37.53c0.76-.34,1-1.64,1.11-2.37a1.39,1.39,0,0,0-.48-1.61c-0.09-.06-1-0.32-1-0.34l-0.06-3.5,1.56-3.87C120.41,24.74,121.78,25.17,122.62,24.34Z"/>
          <path class="eb9c316d-8c8c-4b86-bc30-de938174d3b4" d="M114.4,57.86a42.38,42.38,0,0,0,14.92,13.75L132.57,72s5.5-1.17,12.08-7.75a7.28,7.28,0,0,1,1.4-.68,12.64,12.64,0,0,0,1.61-1,5.32,5.32,0,0,0,2.18-2.85,5.52,5.52,0,0,0-.34-3.47,1.12,1.12,0,0,0-1.69-.22l-2.29,2c0-.55.07-2.88-0.72-2.77a2.43,2.43,0,0,0-1.53,1.49l-1,1.8L142,61.9s-6.29,1.29-9.12,3c0,0-6.58-12.25-11.08-15.75C118,46.13,108.71,48.8,114.4,57.86Z"/>
          <path  class="84704e8e-69cf-472d-8ea8-238a66dfa4b9" d="M127.57,54.36s-4.75,7.25-15.75,7.25c0,0-7.08-13.5.67-17.5C112.49,44.11,123.65,37.11,127.57,54.36Z"/>
        </g>
        <path style="opacity: 0;" class="woman a5b4f6b4-cc81-4184-aa85-671ced932808" d="M148.26,53.55L146,58.3a1.42,1.42,0,0,1-1.31.88h0a0.82,0.82,0,0,1-.53-1.08l1.15-2.86Z"/>
      </g>
    </g>
  </g>
</svg>
