<svg class="svg-graphic" xmlns="http://www.w3.org/2000/svg" xmlns:xlink="http://www.w3.org/1999/xlink" viewBox="0 0 1940.21 1515.09" >
  <defs>
    <style>
      .\31 db3c579-698d-47e0-b02a-70d61ed6e520 {
        mask: url(#15cf8da5-59b2-4172-8c13-f87fdb89e55c);
        filter: url(#65349189-1ac1-4047-8295-7e530f8a82c3);
      }

      .\31 9f18dfa-32ce-4f8c-a3a1-dcccb5f78e38, .b7a8c009-1c3e-42c1-8712-5f3b26a94b8c, .c485cfef-0212-4682-8a2a-809d503bbb66 {
        mix-blend-mode: multiply;
      }

      .\31 9f18dfa-32ce-4f8c-a3a1-dcccb5f78e38 {
        fill: url(#fe335067-ad53-48e3-998d-c7587e935788);
      }

      .\38 ca303d3-f7fe-4159-8a0b-a7b83fc28772 {
        mask: url(#32054dc9-104f-438d-a5ca-b287e09e1778);
        filter: url(#9a21c976-712b-46c5-b26e-e7f2ef76fd04);
      }

      .c485cfef-0212-4682-8a2a-809d503bbb66 {
        fill: url(#5e4ec36a-a020-413a-8723-405279a11039);
      }

      .\31 3a49ba0-8a05-4688-b3ad-af8cdd4cd4cc {
        isolation: isolate;
      }

      .\36 a362bce-96fc-44e7-a3a9-6f4f7563e9f1 {
        fill: #92a5eb;
      }

      .\30 b7ae8aa-e49c-41ea-8daa-6d4fd1b88da1 {
        mask: url(#c448ed6d-ce8d-48bc-8a6b-29e35f33af73);
      }

      .\33 6f4ec01-8ef7-41c9-a943-d149451e529e {
        fill: url(#f318b3b6-7175-4e57-9d4e-1ed0e8a61934);
      }

      .\37 d6ada0d-68bd-43cc-a362-3f25246772df {
        fill: url(#459d37c9-6743-43b3-87fe-0a3a338fcd23);
      }

      .c617cf57-f15e-4702-a980-2af0ff919201 {
        fill: url(#666ec549-b306-4c1f-bebf-6cdc92aadd98);
      }

      .\31 fffbc63-64c4-4953-bee3-c46da0849d11 {
        fill: url(#85541b72-2bc7-45c7-a629-8b04e0023d21);
      }

      .a1f5345c-0123-4e8a-8c9f-e5423465aa24 {
        fill: #cad0e6;
      }

      .\32 913d4dc-2b15-4d40-860c-6e4d69ceea42, .\38 a49464a-1c45-42db-8fc2-6c4e15111c32 {
        fill: #fff;
      }

      .\30 37127eb-ea30-414b-9e2c-fe83193ddbc8 {
        fill: url(#a23e045f-8d20-4059-abcf-d3c0c3c763f7);
      }

      .\30 fa0e189-d5cf-449c-88aa-816c996fb287 {
        fill: #788acb;
      }

      .\34 8292a55-96f6-4d54-99bd-c89051eec7e8 {
        fill: #d6225d;
      }

      .\32 913d4dc-2b15-4d40-860c-6e4d69ceea42 {
        opacity: 0.5;
      }

      .\30 9b47e09-dc85-4465-8218-5d06668a8364 {
        mask: url(#5d15575b-fc5b-4955-a0da-24ea5e862281);
      }

      .b7a8c009-1c3e-42c1-8712-5f3b26a94b8c {
        fill: url(#f08a4385-df54-42b1-b19d-c6b23021a565);
      }

      .bf8afd5d-0dfe-4afc-b422-15ae0b36c0bb {
        fill: url(#3fcfdab7-7e30-4e48-a3eb-2ac4d1f542d5);
      }

      .\34 59f465f-698f-43c3-a088-04d9e36a0a1f {
        fill: url(#035c732e-dbf0-42d0-afa6-0fc6211a8861);
      }

      .\30 86dcf71-939d-4423-b900-1052d8c63989 {
        fill: #2e3191;
      }

      .\32 ed8847d-94d0-4a8f-b090-7c84f48cb707 {
        fill: #454563;
      }

      .eac0c511-2d93-419e-a023-7ce3c0292843 {
        fill: #f5d5d5;
      }

      .\34 08a9002-7735-462b-9123-205fcc7b77e7 {
        fill: url(#bcd3fbc1-e284-406e-8940-32c3353e7665);
      }

      .acc97daa-fe29-47e4-99a9-cb54546a4727 {
        fill: #001370;
      }

      .c5505da6-43ae-45a7-912a-42149d15e0ab {
        fill: #514ea1;
      }

      .f0f47975-a6bf-474a-b759-2a809be169eb {
        opacity: 0.25;
        fill: url(#a56f31f0-d546-45fc-aaa7-6e21ca96627d);
      }

      .\39 31db118-fd08-40de-ae2b-7490520d2e7b {
        fill: url(#d882585b-8d8e-4918-b4ab-faef074182e8);
      }

      .beecda61-9236-4bd0-97ef-a19be417ed11 {
        fill: url(#9b52be35-9661-4810-81b2-4bbbae9e1d41);
      }

      .\38 a9390c8-de46-4999-8e0c-22c4eff3620f {
        fill: url(#ee36256c-b705-4ad0-a3ef-8b30242d5258);
      }

      .\33 9761b1d-a4a0-44d3-98f6-1f0fbb85fe05 {
        fill: #ffc891;
      }

      .ebe3d853-484c-4bf7-880a-aa80979c247e {
        fill: #080078;
      }

      .ef47fdb0-70fc-4650-a5b9-8ddbd7de4193 {
        fill: url(#25d11e8a-6341-454f-8dcd-cf7e2a916748);
      }

      .d0832dfb-9643-4163-8170-c2686962d212 {
        fill: url(#d5cb640b-a182-41c0-8f1a-c2e011ab8bf9);
      }

      .d58603b7-b111-4808-942f-9588fdcf6e8e {
        fill: url(#ff471cbb-f37a-4dce-afc9-62338ab06650);
      }

      .\33 b930f19-acc9-4e97-8b44-d4f3a4ebd693 {
        filter: url(#df2e94a9-ec12-42b3-96cb-403634482de7);
      }

      .e0d731fb-d3fd-4d12-90f8-17d8cbc8b1b4 {
        filter: url(#49addc2e-62e8-4a62-9be2-52672faa395a);
      }
    </style>
    <filter id="49addc2e-62e8-4a62-9be2-52672faa395a" x="438.58" y="-8061.96" width="1068.29" height="32766" filterUnits="userSpaceOnUse" color-interpolation-filters="sRGB">
      <feFlood flood-color="#fff" result="bg"/>
      <feBlend in="SourceGraphic" in2="bg"/>
    </filter>
    <mask id="15cf8da5-59b2-4172-8c13-f87fdb89e55c" x="438.58" y="-8061.96" width="1068.29" height="32766" maskUnits="userSpaceOnUse">
      <g class="e0d731fb-d3fd-4d12-90f8-17d8cbc8b1b4"/>
    </mask>
    <linearGradient id="fe335067-ad53-48e3-998d-c7587e935788" data-name="¡ÂÁ˚ÏˇÌÌ˚È „‡‰ËÂÌÚ 32" x1="972.73" y1="1419.18" x2="972.73" y2="785.74" gradientTransform="matrix(1, 0, 0, -1, 0, 2284.93)" gradientUnits="userSpaceOnUse">
      <stop offset="0" stop-color="#fff"/>
      <stop offset="0.02" stop-color="#f3f3f3"/>
      <stop offset="0.09" stop-color="#c1c1c1"/>
      <stop offset="0.17" stop-color="#939393"/>
      <stop offset="0.25" stop-color="#6b6b6b"/>
      <stop offset="0.34" stop-color="#4a4a4a"/>
      <stop offset="0.44" stop-color="#2f2f2f"/>
      <stop offset="0.54" stop-color="#1a1a1a"/>
      <stop offset="0.65" stop-color="#0b0b0b"/>
      <stop offset="0.79" stop-color="#030303"/>
      <stop offset="1"/>
    </linearGradient>
    <filter id="df2e94a9-ec12-42b3-96cb-403634482de7" x="959.86" y="-8061.96" width="380.29" height="32766" filterUnits="userSpaceOnUse" color-interpolation-filters="sRGB">
      <feFlood flood-color="#fff" result="bg"/>
      <feBlend in="SourceGraphic" in2="bg"/>
    </filter>
    <mask id="32054dc9-104f-438d-a5ca-b287e09e1778" x="959.86" y="-8061.96" width="380.29" height="32766" maskUnits="userSpaceOnUse">
      <g class="3b930f19-acc9-4e97-8b44-d4f3a4ebd693"/>
    </mask>
    <linearGradient id="5e4ec36a-a020-413a-8723-405279a11039" data-name="ÅÂÁ˚ÏﬂÌÌ˚È „‡‰ËÂÌÚ 338" x1="908.72" y1="935.4" x2="1289" y2="935.4" gradientTransform="matrix(-1, 0, 0, 1, 2248.86, 0)" gradientUnits="userSpaceOnUse">
      <stop offset="0" stop-color="#fff"/>
      <stop offset="1"/>
    </linearGradient>
    <filter id="65349189-1ac1-4047-8295-7e530f8a82c3" x="438.58" y="865.74" width="1068.29" height="633.44" filterUnits="userSpaceOnUse" color-interpolation-filters="sRGB">
      <feFlood flood-color="#fff" result="bg"/>
      <feBlend in="SourceGraphic" in2="bg"/>
    </filter>
    <mask id="c448ed6d-ce8d-48bc-8a6b-29e35f33af73" x="438.58" y="865.74" width="1068.29" height="633.44" maskUnits="userSpaceOnUse">
      <g class="1db3c579-698d-47e0-b02a-70d61ed6e520">
        <path class="19f18dfa-32ce-4f8c-a3a1-dcccb5f78e38" d="M474.1,1116.23L860.4,893.56a208.22,208.22,0,0,1,207.94,0l403,232.32c47.35,27.29,47.35,95.52,0,122.82l-386.3,222.68a208.22,208.22,0,0,1-207.94,0l-403-232.32C426.75,1211.76,426.75,1143.53,474.1,1116.23Z"/>
      </g>
    </mask>
    <linearGradient id="f318b3b6-7175-4e57-9d4e-1ed0e8a61934" x1="438.58" y1="1102.46" x2="1506.87" y2="1102.46" gradientTransform="matrix(1, 0, 0, -1, 0, 2284.93)" gradientUnits="userSpaceOnUse">
      <stop offset="0" stop-color="#dee8ff"/>
      <stop offset="1" stop-color="#788acb"/>
    </linearGradient>
    <linearGradient id="459d37c9-6743-43b3-87fe-0a3a338fcd23" x1="290.97" y1="1136.88" x2="1695.32" y2="1136.88" gradientTransform="matrix(1, 0, 0, 1, 0, 0)" xlink:href="#f318b3b6-7175-4e57-9d4e-1ed0e8a61934"/>
    <linearGradient id="666ec549-b306-4c1f-bebf-6cdc92aadd98" x1="290.97" y1="1136.88" x2="1695.32" y2="1136.88" gradientTransform="matrix(1, 0, 0, 1, 0, 0)" xlink:href="#f318b3b6-7175-4e57-9d4e-1ed0e8a61934"/>
    <linearGradient id="85541b72-2bc7-45c7-a629-8b04e0023d21" x1="607.72" y1="1181.58" x2="1346.17" y2="664.51" gradientUnits="userSpaceOnUse">
      <stop offset="0" stop-color="#e1e6f0"/>
      <stop offset="1" stop-color="#fff"/>
    </linearGradient>
    <linearGradient id="a23e045f-8d20-4059-abcf-d3c0c3c763f7" x1="1330.02" y1="248.48" x2="1049.35" y2="595.07" gradientUnits="userSpaceOnUse">
      <stop offset="0" stop-color="#5b68f5"/>
      <stop offset="1" stop-color="#010854"/>
    </linearGradient>
    <filter id="9a21c976-712b-46c5-b26e-e7f2ef76fd04" x="959.86" y="902.85" width="380.29" height="65.11" filterUnits="userSpaceOnUse" color-interpolation-filters="sRGB">
      <feFlood flood-color="#fff" result="bg"/>
      <feBlend in="SourceGraphic" in2="bg"/>
    </filter>
    <mask id="5d15575b-fc5b-4955-a0da-24ea5e862281" x="959.86" y="902.85" width="380.29" height="65.11" maskUnits="userSpaceOnUse">
      <g class="8ca303d3-f7fe-4159-8a0b-a7b83fc28772">
        <path class="c485cfef-0212-4682-8a2a-809d503bbb66" d="M1277.65,902.85c34.51,0,62.49,14.58,62.49,32.56s-28,32.56-62.49,32.56H959.86V902.85h317.79Z"/>
      </g>
    </mask>
    <linearGradient id="f08a4385-df54-42b1-b19d-c6b23021a565" data-name="ÅÂÁ˚ÏﬂÌÌ˚È „‡‰ËÂÌÚ 26" x1="908.72" y1="935.4" x2="1289" y2="935.4" gradientTransform="matrix(-1, 0, 0, 1, 2248.86, 0)" gradientUnits="userSpaceOnUse">
      <stop offset="0" stop-color="#bcc1e8"/>
      <stop offset="1" stop-color="#bcc1e8"/>
    </linearGradient>
    <linearGradient id="3fcfdab7-7e30-4e48-a3eb-2ac4d1f542d5" x1="1223.45" y1="904.26" x2="1275.35" y2="904.26" gradientUnits="userSpaceOnUse">
      <stop offset="0" stop-color="#f7c1d8"/>
      <stop offset="1" stop-color="#ffdda8"/>
    </linearGradient>
    <linearGradient id="035c732e-dbf0-42d0-afa6-0fc6211a8861" x1="1285.02" y1="920.35" x2="1328.1" y2="920.35" xlink:href="#3fcfdab7-7e30-4e48-a3eb-2ac4d1f542d5"/>
    <linearGradient id="bcd3fbc1-e284-406e-8940-32c3353e7665" x1="1279.29" y1="688.12" x2="1279.29" y2="475.56" gradientUnits="userSpaceOnUse">
      <stop offset="0" stop-color="#2e3192"/>
      <stop offset="1" stop-color="#f0587c"/>
    </linearGradient>
    <linearGradient id="a56f31f0-d546-45fc-aaa7-6e21ca96627d" x1="664" y1="1073.24" x2="885.87" y2="851.38" gradientTransform="matrix(1, 0, 0, 1, 0, 0)" xlink:href="#f318b3b6-7175-4e57-9d4e-1ed0e8a61934"/>
    <linearGradient id="d882585b-8d8e-4918-b4ab-faef074182e8" x1="886.41" y1="1001.78" x2="1054.7" y2="1001.78" gradientTransform="matrix(1, 0, 0, 1, 0, 0)" xlink:href="#f318b3b6-7175-4e57-9d4e-1ed0e8a61934"/>
    <linearGradient id="9b52be35-9661-4810-81b2-4bbbae9e1d41" x1="495.18" y1="937.52" x2="886.41" y2="937.52" gradientUnits="userSpaceOnUse">
      <stop offset="0" stop-color="#788acb"/>
      <stop offset="1" stop-color="#dee8ff"/>
    </linearGradient>
    <linearGradient id="ee36256c-b705-4ad0-a3ef-8b30242d5258" x1="939.75" y1="912.93" x2="939.75" y2="750.11" xlink:href="#bcd3fbc1-e284-406e-8940-32c3353e7665"/>
    <linearGradient id="25d11e8a-6341-454f-8dcd-cf7e2a916748" x1="734.82" y1="825.08" x2="734.82" y2="609.62" xlink:href="#bcd3fbc1-e284-406e-8940-32c3353e7665"/>
    <linearGradient id="d5cb640b-a182-41c0-8f1a-c2e011ab8bf9" x1="1296.51" y1="670.69" x2="1350.53" y2="670.69" xlink:href="#3fcfdab7-7e30-4e48-a3eb-2ac4d1f542d5"/>
    <linearGradient id="ff471cbb-f37a-4dce-afc9-62338ab06650" x1="1058.98" y1="185.19" x2="1113" y2="185.19" gradientTransform="matrix(0.87, -0.5, -0.5, -0.87, 293.62, 1097.7)" xlink:href="#3fcfdab7-7e30-4e48-a3eb-2ac4d1f542d5"/>
  </defs>
  <title>3</title>
  <g id="question-3-svg" class="13a49ba0-8a05-4688-b3ad-af8cdd4cd4cc">
    <g class="podium" style="opacity: 0;" id="2899affc-f5bb-4152-ae65-24445711e701" data-name="1">
      <path class="6a362bce-96fc-44e7-a3a9-6f4f7563e9f1" d="M1455,1043.56a3,3,0,0,1-1.52-5.68l72.82-42a97.58,97.58,0,0,0,48.75-84.3V556.86a30.46,30.46,0,0,0-45.69-26.33l-33.26,19.17a3,3,0,0,1-3-5.28l33.26-19.17a36.55,36.55,0,0,1,54.82,31.61V911.6a103.69,103.69,0,0,1-51.8,89.57l-72.82,42A3,3,0,0,1,1455,1043.56Z"/>
      <g class="0b7ae8aa-e49c-41ea-8daa-6d4fd1b88da1">
        <path class="36f4ec01-8ef7-41c9-a943-d149451e529e" d="M474.1,1116.23L860.4,893.56a208.22,208.22,0,0,1,207.94,0l403,232.32c47.35,27.29,47.35,95.52,0,122.82l-386.3,222.68a208.22,208.22,0,0,1-207.94,0l-403-232.32C426.75,1211.76,426.75,1143.53,474.1,1116.23Z"/>
      </g>
      <g>
        <g>
          <path class="7d6ada0d-68bd-43cc-a362-3f25246772df" d="M1049.22,1331.93L1492,1076.71a48.62,48.62,0,0,0,24.59-42.52V922.58L977.24,1233.47v117.71A144.05,144.05,0,0,0,1049.22,1331.93Z"/>
          <path class="c617cf57-f15e-4702-a980-2af0ff919201" d="M462.49,1076.71l442.77,255.22a144.05,144.05,0,0,0,72,19.26V1233.47L437.9,922.58v111.61A48.62,48.62,0,0,0,462.49,1076.71Z"/>
        </g>
        <path class="1fffbc63-64c4-4953-bee3-c46da0849d11" d="M462.19,965.57L905,1220.79a144.17,144.17,0,0,0,144,0l442.77-255.22c32.78-18.9,32.78-66.14,0-85L1048.93,625.31a144.17,144.17,0,0,0-144,0L462.19,880.53C429.41,899.43,429.41,946.67,462.19,965.57Z"/>
      </g>
      <g class="podium" style="opacity: 0;">
        <path class="a1f5345c-0123-4e8a-8c9f-e5423465aa24" d="M1515.83,333.11a113.56,113.56,0,0,0-41.63-41.56L977.54,5.25a38.54,38.54,0,0,0-38.85,0L915.92,18.38l573,330.27V839.84l22.77-13.12a38.41,38.41,0,0,0,19.42-33.59V389.89A113.34,113.34,0,0,0,1515.83,333.11Z"/>
        <path class="8a49464a-1c45-42db-8fc2-6c4e15111c32" d="M954.77,18.38l496.67,286.29A113.52,113.52,0,0,1,1508.3,403V806.25c0,29.86-32.37,48.52-58.27,33.59L953.37,553.54a113.52,113.52,0,0,1-56.87-98.34V52C896.5,22.11,928.87,3.45,954.77,18.38Z"/>
        <path class="037127eb-ea30-414b-9e2c-fe83193ddbc8" d="M985.45,66.48L1397,303.72A61.55,61.55,0,0,1,1427.85,357V757.52a22.62,22.62,0,0,1-33.93,19.56L982.35,539.84a61.55,61.55,0,0,1-30.84-53.32V86A22.62,22.62,0,0,1,985.45,66.48Z"/>
        <path class="0fa0e189-d5cf-449c-88aa-816c996fb287" d="M1486.15,611.48c-11,6.37-28.69-3.49-39.41-22s-10.45-38.72.6-45.09,28.69,3.49,39.41,22S1497.2,605.11,1486.15,611.48Z"/>
        <path class="a1f5345c-0123-4e8a-8c9f-e5423465aa24" d="M924.09,178.39c-6.42-3.7-11.63-1.5-11.63,4.91V318.85c0,6.41,5.21,14.61,11.63,18.31s11.63,1.5,11.63-4.91V196.7C935.72,190.29,930.51,182.09,924.09,178.39Z"/>
      </g>
      <g class="podium" style="opacity: 0;">
        <g class="bars">
          <polygon style="opacity: 0;" class="bar-5 8a49464a-1c45-42db-8fc2-6c4e15111c32" points="1194.57 581.66 1194.57 379.12 1227.63 398.17 1227.63 600.72 1194.57 581.66"/>
          <polygon style="opacity: 0;" class="bar-4 8a49464a-1c45-42db-8fc2-6c4e15111c32" points="1139.8 537.89 1139.8 403.88 1172.85 422.93 1172.85 556.95 1139.8 537.89"/>
          <polygon style="opacity: 0;" class="bar-3 48292a55-96f6-4d54-99bd-c89051eec7e8" points="1085.03 506.32 1085.03 418.48 1118.08 437.53 1118.08 525.38 1085.03 506.32"/>
          <polygon style="opacity: 0;" class="bar-2 48292a55-96f6-4d54-99bd-c89051eec7e8" points="1030.25 474.75 1030.25 418.45 1063.31 437.51 1063.31 493.8 1030.25 474.75"/>
          <polygon style="opacity: 0;" class="bar-1 48292a55-96f6-4d54-99bd-c89051eec7e8" points="975.48 443.18 975.48 418.83 1008.53 437.89 1008.53 462.23 975.48 443.18"/>
        </g>
        <path style="opacity: 0;" class="red-background 48292a55-96f6-4d54-99bd-c89051eec7e8" d="M997.57,101.17l182.94,105.45a41.82,41.82,0,0,1,21,36.23V355.52A14.31,14.31,0,0,1,1180,367.89L997.05,262.44a41.82,41.82,0,0,1-21-36.23V113.54A14.31,14.31,0,0,1,997.57,101.17Z"/>
        <path style="opacity: 0;" class="graphic-1 8a49464a-1c45-42db-8fc2-6c4e15111c32" d="M996.24,144.79c0-3.93,2.39-5.73,5.35-4l69.64,40.14c3,1.7,5.34,6.27,5.34,10.19s-2.39,5.73-5.35,4L1001.58,155C998.63,153.28,996.24,148.72,996.24,144.79Z"/>
        <path style="opacity: 0;" class="graphic-4 8a49464a-1c45-42db-8fc2-6c4e15111c32" d="M1033.87,194.79c0-3.93,2.39-5.73,5.35-4l69.64,40.14c3,1.7,5.34,6.27,5.34,10.19s-2.39,5.73-5.35,4L1039.21,205C1036.26,203.29,1033.87,198.72,1033.87,194.79Z"/>
        <path style="opacity: 0;" class="graphic-5 8a49464a-1c45-42db-8fc2-6c4e15111c32" d="M1224.77,255.45c0-10.89,6.64-15.9,14.82-11.18L1392,332.12c8.18,4.72,14.82,17.37,14.81,28.27s-6.64,15.9-14.82,11.18l-152.4-87.85C1231.4,279,1224.77,266.35,1224.77,255.45Z"/>
        <path style="opacity: 0;" class="graphic-2 2913d4dc-2b15-4d40-860c-6e4d69ceea42" d="M1085.35,196.16c0-3.93,2.39-5.73,5.35-4l19.12,11c3,1.7,5.34,6.27,5.34,10.19s-2.39,5.73-5.35,4l-19.12-11C1087.74,204.65,1085.35,200.08,1085.35,196.16Z"/>
        <path style="opacity: 0;" class="graphic-3 2913d4dc-2b15-4d40-860c-6e4d69ceea42" d="M996.24,172.62c0-3.93,2.39-5.73,5.35-4l19.12,11c3,1.7,5.34,6.27,5.34,10.19s-2.39,5.73-5.35,4l-19.12-11C998.63,181.11,996.24,176.55,996.24,172.62Z"/>
      </g>
      <g class="man" style="opacity: 0;" id="2d6d0a76-37b1-4130-a629-c1ef7c269730" data-name="Layer 3">
        <g class="09b47e09-dc85-4465-8218-5d06668a8364">
          <path class="b7a8c009-1c3e-42c1-8712-5f3b26a94b8c" d="M1277.65,902.85c34.51,0,62.49,14.58,62.49,32.56s-28,32.56-62.49,32.56H959.86V902.85h317.79Z"/>
        </g>
      </g>
      <g class="man" style="opacity: 0;" id="13d8bce1-d94a-4c9a-8adf-a2a2753dbbbc" data-name="Layer 2">
        <g>
          <path class="bf8afd5d-0dfe-4afc-b422-15ae0b36c0bb" d="M1262.5,879.52c-2.76-.2-14.48-1.05-17.59-1.25,0.06,7.5-.24,14-1.1,18.35,0,0-3,16.59-9.79,18.72l-20,8.08v3l26.38,3.83,25.53-16.59-3.83-17.44S1261.92,887.9,1262.5,879.52Z"/>
          <path class="459f465f-698f-43c3-a088-04d9e36a0a1f" d="M1314.35,891.76h-17.54a92.31,92.31,0,0,1-1.11,16.36s0,12.25-10.94,24.62l-10,11.49v3l23,1.74,20.1-23.81L1314,907.69S1313.83,899.87,1314.35,891.76Z"/>
          <path class="086dcf71-939d-4423-b900-1052d8c63989" d="M1234.87,795.07s2.13,91.88.43,99.22c1.27,2.27,20.21,9.09,35.74,1.38a653.49,653.49,0,0,0,2.13-98.31l0.43-51.7,8.51,55.82,6,11.47s5.11,43.72-.43,87.3c2.27,3.46,29.89,8,37.86-2.29,0,0,3.83-23.08-.85-89.59-1.11-15.78,2.75-50,3.4-65.92,2-48.52,1.12-82.6-11.06-91.74L1231,654.85s-6.1,36.71-1.84,101.95l2.69,32.77Z"/>
          <path class="086dcf71-939d-4423-b900-1052d8c63989" d="M1315.49,913s-1,11.18-15.48,20.55a1,1,0,0,1-.81.07s-5.89-7.37-14.73-4.71c-2.59.78-.59,8.25-14.14,12.38-7.31,2.23-3.54,7.07.29,9.13,6.78,4.13,20,5.22,27.11,3.24,5.3-1.47,7.74-6.72,10.31-10.31,4.42-6.19,7.66-11.49,10-14.73C1318.06,928.61,1319.83,923.6,1315.49,913Z"/>
          <path class="086dcf71-939d-4423-b900-1052d8c63989" d="M1263.73,900.1s-2.84,9-22.47,17.9a1.21,1.21,0,0,1-.81.07s-10-6.95-13.62-4.88c-2.35,1.34-3.73,5.27-11.24,8.39-9.94,4.13-10.92,3-13.76,4.54-2,1.7.85,3.69,5.25,6.38,6.24,3,7.07,3.67,14.47,4.1,3.07,0.18,8.65-1,13.09-2.87,22.58-9.62,30.1-11.84,33.85-16.4C1268.48,917.33,1269,911.8,1263.73,900.1Z"/>
        </g>
      </g>
      <g class="man" style="opacity: 0;">
        <g>
          <polygon class="2ed8847d-94d0-4a8f-b090-7c84f48cb707" points="1192.47 480.19 1211.36 454.38 1257.14 487.76 1238.26 513.57 1192.47 480.19"/>
          <path class="2ed8847d-94d0-4a8f-b090-7c84f48cb707" d="M1192.48,480.19a16,16,0,1,1,22.37-3.48A16,16,0,0,1,1192.48,480.19Z"/>
        </g>
        <polygon class="2ed8847d-94d0-4a8f-b090-7c84f48cb707" points="1213.88 456.67 1188.12 475.38 1139.16 401.61 1155.96 389.41 1213.88 456.67"/>
        <path class="2ed8847d-94d0-4a8f-b090-7c84f48cb707" d="M1214.86,457.89a16,16,0,1,1-22.36-3.52A16,16,0,0,1,1214.86,457.89Z"/>
      </g>
      <ellipse style="opacity: 0;" class="man eac0c511-2d93-419e-a023-7ce3c0292843" cx="1280.19" cy="425.21" rx="38.19" ry="38.25" transform="translate(851.88 1704.37) rotate(-89.86)"/>
      <path style="opacity: 0;" class="man 408a9002-7735-462b-9123-205fcc7b77e7" d="M1228.29,655s-6.06-131.79-6-158.86,31.09-19.67,54.33-19.62S1327,493.59,1334.44,524c6.18,25.36-5.08,164.12-5.08,164.12Z"/>
      <path style="opacity: 0;" class="man 8a49464a-1c45-42db-8fc2-6c4e15111c32" d="M1252.08,481.85c0-21.64,60.74-15.17,51.62,5.24l-46.15,108.76Z"/>
      <path style="opacity: 0;" class="man eac0c511-2d93-419e-a023-7ce3c0292843" d="M1261.43,450.36l0.53,36.49c0.08,5.25,7.29,9.41,16.12,9.28s15.92-4.49,15.84-9.75l-0.53-36.49Z"/>
      <path style="opacity: 0;" class="man acc97daa-fe29-47e4-99a9-cb54546a4727" d="M1300.34,382.61a43.45,43.45,0,0,0-6.55-2.39c-27.55-7.62-43.69,30.15-19.32,45.06l10.77,6.59a12.38,12.38,0,1,1,13.64,20.62l4,6.06a42.16,42.16,0,0,0,17.69-17.77C1331.81,419.4,1322.3,392.68,1300.34,382.61Z"/>
      <g style="opacity: 0;" class="man">
        <g>
          <path class="2ed8847d-94d0-4a8f-b090-7c84f48cb707" d="M1319.25,509.8h6.07a13,13,0,0,1,13,13v43.65a0,0,0,0,1,0,0h-32a0,0,0,0,1,0,0V522.76A13,13,0,0,1,1319.25,509.8Z" transform="translate(-102.35 446.4) rotate(-18.46)"/>
          <path class="2ed8847d-94d0-4a8f-b090-7c84f48cb707" d="M1346.46,559.88a16,16,0,1,1-20.26-10.09A16,16,0,0,1,1346.46,559.88Z"/>
        </g>
        <polygon class="2ed8847d-94d0-4a8f-b090-7c84f48cb707" points="1315.37 566.68 1347.22 566.32 1344.36 654.77 1323.6 655 1315.37 566.68"/>
        <ellipse class="2ed8847d-94d0-4a8f-b090-7c84f48cb707" cx="1331.28" cy="564.94" rx="16.01" ry="15.98" transform="translate(-6.38 15.27) rotate(-0.66)"/>
      </g>
      <g>
        <path style="opacity: 0;" class="kids c5505da6-43ae-45a7-912a-42149d15e0ab" d="M1045.25,853.12l-40.13-3.06,2.21,108.39c0.08,4.12,3.57,7.54,8,7.88h0c4.41,0.34,8.35-2.44,9.12-6.43Z"/>
        <g style="opacity: 0;" class="kids">
          <path class="c5505da6-43ae-45a7-912a-42149d15e0ab" d="M838.21,734.26l-35.79,18.37,63,99.54a8.66,8.66,0,0,0,11.27,3.07h0a8.63,8.63,0,0,0,4.11-10.8Z"/>
          <path class="2ed8847d-94d0-4a8f-b090-7c84f48cb707" d="M837.39,732.47a20.21,20.21,0,1,0-8.73,27.18A20.23,20.23,0,0,0,837.39,732.47Z"/>
        </g>
        <path style="opacity: 0;" class="podium f0f47975-a6bf-474a-b759-2a809be169eb" d="M502.85,911.32l361.1,208.15a45,45,0,0,0,44.92,0L1047,1039.83a15.31,15.31,0,0,0,0-26.53L685.93,805.15a45,45,0,0,0-44.92,0L502.85,884.79A15.31,15.31,0,0,0,502.85,911.32Z"/>
        <g style="opacity: 0;" class="podium">
          <g>
            <path class="931db118-fd08-40de-ae2b-7490520d2e7b" d="M908.87,1062.64L1047,983a15.17,15.17,0,0,0,7.67-13.27V934.91l-168.29,97v36.73A45,45,0,0,0,908.87,1062.64Z"/>
            <path class="beecda61-9236-4bd0-97ef-a19be417ed11" d="M502.85,854.49l361.1,208.15a45,45,0,0,0,22.46,6v-36.73L495.18,806.4v34.82A15.17,15.17,0,0,0,502.85,854.49Z"/>
          </g>
          <path class="8a49464a-1c45-42db-8fc2-6c4e15111c32" d="M502.85,819.66l361.1,208.15a45,45,0,0,0,44.92,0L1047,948.17a15.31,15.31,0,0,0,0-26.53L685.93,713.49a45,45,0,0,0-44.92,0L502.85,793.13A15.31,15.31,0,0,0,502.85,819.66Z"/>
        </g>
        <g style="opacity: 0;" class="kids">
          <polygon class="c5505da6-43ae-45a7-912a-42149d15e0ab" points="1039.52 864.02 1011.16 835.24 943.29 901.76 984.05 918.38 1039.52 864.02"/>
          <path class="c5505da6-43ae-45a7-912a-42149d15e0ab" d="M1039.51,864a20.2,20.2,0,1,0-28.59-.23A20.16,20.16,0,0,0,1039.51,864Z"/>
        </g>
        <g style="opacity: 0;" class="kids">
          <polygon class="c5505da6-43ae-45a7-912a-42149d15e0ab" points="833.59 756.09 805.23 727.31 737.36 793.83 778.12 810.45 833.59 756.09"/>
          <path class="c5505da6-43ae-45a7-912a-42149d15e0ab" d="M833.59,756.09a20.2,20.2,0,1,0-28.59-.23A20.16,20.16,0,0,0,833.59,756.09Z"/>
        </g>
        <g style="opacity: 0;" class="kids">
          <path class="c5505da6-43ae-45a7-912a-42149d15e0ab" d="M984,918.39h0V855.32H889.84v22.86C889.84,927.14,948.61,952.22,984,918.39Z"/>
          <ellipse class="eac0c511-2d93-419e-a023-7ce3c0292843" cx="953.89" cy="696.25" rx="35.52" ry="35.47"/>
          <path class="8a9390c8-de46-4999-8e0c-22c4eff3620f" d="M950.66,908.88c16.84,10.81,39-1.26,39-21.25V790.51c0-25.14-28.77-40.4-50.35-40.4S889.84,761.78,889.84,786v83.8Z"/>
          <path class="eac0c511-2d93-419e-a023-7ce3c0292843" d="M961.32,727.09l-8.59,32.79c-1.24,4.72-8.67,6.87-16.6,4.8s-13.36-7.57-12.12-12.3l8.59-32.79Z"/>
          <path class="acc97daa-fe29-47e4-99a9-cb54546a4727" d="M951.6,656.54a38.71,38.71,0,0,1,17.61,4.22,38.72,38.72,0,0,1,3.93,29.53,11.12,11.12,0,0,0-11.33,18.59A38.87,38.87,0,0,1,918,714.79,38.75,38.75,0,0,1,951.6,656.54Z"/>
          <g>
            <g>
              <rect class="eac0c511-2d93-419e-a023-7ce3c0292843" x="966.89" y="833.99" width="24.44" height="43.23" transform="translate(2060.87 1577.08) rotate(172.55)"/>
              <ellipse class="39761b1d-a4a0-44d3-98f6-1f0fbb85fe05" cx="981.92" cy="877.03" rx="12.22" ry="12.2" transform="translate(-105.4 134.68) rotate(-7.45)"/>
            </g>
            <g>
              <polygon class="eac0c511-2d93-419e-a023-7ce3c0292843" points="994.02 875.27 970.4 881.11 987.15 930.94 998.37 924.67 994.02 875.27"/>
              <path class="eac0c511-2d93-419e-a023-7ce3c0292843" d="M993.79,874.1a12.22,12.22,0,1,0-8.93,14.78A12.22,12.22,0,0,0,993.79,874.1Z"/>
            </g>
            <path class="8a49464a-1c45-42db-8fc2-6c4e15111c32" d="M988.41,803.37l4.6,46.15c0.66,6.64-5.41,12.69-13.57,13.5s-15.3-3.92-16-10.56l-4.6-46.15Z"/>
          </g>
        </g>
        <g style="opacity: 0;" class="kids">
          <path class="2ed8847d-94d0-4a8f-b090-7c84f48cb707" d="M791.16,777.89h0V714.83H697v22.86C697,786.65,755.72,811.72,791.16,777.89Z"/>
          <g>
            <g>
              <polygon class="eac0c511-2d93-419e-a023-7ce3c0292843" points="673.74 699.93 696.62 708.52 711.87 668.07 688.99 659.48 673.74 699.93"/>
              <path class="39761b1d-a4a0-44d3-98f6-1f0fbb85fe05" d="M673.74,699.93a12.22,12.22,0,1,0,15.74-7.12A12.2,12.2,0,0,0,673.74,699.93Z"/>
            </g>
            <g>
              <polygon class="eac0c511-2d93-419e-a023-7ce3c0292843" points="696.66 708.41 673.11 702.35 666.35 758.6 675.54 760.96 696.66 708.41"/>
              <path class="eac0c511-2d93-419e-a023-7ce3c0292843" d="M697,707.27A12.22,12.22,0,1,0,682.13,716,12.2,12.2,0,0,0,697,707.27Z"/>
              <path class="eac0c511-2d93-419e-a023-7ce3c0292843" d="M668.24,746.38a10.4,10.4,0,1,0,13.36,6.16A10.39,10.39,0,0,0,668.24,746.38Z"/>
            </g>
            <path class="ebe3d853-484c-4bf7-880a-aa80979c247e" d="M727.41,643L708.7,685.5c-2.69,6.11-11,8.4-18.46,5.1s-11.4-10.92-8.71-17l18.71-42.45Z"/>
          </g>
          <ellipse class="eac0c511-2d93-419e-a023-7ce3c0292843" cx="761" cy="555.76" rx="35.52" ry="35.47"/>
          <path class="ef47fdb0-70fc-4650-a5b9-8ddbd7de4193" d="M786.22,825.08S796.76,675.15,796.76,650s-28.77-40.4-50.35-40.4S697,621.29,697,645.53,673,760.3,673,760.3s-3,17.27,31.09,41S786.22,825.08,786.22,825.08Z"/>
          <path class="39761b1d-a4a0-44d3-98f6-1f0fbb85fe05" d="M768.43,586.6l-8.59,32.79c-1.24,4.72-8.67,6.87-16.6,4.8s-13.36-7.58-12.12-12.3l8.59-32.79Z"/>
          <path class="acc97daa-fe29-47e4-99a9-cb54546a4727" d="M758.71,516.05a38.7,38.7,0,0,1,17.61,4.22,38.72,38.72,0,0,1,3.93,29.53,11.12,11.12,0,0,0-11.33,18.59,38.87,38.87,0,0,1-43.79,5.92A38.75,38.75,0,0,1,758.71,516.05Z"/>
          <g>
            <g>
              <rect class="eac0c511-2d93-419e-a023-7ce3c0292843" x="774" y="693.5" width="24.44" height="43.23" transform="translate(1658.51 1322.29) rotate(172.55)"/>
              <ellipse class="39761b1d-a4a0-44d3-98f6-1f0fbb85fe05" cx="789.03" cy="736.54" rx="12.22" ry="12.2" transform="translate(-88.81 108.49) rotate(-7.45)"/>
            </g>
            <g>
              <polygon class="eac0c511-2d93-419e-a023-7ce3c0292843" points="801.13 734.78 777.51 740.61 802.26 812.45 811.48 810.17 801.13 734.78"/>
              <path class="eac0c511-2d93-419e-a023-7ce3c0292843" d="M800.9,733.61A12.22,12.22,0,1,0,792,748.39,12.22,12.22,0,0,0,800.9,733.61Z"/>
            </g>
            <path class="ebe3d853-484c-4bf7-880a-aa80979c247e" d="M795.52,662.88l4.6,46.15c0.66,6.64-5.41,12.69-13.57,13.5s-15.3-3.92-16-10.56L766,665.81Z"/>
          </g>
          <path class="acc97daa-fe29-47e4-99a9-cb54546a4727" d="M768.92,568.38S799,597.61,773,631.11s-78.64,15-80.23-12.52,32.63-29.82,28.51-53.32S768.92,568.38,768.92,568.38Z"/>
        </g>
        <path style="opacity: 0;" class="kids eac0c511-2d93-419e-a023-7ce3c0292843" d="M810.65,802.62c7.49,17.12,12.41,26.69,8.62,34.58-2.78,5.79-3.67-4.78-5.72-6.94-1.43-1.51-7.26,4.65-6.36,11.56s0.85,14.68-3,12.18-7.27-9.65-7.26-14.81-0.54-12.07,3.85-17.18,0-11.82,0-11.82Z"/>
        <path style="opacity: 0;" class="kids eac0c511-2d93-419e-a023-7ce3c0292843" d="M987.4,931.3c6.78,13.9,0,12.14,12.42,20.29s12.47,8.15,16.87,8.06c6.29-.12,11-4.63,3.46-11s-12.33-8.48-11.87-9.82,6-2.11,4.42-4.46-3.63-.81-7.09-0.39-7.33-10.67-7.33-10.67Z"/>
      </g>
      <path style="opacity: 0;" class="man d0832dfb-9643-4163-8170-c2686962d212" d="M1325.44,618.83s-7.56,2.3-11.83,50.93c-0.49,5.61-1,10.51-3.94,17.41l-11.26,12.36a4.56,4.56,0,0,0-.62,5.29l1.69,3-6.63,8.84a3.13,3.13,0,0,0-.19,3.47l1.15,1.94a4.19,4.19,0,0,0,4.47,2l11.39-2.42,8.54-11.83,4.6-19.39s29.9-39.43,22.67-68.67A19,19,0,0,0,1325.44,618.83Z"/>
      <path style="opacity: 0;" class="man d58603b7-b111-4808-942f-9588fdcf6e8e" d="M1171.6,441.58s-7.7,1.76-35.56-38.33c-3.21-4.62-6.08-8.64-12.07-13.16L1108,385a4.56,4.56,0,0,1-3.16-4.29l0-3.49-10.15-4.38a3.13,3.13,0,0,1-1.89-2.92l0-2.25a4.19,4.19,0,0,1,2.91-3.93l11.08-3.56,13.29,6,13.62,14.54s45.54,19.37,53.79,48.34A19,19,0,0,1,1171.6,441.58Z"/>
    </g>
  </g>
</svg>
