<svg class="svg-graphic" xmlns="http://www.w3.org/2000/svg" xmlns:xlink="http://www.w3.org/1999/xlink" viewBox="0 0 667.74 498.99" >
  <defs>
    <style>
      .\37 d61d64c-ce75-4487-9dad-1a5c3b562737 {
        mask: url(#98067695-d2dc-4149-a89a-472f1422c019);
        filter: url(#114f52e0-3fbc-4eaf-b6bd-fff46bafecb5);
      }

      .\31 ab437d7-c062-4b06-ada2-4f845b4675fb, .\33 8981646-35d3-48da-a623-3de48bba6f38, .\34 8dc56bb-bbc2-4aec-8db0-8bb285eef659, .\38 6d96c8a-248c-4311-a929-7ce0d5756b25, .\39 b7cb68e-522d-41ba-9689-d79a80eacf5e, .b2361bc0-5434-4fb9-9b26-8ece2bbedd61 {
        mix-blend-mode: multiply;
      }

      .b2361bc0-5434-4fb9-9b26-8ece2bbedd61 {
        fill: url(#42f53b02-42b4-427c-821d-2c719473a6a0);
      }

      .f7255d56-bedd-4723-a912-315d8e749d3f {
        mask: url(#7de15aff-00b2-41c9-8533-9161a3bf8bfd);
        filter: url(#a5e4eea1-3a15-4b54-befd-b3ad550358e9);
      }

      .\33 8981646-35d3-48da-a623-3de48bba6f38 {
        fill: url(#87897ac0-0ca1-48a0-ba99-5439f176f305);
      }

      .f54a8b6b-4f8c-45cb-95b0-aa18b5d44daf {
        fill: url(#04a42029-f924-4fe6-9958-a04d6df05176);
      }

      .e9a38bbd-a564-40c6-95a8-b8c05e3818b3 {
        mask: url(#0e71ed9d-b262-44f5-9e09-b3ea7a68850a);
        filter: url(#b2528bcf-a6b7-4a0e-862d-3c2d3a35136b);
      }

      .\31 ab437d7-c062-4b06-ada2-4f845b4675fb {
        fill: url(#1c8c633f-40a2-4f5e-ac66-d66d00d100b7);
      }

      .e14814a2-74d2-494f-b7f2-390113a66d11 {
        isolation: isolate;
      }

      .a3d89fa0-7161-4b95-832c-4889396915d1 {
        fill: #001370;
      }

      .\34 0f0deaa-fe2f-4bc5-a750-cebcee04cf4b, .aa2203a5-0a7f-4f83-8fae-d5e0adc59abe {
        fill: #080078;
      }

      .\38 347e2f2-de0b-4207-8cf0-3055f69cb0c3 {
        fill: #f5d5d5;
      }

      .\33 10e9dbc-67cc-4a19-9476-5c258e92ba5f {
        fill: url(#31cfd71f-2c67-44c4-ae67-c44c664cbf9c);
      }

      .\34 f785a0e-2a07-44dc-b358-5a68cd79d25e {
        fill: #514ea1;
      }

      .d67175e6-7549-4571-a5ca-17f2aefe6ff2 {
        fill: url(#d978c3bb-f018-4713-a894-80b7804b97bf);
      }

      .f91b0b3c-d09b-4752-917d-c5e52d8a6df3 {
        fill: url(#1550fed5-0a4c-496e-8d32-e056ec954ee4);
      }

      .\35 b551ef1-dca9-4ee1-b842-78affe701599 {
        fill: #d6225d;
      }

      .d6c1f202-7601-49b4-a9fb-7888e8182335 {
        fill: #ed597d;
      }

      .\37 d5fd8df-595a-4a68-89e5-fc26d6356d79 {
        fill: #f085a6;
      }

      .\35 4ce3db3-964e-452b-860f-47fc11c0e0b0 {
        mask: url(#cd011f38-a119-4ced-869e-4195987351ec);
      }

      .\38 6d96c8a-248c-4311-a929-7ce0d5756b25 {
        fill: url(#affb4e44-dccb-440a-90b5-cffc5a7c09a1);
      }

      .\39 b7cb68e-522d-41ba-9689-d79a80eacf5e {
        fill: #9295b2;
      }

      .d8622c8f-1247-4c74-8827-bbd4c0c095a4 {
        fill: url(#fcb5e9b3-e7b7-44ee-94b4-cfe9ea08cf38);
      }

      .eb411f82-d03c-4dc2-a9b9-f0a134daf02d {
        fill: #fff;
      }

      .\33 d59b094-b7a9-4f4b-bce0-b05e4918df7d {
        fill: url(#0a974ac3-7aaa-4c8c-8c4b-f3bcaebdf9b9);
      }

      .\31 3c1a6f8-efce-486f-b101-468015f95c5c {
        mask: url(#9206c8a7-2c03-4553-92ca-4467af4cd238);
      }

      .\34 8dc56bb-bbc2-4aec-8db0-8bb285eef659 {
        fill: url(#c16a58b6-4d94-4398-89b2-83237bc6122e);
      }

      .\36 4ae15f4-2cbe-480d-bcfb-98bbf4f262f6 {
        fill: #bcc0e5;
      }

      .dbebb544-208c-4e25-9cb3-f318d32e5ecc {
        fill: url(#f1a5a10b-14ec-4fa1-8737-1b160d2c7223);
      }

      .\37 aa48410-c89a-4cd1-b2d6-72b4210939ba {
        fill: url(#7d975a76-f65f-479e-9010-3f9605800b7d);
      }

      .a321024e-1bca-4142-9336-f5393ccace93 {
        fill: url(#87235ad6-a19c-446d-8e55-c672c94bafa9);
      }

      .\35 3a9c7e2-37b3-440e-8849-c5d90eff3f13 {
        fill: url(#eb1e7a51-aa65-4474-b416-34233fb220ff);
      }

      .d241d6f9-1b45-4fb0-aad3-8d5767d79f2e {
        fill: url(#3e75ff39-1ea0-42b9-a649-d24665380239);
      }

      .\36 e222c4d-fa37-4029-83b8-a9a0ed63dd63 {
        fill: url(#8560cf39-1688-4537-9c29-cb87618bf4dc);
      }

      .b9662a22-6db2-4617-b056-951a9e567d4e {
        fill: url(#47a484ee-bd2a-4a55-98ba-165449d4a7d5);
      }

      .a3d80001-3742-4848-aee9-95934bce6911 {
        fill: #283e40;
      }

      .\38 2a55d1d-9354-44e7-ab44-41ca590e31d9 {
        fill: url(#50db0661-fd7b-4151-b3a2-df538122e0cf);
      }

      .\35 8974521-126f-4de2-86c4-b41f21679475 {
        mask: url(#b1badc4b-0221-41f3-a876-11fd077e3cf9);
      }

      .\35 9dab108-7943-4f96-83d8-e1f7ce121a8a {
        fill: url(#15d8814e-c559-4802-b127-a0636c1559f9);
      }

      .\34 03d8b57-f4be-45fc-9563-7b69b0e56ff1 {
        mask: url(#7682a880-83aa-4201-8a14-e0eda5d5a25d);
      }

      .\36 da0bf17-8789-4a19-b8e1-345a8eb407d5 {
        fill: url(#7a370d8c-f7cb-419b-9021-f24c0fc63868);
      }

      .\34 0f0deaa-fe2f-4bc5-a750-cebcee04cf4b {
        opacity: 0.8;
      }

      .\30 19730a0-1740-40ba-8eea-f34b77981398 {
        filter: url(#9d214ba5-f9d3-4a22-a56b-ffacea618aa4);
      }

      .\38 d5d6130-cdc6-4f23-aa82-b8d50fad6a01 {
        filter: url(#90a10881-07df-44a0-a9b5-3b40211fc84b);
      }

      .ef3fb241-d274-4876-b715-4c7195791b03 {
        filter: url(#0c7aaa53-2e60-43d7-8d32-a6a77d4e6b34);
      }
    </style>
    <filter id="0c7aaa53-2e60-43d7-8d32-a6a77d4e6b34" x="270.24" y="-8251.2" width="278.85" height="32766" filterUnits="userSpaceOnUse" color-interpolation-filters="sRGB">
      <feFlood flood-color="#fff" result="bg"/>
      <feBlend in="SourceGraphic" in2="bg"/>
    </filter>
    <mask id="98067695-d2dc-4149-a89a-472f1422c019" x="270.24" y="-8251.2" width="278.85" height="32766" maskUnits="userSpaceOnUse">
      <g class="ef3fb241-d274-4876-b715-4c7195791b03"/>
    </mask>
    <linearGradient id="42f53b02-42b4-427c-821d-2c719473a6a0" data-name="ÅÂÁ˚ÏﬂÌÌ˚È „‡‰ËÂÌÚ 4" x1="270.24" y1="430.11" x2="549.09" y2="430.11" gradientUnits="userSpaceOnUse">
      <stop offset="0" stop-color="#fff"/>
      <stop offset="1"/>
    </linearGradient>
    <filter id="90a10881-07df-44a0-a9b5-3b40211fc84b" x="312.53" y="-8251.2" width="30.31" height="32766" filterUnits="userSpaceOnUse" color-interpolation-filters="sRGB">
      <feFlood flood-color="#fff" result="bg"/>
      <feBlend in="SourceGraphic" in2="bg"/>
    </filter>
    <mask id="7de15aff-00b2-41c9-8533-9161a3bf8bfd" x="312.53" y="-8251.2" width="30.31" height="32766" maskUnits="userSpaceOnUse">
      <g class="8d5d6130-cdc6-4f23-aa82-b8d50fad6a01"/>
    </mask>
    <linearGradient id="87897ac0-0ca1-48a0-ba99-5439f176f305" x1="261.85" y1="420.51" x2="446.38" y2="420.51" xlink:href="#42f53b02-42b4-427c-821d-2c719473a6a0"/>
    <linearGradient id="04a42029-f924-4fe6-9958-a04d6df05176" data-name="ÅÂÁ˚ÏﬂÌÌ˚È „‡‰ËÂÌÚ 60" x1="272.02" y1="-5.24" x2="272.02" y2="321.92" gradientUnits="userSpaceOnUse">
      <stop offset="0"/>
      <stop offset="0.09" stop-color="#060606"/>
      <stop offset="0.22" stop-color="#171717"/>
      <stop offset="0.36" stop-color="#323232"/>
      <stop offset="0.52" stop-color="#595959"/>
      <stop offset="0.68" stop-color="#8b8b8b"/>
      <stop offset="0.85" stop-color="#c6c6c6"/>
      <stop offset="1" stop-color="#fff"/>
    </linearGradient>
    <filter id="9d214ba5-f9d3-4a22-a56b-ffacea618aa4" x="338.53" y="-8251.2" width="85.97" height="32766" filterUnits="userSpaceOnUse" color-interpolation-filters="sRGB">
      <feFlood flood-color="#fff" result="bg"/>
      <feBlend in="SourceGraphic" in2="bg"/>
    </filter>
    <mask id="0e71ed9d-b262-44f5-9e09-b3ea7a68850a" x="338.53" y="-8251.2" width="85.97" height="32766" maskUnits="userSpaceOnUse">
      <g class="019730a0-1740-40ba-8eea-f34b77981398"/>
    </mask>
    <linearGradient id="1c8c633f-40a2-4f5e-ac66-d66d00d100b7" x1="-1288.74" y1="345.81" x2="-1302.86" y2="324" gradientTransform="translate(1682.7)" xlink:href="#42f53b02-42b4-427c-821d-2c719473a6a0"/>
    <linearGradient id="31cfd71f-2c67-44c4-ae67-c44c664cbf9c" data-name="ÅÂÁ˚ÏﬂÌÌ˚È „‡‰ËÂÌÚ 111" x1="-2189.63" y1="204.67" x2="-2206.3" y2="110.2" gradientTransform="matrix(-1, 0, 0, 1, -1733.64, 0)" gradientUnits="userSpaceOnUse">
      <stop offset="0" stop-color="#5b68f5"/>
      <stop offset="1" stop-color="#010854"/>
    </linearGradient>
    <linearGradient id="d978c3bb-f018-4713-a894-80b7804b97bf" data-name="ÅÂÁ˚ÏﬂÌÌ˚È „‡‰ËÂÌÚ 29" x1="-101.78" y1="-46.71" x2="-81.47" y2="-49.83" gradientTransform="matrix(0.99, 0.1, -0.1, 0.99, 543.35, 140.78)" gradientUnits="userSpaceOnUse">
      <stop offset="0" stop-color="#fff"/>
      <stop offset="0.08" stop-color="#fdf9f9"/>
      <stop offset="1" stop-color="#f5d5d5"/>
    </linearGradient>
    <linearGradient id="1550fed5-0a4c-496e-8d32-e056ec954ee4" x1="-102.12" y1="-72.9" x2="-73.63" y2="-57.21" xlink:href="#d978c3bb-f018-4713-a894-80b7804b97bf"/>
    <filter id="114f52e0-3fbc-4eaf-b6bd-fff46bafecb5" x="270.24" y="373.47" width="278.85" height="113.28" filterUnits="userSpaceOnUse" color-interpolation-filters="sRGB">
      <feFlood flood-color="#fff" result="bg"/>
      <feBlend in="SourceGraphic" in2="bg"/>
    </filter>
    <mask id="cd011f38-a119-4ced-869e-4195987351ec" x="270.24" y="373.47" width="278.85" height="113.28" maskUnits="userSpaceOnUse">
      <g class="7d61d64c-ce75-4487-9dad-1a5c3b562737">
        <path class="b2361bc0-5434-4fb9-9b26-8ece2bbedd61" d="M270.24,475.7h94.83l2.68,11h73.32a44,44,0,0,0,22-5.9L542.49,435a13.2,13.2,0,0,0,0-22.87l-67-38.67L325.16,390.29Z"/>
      </g>
    </mask>
    <linearGradient id="affb4e44-dccb-440a-90b5-cffc5a7c09a1" data-name="ÅÂÁ˚ÏﬂÌÌ˚È „‡‰ËÂÌÚ 26" x1="270.24" y1="430.11" x2="549.09" y2="430.11" gradientUnits="userSpaceOnUse">
      <stop offset="0" stop-color="#bcc0e5"/>
      <stop offset="1" stop-color="#bcc0e5"/>
    </linearGradient>
    <linearGradient id="fcb5e9b3-e7b7-44ee-94b4-cfe9ea08cf38" data-name="ÅÂÁ˚ÏﬂÌÌ˚È „‡‰ËÂÌÚ 104" x1="455.89" y1="350.99" x2="84.58" y2="350.99" gradientUnits="userSpaceOnUse">
      <stop offset="0.4" stop-color="#bcc0e5"/>
      <stop offset="0.61" stop-color="#d0d3f5"/>
    </linearGradient>
    <linearGradient id="0a974ac3-7aaa-4c8c-8c4b-f3bcaebdf9b9" x1="459.74" y1="425.9" x2="276.16" y2="425.9" xlink:href="#fcb5e9b3-e7b7-44ee-94b4-cfe9ea08cf38"/>
    <filter id="a5e4eea1-3a15-4b54-befd-b3ad550358e9" x="312.53" y="368.34" width="30.31" height="104.33" filterUnits="userSpaceOnUse" color-interpolation-filters="sRGB">
      <feFlood flood-color="#fff" result="bg"/>
      <feBlend in="SourceGraphic" in2="bg"/>
    </filter>
    <mask id="9206c8a7-2c03-4553-92ca-4467af4cd238" x="312.53" y="368.34" width="30.31" height="104.33" maskUnits="userSpaceOnUse">
      <g class="f7255d56-bedd-4723-a912-315d8e749d3f">
        <polygon class="38981646-35d3-48da-a623-3de48bba6f38" points="342.84 472.67 342.84 409 312.54 368.34 312.54 455.18 342.84 472.67"/>
      </g>
    </mask>
    <linearGradient id="c16a58b6-4d94-4398-89b2-83237bc6122e" x1="261.85" y1="420.51" x2="446.38" y2="420.51" xlink:href="#affb4e44-dccb-440a-90b5-cffc5a7c09a1"/>
    <linearGradient id="f1a5a10b-14ec-4fa1-8737-1b160d2c7223" data-name="ÅÂÁ˚ÏﬂÌÌ˚È „‡‰ËÂÌÚ 3" x1="-714.08" y1="513.7" x2="-713.85" y2="515.47" gradientTransform="matrix(-1, 0.06, 0.06, 1, -306.31, 8.54)" gradientUnits="userSpaceOnUse">
      <stop offset="0" stop-color="#04007e"/>
      <stop offset="1" stop-color="#bb1aff"/>
    </linearGradient>
    <linearGradient id="7d975a76-f65f-479e-9010-3f9605800b7d" x1="-738.14" y1="506.81" x2="-737.96" y2="508.25" xlink:href="#f1a5a10b-14ec-4fa1-8737-1b160d2c7223"/>
    <linearGradient id="87235ad6-a19c-446d-8e55-c672c94bafa9" data-name="ÅÂÁ˚ÏﬂÌÌ˚È „‡‰ËÂÌÚ 8 ÍÓÔËﬂ 2" x1="462.57" y1="404.57" x2="503.48" y2="498.27" gradientUnits="userSpaceOnUse">
      <stop offset="0" stop-color="#080078"/>
      <stop offset="1" stop-color="#5b68f5"/>
    </linearGradient>
    <linearGradient id="eb1e7a51-aa65-4474-b416-34233fb220ff" x1="442.59" y1="392.87" x2="475.68" y2="509.56" xlink:href="#87235ad6-a19c-446d-8e55-c672c94bafa9"/>
    <linearGradient id="3e75ff39-1ea0-42b9-a649-d24665380239" x1="460.9" y1="368.79" x2="446.59" y2="342.35" gradientUnits="userSpaceOnUse">
      <stop offset="0.01" stop-color="#2e3192"/>
      <stop offset="1" stop-color="#f0587c"/>
    </linearGradient>
    <linearGradient id="8560cf39-1688-4537-9c29-cb87618bf4dc" x1="472.52" y1="397.29" x2="437.66" y2="329.35" xlink:href="#3e75ff39-1ea0-42b9-a649-d24665380239"/>
    <linearGradient id="47a484ee-bd2a-4a55-98ba-165449d4a7d5" x1="443.24" y1="374.42" x2="428.21" y2="348.91" xlink:href="#3e75ff39-1ea0-42b9-a649-d24665380239"/>
    <linearGradient id="50db0661-fd7b-4151-b3a2-df538122e0cf" x1="150.57" y1="231.19" x2="389.9" y2="231.19" xlink:href="#fcb5e9b3-e7b7-44ee-94b4-cfe9ea08cf38"/>
    <mask id="b1badc4b-0221-41f3-a876-11fd077e3cf9" x="143.4" y="-13.49" width="257.24" height="349.98" maskUnits="userSpaceOnUse">
      <rect class="f54a8b6b-4f8c-45cb-95b0-aa18b5d44daf" x="143.4" y="-13.49" width="257.24" height="349.98"/>
    </mask>
    <linearGradient id="15d8814e-c559-4802-b127-a0636c1559f9" x1="306.74" y1="174.55" x2="241.65" y2="174.55" gradientUnits="userSpaceOnUse">
      <stop offset="0" stop-color="#ed597d"/>
      <stop offset="1" stop-color="#2f3490"/>
    </linearGradient>
    <filter id="b2528bcf-a6b7-4a0e-862d-3c2d3a35136b" x="338.53" y="283.95" width="85.97" height="85.28" filterUnits="userSpaceOnUse" color-interpolation-filters="sRGB">
      <feFlood flood-color="#fff" result="bg"/>
      <feBlend in="SourceGraphic" in2="bg"/>
    </filter>
    <mask id="7682a880-83aa-4201-8a14-e0eda5d5a25d" x="338.53" y="283.95" width="85.97" height="85.28" maskUnits="userSpaceOnUse">
      <g class="e9a38bbd-a564-40c6-95a8-b8c05e3818b3">
        <polygon class="1ab437d7-c062-4b06-ada2-4f845b4675fb" points="424.5 319.25 338.53 369.23 338.53 333.95 424.5 283.95 424.5 319.25"/>
      </g>
    </mask>
    <linearGradient id="7a370d8c-f7cb-419b-9021-f24c0fc63868" data-name="ÅÂÁ˚ÏﬂÌÌ˚È „‡‰ËÂÌÚ 192" x1="-1288.74" y1="345.81" x2="-1302.86" y2="324" gradientTransform="translate(1682.7)" gradientUnits="userSpaceOnUse">
      <stop offset="0" stop-color="#ff5a6f"/>
      <stop offset="1" stop-color="#ffad6f"/>
    </linearGradient>
  </defs>
  <title>2</title>
  <g id="question-2-svg" class="e14814a2-74d2-494f-b7f2-390113a66d11">
    <g id="0838542c-0ce4-4695-b0d7-90a37b4aadde" data-name="ëÎÓÈ 1">
      <g id="woman" style="opacity: 0;">
        <path class="a3d89fa0-7161-4b95-832c-4889396915d1" d="M472.87,62.56c7.7,2.26,9.37,6,9,11.17s4.46,8.15,9,8.83,9.51,8.76,5.3,13.39-3.45,5.05-1.26,10.52-3.53,10.18-11.69,8.88-22.4-27.4-22-27.74S472.87,62.56,472.87,62.56Z"/>
        <path class="a3d89fa0-7161-4b95-832c-4889396915d1" d="M472.29,199.57c-0.12,1.94-.57,2.62-1,2.83a0.72,0.72,0,0,0-.51.59,14.89,14.89,0,0,1-1.11,2.26c-1.63,2.64-4.08,2.46-3.32.23s1.08-2.25,1.35-3.84,0.62-3.17,2.15-3.71A1.65,1.65,0,0,1,472.29,199.57Z"/>
        <path class="aa2203a5-0a7f-4f83-8fae-d5e0adc59abe" d="M459.57,93.52c0.56,2.68-2.74,8.62-5.27,11.53-2.15,2.47-9.21,10.31-14.22,15.32-0.74.74-3.24-2.3-2.61-3.24C440.6,112.53,450,98.2,450,98.2c7.3-15.33,7.34-15.27,9.16-17.89C462.24,75.82,459,90.84,459.57,93.52Z"/>
        <path class="a3d89fa0-7161-4b95-832c-4889396915d1" d="M457,196.38c-2.23,1.51-2.64,1.29-3,2.46s3,0.79,4.58.37a5,5,0,0,0,2.05-1.13c0.73-.78,1.34-0.29,2.6-0.59s1.53-1.46,1.19-3.37-4.07-.45-4.89.06A23,23,0,0,0,457,196.38Z"/>
        <path class="8347e2f2-de0b-4207-8cf0-3055f69cb0c3" d="M460.44,193.87c-0.4.5-.11,0.77,0.37,0.92a3.22,3.22,0,0,0,2.64-.9c0.41-.72,3.31-23.51,3.33-32.27s3.91-34.77,4.89-41.15-10.09-9-11.49,2.2-1.46,36.64-.54,42.18,1.38,23.73,1.4,25.88A5.47,5.47,0,0,1,460.44,193.87Z"/>
        <path class="8347e2f2-de0b-4207-8cf0-3055f69cb0c3" d="M469.06,198.69c-0.14.68-.27,1.45,0.76,1.76a1.77,1.77,0,0,0,1.94-2.08c-0.38-2,4-23,4-31.8s1-35.07,2-41.45-10.3-9-11.69,2.18,1.41,37.9,2.36,43.45,0.94,22.21,1,24.36A22.28,22.28,0,0,1,469.06,198.69Z"/>
        <path class="310e9dbc-67cc-4a19-9476-5c258e92ba5f" d="M454.92,113.33c-4.2,29.88-1.14,35-.43,43.49,0.29,3.5,10.22,9.94,15.82,9.93s6.71-1.85,6.83-5c0.28-7.61.45-10.76,2.85-43.76Z"/>
        <path class="4f785a0e-2a07-44dc-b358-5a68cd79d25e" d="M461.17,129.45c-8.4-4.62-9.54-7.77-8.79-15,1.41-13.64,4.39-35.58,10.7-38.25,5.68-2.41,17.17,4.27,20.42,14.06,2.84,8.53-1.59,29.41-2.54,36.51S472.2,135.51,461.17,129.45Z"/>
        <path class="d67175e6-7549-4571-a5ca-17f2aefe6ff2" d="M478.87,84.28a7.32,7.32,0,0,0-1-1.22h0l-0.24-.25c-0.71-.79-2.78-3.47-3.46-8.81,0,0-4.28-1-5.05.88a4.26,4.26,0,0,1-2.6,2,5.11,5.11,0,0,0-1.86.49h0c-1.43.73-2.23,2.21-2.16,4.54C462.65,87,472,92.74,476,91.12S479.93,86.1,478.87,84.28Z"/>
        <path class="aa2203a5-0a7f-4f83-8fae-d5e0adc59abe" d="M476,91.12c4-1.62,3.93-5,2.86-6.84a7.32,7.32,0,0,0-1-1.22h0l-0.24-.25a14,14,0,0,1-2.82-5.62h0s-1.52,2.73-3.42,2.92c-1.69.17-4.85-.6-4.9-3.25a5.08,5.08,0,0,0-1.82.49h0c-1.43.73-2.23,2.21-2.16,4.54C462.65,87,472,92.74,476,91.12Z"/>
        <path class="f91b0b3c-d09b-4752-917d-c5e52d8a6df3" d="M464.08,68.37c-1.71,7.63.15,9.42,2.33,10.72C468,80,475,77.8,474.74,69.48S465.46,62.21,464.08,68.37Z"/>
        <path class="8347e2f2-de0b-4207-8cf0-3055f69cb0c3" d="M440.55,124.65a4.23,4.23,0,0,0-1.54-3.2,2.39,2.39,0,0,1,.92-1.61c1.17-.88-1.14-3.25-1.76-2.72-4.18,3.59-4.16,6-.55,8.84A1.69,1.69,0,0,0,440.55,124.65Z"/>
        <g>
          <polygon class="5b551ef1-dca9-4ee1-b842-78affe701599" points="460.28 114.66 460.28 129.68 447.21 137.23 447.21 122.21 460.28 114.66"/>
          <polygon class="d6c1f202-7601-49b4-a9fb-7888e8182335" points="434.15 114.66 434.15 129.68 447.21 137.23 447.21 122.21 434.15 114.66"/>
          <polygon class="7d5fd8df-595a-4a68-89e5-fc26d6356d79" points="460.28 114.66 447.21 107.11 434.15 114.66 447.21 122.21 460.28 114.66"/>
        </g>
        <path class="8347e2f2-de0b-4207-8cf0-3055f69cb0c3" d="M460.06,126.38c-1.29.95-1.65,4.7-3.61,5.47A12.21,12.21,0,0,0,453,133.9c0.69,1.53,5.5.74,6.55,0.19s3.37-4.57,3.37-4.57l1.33-3.44-3.42-.29Z"/>
        <path class="aa2203a5-0a7f-4f83-8fae-d5e0adc59abe" d="M482.61,93.12c1.19,3.61.4,5.47,0.12,8.19s-4.34,14.41-6.55,16.83-13.26,11.38-13.26,11.38,0.67-1.07-1-2.91a1.26,1.26,0,0,0-1.63-.41l11.79-13.79s4.51-16.51,5.88-19.78S482.29,92.16,482.61,93.12Z"/>
        <path class="8347e2f2-de0b-4207-8cf0-3055f69cb0c3" d="M460.06,126.38c-2.91,1.68-3.51.77-3.91,1.95s2.23,0.9,2.87.83S460.06,126.38,460.06,126.38Z"/>
        <path class="a3d89fa0-7161-4b95-832c-4889396915d1" d="M474.68,76.7c-1-1.86-3.55-.74-2.92-2.68s-0.93-2.41-1.88-1-0.66-1.36-1.36-2.4-3.12,1.84-5.46.4-2.46-4.82,0-7.25,8.55-2.24,10.54-.83C479.75,67.29,476.16,79.53,474.68,76.7Z"/>
      </g>
      <g>
        <g style="opacity: 0;" class="podium 54ce3db3-964e-452b-860f-47fc11c0e0b0">
          <path class="86d96c8a-248c-4311-a929-7ce0d5756b25" d="M270.24,475.7h94.83l2.68,11h73.32a44,44,0,0,0,22-5.9L542.49,435a13.2,13.2,0,0,0,0-22.87l-67-38.67L325.16,390.29Z"/>
        </g>
        <g style="opacity: 0;" class="podium">
          <path class=" 9b7cb68e-522d-41ba-9689-d79a80eacf5e" d="M233.88,461.63l14.39,8.3a47.38,47.38,0,0,0,22,5.78c7.14,0.18,14-1.16,19.09-4.09l23.2-13.41h0l30.31,17.5h0l13.9,8a22.59,22.59,0,0,0,22.59,0l91.94-53.08A17.43,17.43,0,0,0,480,415.55V371.11h0a11,11,0,0,0-2.18-6.88l-21.91-29.39L378.5,211.25l-86.29-49.77c-12.16-7-30.55-7.77-41.08-1.69L91.67,251.94c-5,2.9-7.34,6.84-7.08,10.93a10.08,10.08,0,0,0,.14,1.07,9.49,9.49,0,0,0-.14,2.34V367.4a9.58,9.58,0,0,0,0,1.13c0.21,3.17,2,6.43,5.26,9.37Z"/>
          <g>
            <path class="d8622c8f-1247-4c74-8827-bbd4c0c095a4" d="M455.87,365.51h0V263.25l-62.34,30.29L292.21,235.09c-12.16-7-30.55-7.77-41.08-1.69L147,293.57,84.6,263.25V364.37a9.6,9.6,0,0,0,0,1.13c0.29,4.47,3.68,9.12,10,12.78L248.26,466.9a47.38,47.38,0,0,0,22,5.78h0c7.14,0.18,14-1.16,19.09-4.09l159.46-92.15C453.82,373.53,456.13,369.59,455.87,365.51Z"/>
            <path class="eb411f82-d03c-4dc2-a9b9-f0a134daf02d" d="M455.87,263.25c-0.29-4.47-3.68-9.12-10-12.78L292.21,161.85c-12.16-7-30.55-7.77-41.08-1.69L91.67,252.32c-5,2.9-7.34,6.84-7.08,10.93,0.29,4.47,3.68,9.12,10,12.78l153.63,88.61c12.16,7,30.55,7.77,41.08,1.69l159.46-92.15C453.82,271.27,456.14,267.33,455.87,263.25Z"/>
            <path class="eb411f82-d03c-4dc2-a9b9-f0a134daf02d" d="M455.87,261.17c-0.29-4.47-3.68-9.12-10-12.78L292.21,159.77c-12.16-7-30.55-7.77-41.08-1.69L91.67,250.24c-5,2.9-7.34,6.84-7.08,10.93,0.29,4.47,3.68,9.12,10,12.78l153.63,88.61c12.16,7,30.55,7.77,41.08,1.69L448.79,272.1C453.82,269.19,456.14,265.25,455.87,261.17Z"/>
            <g>
              <path class="3d59b094-b7a9-4f4b-bce0-b05e4918df7d" d="M370.64,419.58l-58.11-51.24v86.84l44.21,25.52a22.59,22.59,0,0,0,22.59,0l91.94-53.08A17.43,17.43,0,0,0,480,412.52V368.08Z"/>
              <path class="eb411f82-d03c-4dc2-a9b9-f0a134daf02d" d="M354.79,425l-42.25-56.69,0.73-3L428.12,299,477.64,365a10.32,10.32,0,0,1-3.18,15.43L386,431.47A24,24,0,0,1,354.79,425Z"/>
              <path class="eb411f82-d03c-4dc2-a9b9-f0a134daf02d" d="M356,423.85L312.53,365.5l117.18-67.66,48.08,64.5a11,11,0,0,1-3.33,16.17l-89,51.4A22.59,22.59,0,0,1,356,423.85Z"/>
            </g>
            <g class="13c1a6f8-efce-486f-b101-468015f95c5c">
              <polygon class="48dc56bb-bbc2-4aec-8db0-8bb285eef659" points="342.84 472.67 342.84 409 312.54 368.34 312.54 455.18 342.84 472.67"/>
            </g>
            <path class="64ae15f4-2cbe-480d-bcfb-98bbf4f262f6" d="M372.89,408.15a4.27,4.27,0,0,1-3.43-1.72l-18.69-25.07a4.27,4.27,0,0,1,1.29-6.25l73.11-42.21a4.27,4.27,0,0,1,5.56,1.15l18.69,25.07a4.27,4.27,0,0,1-1.29,6.25L375,407.58A4.26,4.26,0,0,1,372.89,408.15Zm54.42-74.6a3,3,0,0,0-1.52.41l-73.11,42.21a3,3,0,0,0-.92,4.45l18.69,25.07a3,3,0,0,0,4,.82l73.11-42.21a3,3,0,0,0,.92-4.45l-18.69-25.07A3,3,0,0,0,427.3,333.55Z"/>
          </g>
        </g>
        <g style="opacity: 0;" class="man">
          <path class="8347e2f2-de0b-4207-8cf0-3055f69cb0c3" d="M433,352.42c-4-.67-6.25-0.92-7.22-2.53-0.71-1.18,1.29-.1,1.92-0.21,0.44-.08,0-1.85-1.33-2.5s-2.74-1.58-1.83-2a4.37,4.37,0,0,1,3.51.44c0.93,0.61,2.23,1.33,2.63,2.72a2.25,2.25,0,0,0,2.13,1.39Z"/>
          <path class="8347e2f2-de0b-4207-8cf0-3055f69cb0c3" d="M418.34,373.41c-3.67,1.14-2.19,2.07-5.78,1.2s-3.59-.87-4.33-1.68c-1-1.16-1-2.77,1.4-2.49s3.63,0.79,3.79.48-0.64-1.45.06-1.56,0.76,0.52,1.28,1.22,3.18-.49,3.18-0.49Z"/>
          <path class="dbebb544-208c-4e25-9cb3-f318d32e5ecc" d="M443.93,457.17c0,1.59.45,2.36,0,3.16a3.36,3.36,0,0,1-3.45,1,4.45,4.45,0,0,1-2.37-1.55c-0.36-.65-0.87-0.57-1.83-0.76s-5-3-5.5-3.91c-0.8-1.62,1.89-2.45,4.86-1.52a73.5,73.5,0,0,1,7.47,3.09Z"/>
          <path class="7aa48410-c89a-4cd1-b2d6-72b4210939ba" d="M466.51,452.49c0.1,2.72.21,3.14-.6,4s-3.67-.17-3.91-0.85-0.6,0-1.61-.6-5.15-2.44-5.48-3.62,1.44-1.76,3.47-1.21a28.84,28.84,0,0,0,4.75.65Z"/>
          <path class="a321024e-1bca-4142-9336-f5393ccace93" d="M471.15,373.52c-1.14,22.24-3,32.66-2.69,40.38s-0.64,31.15-1.17,36.86-6.27,2.94-6.38.36-4.55-32.4-5.11-39.25-2.22-39.07-2.22-39.07Z"/>
          <path class="53a9c7e2-37b3-440e-8849-c5d90eff3f13" d="M463.26,389.65c-10.79,25-13,23.75-15.69,34.56s-2.48,26.82-2.74,31.37-5.79,4-6.34.36-3.12-33.69-2.32-40.83S449.28,373,449.28,373l11.34,5.71Z"/>
          <path class="8347e2f2-de0b-4207-8cf0-3055f69cb0c3" d="M457.84,330.47c-1.2-1.7-1.79-4.32-1.31-5.72s1.74-8.65-3.91-10.38-9.73,3.25-8.47,8.68,2,8.44,3.45,8.55,2-.23,2.35.91,6.53-.37,6.53-0.37l1.43-.56Z"/>
          <path class="d241d6f9-1b45-4fb0-aad3-8d5767d79f2e" d="M432.54,348.65c20.48-4.72,27.14-17.52,27.14-17.52l6.15,8.63s-10.4,14.27-31.7,13.56C429.35,353.17,430.93,349,432.54,348.65Z"/>
          <path class="6e222c4d-fa37-4029-83b8-a9a0ed63dd63" d="M459.18,330.76c-11.73,7.61-12.59,6.94-15.45,17.37-2.14,7.82,4.32,27.51.05,38.18-1.51,3.76,1.41,5.64,4.63,4.77,4.14-1.11,2.66,3.57,9.53,5.75,6.63,2.1,12.48-4.37,14.24-11.18,0.91-3.51.11-31.58-.35-33.55C468.9,339.63,463,328.28,459.18,330.76Z"/>
          <path class="a3d89fa0-7161-4b95-832c-4889396915d1" d="M457.84,330.47a11.8,11.8,0,0,1,2.34,2.27c0.26,0.42-5.91,3.09-10,3.89l-0.23-4.12S458.14,331.74,457.84,330.47Z"/>
          <path class="a3d89fa0-7161-4b95-832c-4889396915d1" d="M445.65,311.86c-5.72.73-4.61,6.75-3,9.16s1.62,1.57,3.69,2.72c0,0,.39-0.21,1.13,3.25l1.1,0.23c0.36,0.08-.4-1,0.09-1.49s2.26,0.53,1.7,2.14-0.6,1.15-.6,1.15,1.46,1.49,2.25,1.16,4.57-.78,4.69-2.19,1.61-3.42,1.11-7.15-3.18-7.11-6.87-7.53S447,311.69,445.65,311.86Z"/>
          <path class="b9662a22-6db2-4617-b056-951a9e567d4e" d="M416.52,370.24C437,359.43,438,359.05,443.91,346.4c6.42-13.76,8.82,1.82,8.54,4.59-1.8,17.6-11.47,18.35-32.24,23.12C415.54,375.18,415.06,371,416.52,370.24Z"/>
        </g>
        <g style="opacity: 0;" class="tunnel">
          <path class="a3d80001-3742-4848-aee9-95934bce6911" d="M389.89,263.25h0c-0.19-2.88-2.37-5.88-6.47-8.24l-99-57.11c-7.84-4.52-19.69-5-26.48-1.09L155.16,256.2c-2.91,1.68-4.41,3.9-4.56,6.24a6.5,6.5,0,0,0,.29,2.36v0q0.08,0.27.19,0.53l0,0.09q0.1,0.24.22,0.48L151.4,266c0.08,0.16.17,0.32,0.26,0.47l0.06,0.1q0.16,0.26.33,0.51l0,0.05a11.4,11.4,0,0,0,.9,1.12l0.1,0.1,0.41,0.42,0.18,0.17,0.38,0.35,0.22,0.19,0.39,0.32L154.9,270l0.42,0.31,0.26,0.18,0.49,0.33L156.3,271l0.76,0.46h0l99,57.11a30.88,30.88,0,0,0,15.42,3.73,29.9,29.9,0,0,0,3.31-.23l0.41-.06a20.49,20.49,0,0,0,7.33-2.36L347.69,292l37.64-21.75h0l0.58-.36,0.2-.14,0.35-.24,0.23-.18,0.28-.22,0.24-.21,0.23-.2,0.24-.23,0.19-.19,0.23-.25,0.16-.18,0.22-.27,0.13-.17,0.2-.29,0.1-.15,0.18-.32,0.08-.14,0.16-.34,0.05-.12q0.08-.18.14-0.36l0-.1q0.06-.19.12-0.38l0-.09c0-.13.06-0.27,0.09-0.41v-0.07c0-.14,0-0.29.06-0.43v0c0-.15,0-0.3,0-0.45s0,0,0,0S389.9,263.4,389.89,263.25Z"/>
          <path class="82a55d1d-9354-44e7-ab44-41ca590e31d9" d="M150.89,264.83q0.08,0.27.19,0.53l0,0.09q0.1,0.24.22,0.48l0.05,0.11c0.08,0.16.17,0.32,0.26,0.47l0.06,0.1q0.16,0.26.33,0.51l0,0.05q0.2,0.28.43,0.57a11.29,11.29,0,0,1,2.65-2.07l102.78-59.39c6.78-3.92,18.64-3.43,26.48,1.09l99,57.11a16.08,16.08,0,0,1,4.55,3.75l0.15-.16,0.16-.18,0.22-.27,0.13-.17,0.2-.29,0.1-.15,0.18-.32,0.08-.14,0.16-.34,0.05-.12q0.08-.18.14-0.36l0-.1q0.06-.19.12-0.38l0-.09c0-.13.06-0.27,0.09-0.41v-0.07c0-.14,0-0.29.06-0.43v0c0-.15,0-0.3,0-0.45s0,0,0,0,0-.32,0-0.48h0c-0.19-2.88-2.37-5.88-6.47-8.24l-99-57.11c-7.84-4.52-19.69-5-26.48-1.09L155.15,256.2c-2.91,1.68-4.41,3.9-4.56,6.24a6.5,6.5,0,0,0,.29,2.36v0Z"/>
          <g class="cubes">
            <g class="cube-1 cube" style="opacity: 0;">
              <polygon class="d6c1f202-7601-49b4-a9fb-7888e8182335" points="197.29 196.73 197.29 207.29 206.49 212.6 206.49 202.04 197.29 196.73"/>
              <polygon class="5b551ef1-dca9-4ee1-b842-78affe701599" points="215.68 196.73 215.68 207.29 206.49 212.6 206.49 202.04 215.68 196.73"/>
              <polygon class="7d5fd8df-595a-4a68-89e5-fc26d6356d79" points="197.29 196.73 206.49 191.42 215.68 196.73 206.49 202.04 197.29 196.73"/>
            </g>
            <g class="cube-2 cube" style="opacity: 0;">
              <polygon class="d6c1f202-7601-49b4-a9fb-7888e8182335" points="337.31 115.49 337.31 126.05 346.5 131.36 346.5 120.8 337.31 115.49"/>
              <polygon class="5b551ef1-dca9-4ee1-b842-78affe701599" points="355.7 115.49 355.7 126.05 346.5 131.36 346.5 120.8 355.7 115.49"/>
              <polygon class="7d5fd8df-595a-4a68-89e5-fc26d6356d79" points="337.31 115.49 346.5 110.18 355.7 115.49 346.5 120.8 337.31 115.49"/>
            </g>
            <g class="cube-3 cube" style="opacity: 0;">
              <polygon class="d6c1f202-7601-49b4-a9fb-7888e8182335" points="282.27 5.31 282.27 15.87 291.47 21.18 291.47 10.62 282.27 5.31"/>
              <polygon class="5b551ef1-dca9-4ee1-b842-78affe701599" points="300.67 5.31 300.67 15.87 291.47 21.18 291.47 10.62 300.67 5.31"/>
              <polygon class="7d5fd8df-595a-4a68-89e5-fc26d6356d79" points="282.27 5.31 291.47 0 300.67 5.31 291.47 10.62 282.27 5.31"/>
            </g>
            <g class="cube-4 cube" style="opacity: 0;">
              <polygon class="d6c1f202-7601-49b4-a9fb-7888e8182335" points="277.47 242.55 277.47 253.11 286.67 258.42 286.67 247.86 277.47 242.55"/>
              <polygon class="5b551ef1-dca9-4ee1-b842-78affe701599" points="295.87 242.55 295.87 253.11 286.67 258.42 286.67 247.86 295.87 242.55"/>
              <polygon class="7d5fd8df-595a-4a68-89e5-fc26d6356d79" points="277.47 242.55 286.67 237.24 295.87 242.55 286.67 247.86 277.47 242.55"/>
            </g>
            <g class="cube-5 cube" style="opacity: 0;">
              <polygon class="d6c1f202-7601-49b4-a9fb-7888e8182335" points="232.25 87.61 232.25 102.91 245.57 110.59 245.57 95.3 232.25 87.61"/>
              <polygon class="5b551ef1-dca9-4ee1-b842-78affe701599" points="258.89 87.61 258.89 102.91 245.57 110.59 245.57 95.3 258.89 87.61"/>
              <polygon class="7d5fd8df-595a-4a68-89e5-fc26d6356d79" points="232.25 87.61 245.57 79.92 258.89 87.61 245.57 95.3 232.25 87.61"/>
            </g>
          </g>
          <g class="58974521-126f-4de2-86c4-b41f21679475">
            <path class="59dab108-7943-4f96-83d8-e1f7ce121a8a" d="M389.89,263.25h0l0-242.95a3.54,3.54,0,0,0-3.54-3.54H154.13a3.54,3.54,0,0,0-3.54,3.54V262.44h0a6.5,6.5,0,0,0,.29,2.36v0q0.08,0.27.19,0.53l0,0.09q0.1,0.24.22,0.48L151.4,266c0.08,0.16.17,0.32,0.26,0.47l0.06,0.1q0.16,0.26.33,0.51l0,0.05a11.4,11.4,0,0,0,.9,1.12l0.1,0.1,0.41,0.42,0.18,0.17,0.38,0.35,0.22,0.19,0.39,0.32L154.9,270l0.42,0.31,0.26,0.18,0.49,0.33L156.3,271l0.76,0.46h0l99,57.11a30.88,30.88,0,0,0,15.42,3.73,29.9,29.9,0,0,0,3.31-.23l0.41-.06a20.49,20.49,0,0,0,7.33-2.36L347.69,292l37.64-21.75h0l0.58-.36,0.2-.14,0.35-.24,0.23-.18,0.28-.22,0.24-.21,0.23-.2,0.24-.23,0.19-.19,0.23-.25,0.16-.18,0.22-.27,0.13-.17,0.2-.29,0.1-.15,0.18-.32,0.08-.14,0.16-.34,0.05-.12q0.08-.18.14-0.36l0-.1q0.06-.19.12-0.38l0-.09c0-.13.06-0.27,0.09-0.41v-0.07c0-.14,0-0.29.06-0.43v0c0-.15,0-0.3,0-0.45s0,0,0,0S389.9,263.4,389.89,263.25Z"/>
          </g>
        </g>
        <g style="opacity: 0;" class="screen">
          <g class="403d8b57-f4be-45fc-9563-7b69b0e56ff1">
            <polygon class="6da0bf17-8789-4a19-b8e1-345a8eb407d5" points="424.5 319.25 338.53 369.23 338.53 333.95 424.5 283.95 424.5 319.25"/>
          </g>
          <path class="40f0deaa-fe2f-4bc5-a750-cebcee04cf4b" d="M327.81,268.33v90.23a3.49,3.49,0,0,0,5.24,3l94.06-54.31A11.69,11.69,0,0,0,433,297.16V206.93a3.49,3.49,0,0,0-5.24-3l-94.06,54.31A11.69,11.69,0,0,0,327.81,268.33Z"/>
          <g>
            <polygon class="eb411f82-d03c-4dc2-a9b9-f0a134daf02d" points="348.08 301.27 372.87 286.96 372.87 290.68 348.08 305 348.08 301.27"/>
            <polygon class="5b551ef1-dca9-4ee1-b842-78affe701599" points="348.08 310.07 372.87 295.76 372.87 299.48 348.08 313.79 348.08 310.07"/>
            <polygon class="5b551ef1-dca9-4ee1-b842-78affe701599" points="348.08 318.87 372.87 304.55 372.87 308.28 348.08 322.59 348.08 318.87"/>
          </g>
          <g>
            <polygon class="eb411f82-d03c-4dc2-a9b9-f0a134daf02d" points="348.08 275.27 372.87 260.96 372.87 264.68 348.08 279 348.08 275.27"/>
            <polygon class="eb411f82-d03c-4dc2-a9b9-f0a134daf02d" points="348.08 284.07 372.87 269.76 372.87 273.48 348.08 287.79 348.08 284.07"/>
            <polygon class="eb411f82-d03c-4dc2-a9b9-f0a134daf02d" points="348.08 292.87 372.87 278.55 372.87 282.28 348.08 296.59 348.08 292.87"/>
          </g>
          <g>
            <path class="5b551ef1-dca9-4ee1-b842-78affe701599" d="M389.83,302.84c0,9.79,6.87,13.75,15.35,8.86s15.35-16.79,15.35-26.58-6.87-13.75-15.35-8.86S389.83,293,389.83,302.84Zm3.59-2.07c0-7.49,5.26-16.61,11.75-20.35s11.75-.71,11.75,6.79-5.26,16.61-11.75,20.35S393.42,308.26,393.42,300.76Z"/>
            <path class="eb411f82-d03c-4dc2-a9b9-f0a134daf02d" d="M395.47,291.92l-3-.63c2.76-6.26,7.41-12,12.67-15v4.15C401.14,282.73,397.59,287.13,395.47,291.92Z"/>
          </g>
          <g>
            <path class="5b551ef1-dca9-4ee1-b842-78affe701599" d="M389.83,262c0,9.79,6.87,13.75,15.35,8.86s15.35-16.79,15.35-26.58-6.87-13.75-15.35-8.86S389.83,252.22,389.83,262Zm3.59-2.07c0-7.49,5.26-16.61,11.75-20.35s11.75-.71,11.75,6.79-5.26,16.61-11.75,20.36S393.42,267.43,393.42,259.93Z"/>
            <path class="eb411f82-d03c-4dc2-a9b9-f0a134daf02d" d="M393.42,259.93c0,3.14.93,5.48,2.48,6.88L393.07,271c-2-1.83-3.24-4.89-3.24-9,0-9.79,6.87-21.69,15.35-26.58v4.15C398.68,243.33,393.42,252.44,393.42,259.93Z"/>
          </g>
          <path class="eb411f82-d03c-4dc2-a9b9-f0a134daf02d" d="M338.53,370.46a1.23,1.23,0,0,1-.62-2.29l86-50a1.23,1.23,0,0,1,1.24,2.13l-86,50A1.22,1.22,0,0,1,338.53,370.46Z"/>
        </g>
      </g>
    </g>
  </g>
</svg>
