<svg id="2475a409-f9bf-4a89-a80e-220fb6fe8d70"  class="question-5-svg svg-graphic" data-name="Website_analytics" xmlns="http://www.w3.org/2000/svg" xmlns:xlink="http://www.w3.org/1999/xlink" viewBox="100 50 400 463.68" >
  <defs>
    <style>
      .\36 42e1f60-bd01-4be8-a5f6-fd6a7b72f97d {
        opacity: 0.7;
      }

      .\38 cb9412a-63b2-4a43-aa3d-bb040ff9ca30 {
        fill: #fff;
      }

      .ff21a871-685d-4ca6-a0c9-0909d190ba34 {
        fill: #283e40;
      }

      .\37 13adcc0-a016-406b-8fbc-057aa3cdbe3b {
        fill: #d6225e;
      }

      .\35 3941685-b0ba-4dde-b9f0-66e33dd92f5d {
        fill: #c0c2c4;
      }

      .\32 3005c31-daa7-4781-9025-8a53069a28a6 {
        fill: #82b6a1;
      }

      .\35 6d1eeff-9f99-42b2-903d-3b208660def0 {
        fill: #ef84a6;
      }

      .ff915594-da78-419a-a0be-672ee0d14a04 {
        fill: #ec597d;
      }

      .\32 a688cc6-ce82-4546-9857-6edf83af2787 {
        fill: #625ea9;
      }

      .\38 d267bb4-cda9-4262-b7a5-4dd34811fa5c {
        fill: #2e3192;
      }

      .\34 6c38570-3603-4a6a-9837-eb51c38c2a43 {
        fill: url(#9e1092a9-bf3e-44ff-ad5a-810b38aca861);
      }

      .\31 d414c8e-dcdc-4c64-a0f6-35a6f5df9836 {
        fill: url(#d893069d-1463-4fa7-9ea3-0fc3ae277a06);
      }

      .a9a55757-123b-4647-9b4e-b0260faaf91c {
        fill: url(#dfa0c1d0-7b18-47a8-ab7d-e0723ef32f4a);
      }

      .\37 d6df59d-6da4-424d-88fe-5404f4a4cba4 {
        fill: #514ea1;
      }

      .\37 32085e6-2c49-4578-8c34-be51fd2b08b1 {
        fill: url(#78f2d8a3-abf7-4070-988a-a9b3a85d1da4);
      }

      .e8b205ec-118e-48f2-bfc8-c434a695fc41 {
        fill: url(#1d546a49-be07-4855-a33d-795da545cd45);
      }

      .b4533a8e-82f9-4191-b421-562f6fa43a17 {
        fill: url(#9c18408a-2278-4a59-869e-c9ef3ff3e023);
      }

      .\37 13de7d4-cafe-4061-a90b-e48868a0d0de {
        fill: url(#18cccf0e-ea52-4af1-bf01-d38fff517cac);
      }

      .b77cc7e6-3398-4854-be41-5cd3b0fed101 {
        fill: url(#0779144a-6977-43ec-9e86-a886f1344b45);
      }

      .fba5b298-8cb6-46d6-a321-78cda5b6ecc4 {
        fill: url(#585318c8-d09f-4ecf-b8a1-c7b8a449b58a);
      }

      .\35 4efb918-30e0-47f7-9c46-b2421359c393 {
        fill: url(#41e5dc75-76bd-4d50-b999-f4a5d6bb644c);
      }

      .\33 efbac57-d24c-4f31-8b13-833e4255ff6c {
        fill: #f0587c;
      }

      .eeaa9cf0-8d85-4cfc-aece-9c193d2e6fb1 {
        fill: url(#211c59bb-df27-4b14-afbd-80ffb91554f0);
      }

      .\33 1f8721b-416f-4252-b176-6c5ba96b0fd7 {
        fill: url(#37b79cbf-b03d-44ea-8ff2-c05dd0da73ad);
      }

      .\34 3e97ed0-49b9-41b5-9525-95dc0e30c6bd {
        fill: url(#318047b2-20aa-4626-8afb-a86d8c191852);
      }

      .\35 602b348-501d-4b89-871b-f12879786e1e {
        fill: url(#f2f22959-0fa3-4002-a597-77991bb05f04);
      }

      .ebce8d6d-7980-4261-ba41-ceedbb16baf2 {
        fill: url(#56595931-8516-48ea-a89c-04d5f278b5c1);
      }

      .bc2e731c-0a74-4f53-8edb-8e5dada093d8 {
        fill: url(#b8ffdb95-dfd1-490b-a4d7-7dbbef6e213b);
      }

      .c6690aa7-ba01-449c-8638-21ce42c11a9c {
        fill: url(#8eca4b7e-8af8-4d33-8b30-e66ae5733b66);
      }

      .e55ee59e-c31d-457b-b28d-4ec0f4492b4c {
        fill: url(#73f2f004-8122-4025-a694-68f2b83e42f6);
      }

      .\35 b2d3f59-fdf6-43f4-8f66-1b47b9377664 {
        fill: url(#dd8484e0-d4b6-4706-83cf-768bba737bd1);
      }

      .b9a811fd-47cd-403e-9be8-820892b0eddb {
        fill: url(#044cf158-0628-40d0-9d18-9258acd265c0);
      }

      .\34 e66daf7-b799-414f-88e5-f507a3f4fed4 {
        fill: url(#51e987a7-8e9c-4586-b083-2e7479ed4df6);
      }

      .c85b49e9-ffca-46cc-b0aa-d681a1d0559c {
        fill: url(#decb7cce-9596-420b-8b11-299d1d154b6f);
      }

      .fbd435fd-571b-4e44-a040-a8dbf128a549 {
        fill: url(#d982c132-2818-41c7-991e-84de7a9e6e9d);
      }

      .\36 56cecdd-223e-4055-945c-0d49064c4ea9 {
        fill: url(#2203f92d-4f17-4573-b718-e7a4dcdeafae);
      }

      .d806f29e-a4f0-487c-8bba-518137849ecb {
        fill: url(#5d8bb849-49f6-4ead-bf6c-c0f2ea0a9ad0);
      }

      .\38 d9ef7a3-85df-4bd0-a608-89acd71012ab {
        fill: url(#81ede07b-f3d7-4b53-9e00-3001a1d09a68);
      }

      .d834cc3b-fcf1-46b6-baa4-085070277e4f {
        fill: url(#66e770d2-a91d-41e9-a632-685e50ec6faa);
      }

      .\35 12ee995-4a60-4bfc-a628-6a6c645d47f9 {
        fill: url(#f67df20a-9562-40cc-b6b6-cdccee8e45cc);
      }

      .d7406470-49b0-4b1b-b223-9a6ffb4ce0ca {
        fill: url(#0dbe36d7-8f96-4703-a70e-0e47594f45de);
      }

      .f3bf180f-57a5-473e-9153-6fbc57c5ddc8 {
        fill: url(#9e29c233-21f8-48b3-90d7-bc20fb6083ba);
      }

      .\35 3af280a-4565-4789-abc0-834ffeb1066e {
        fill: url(#39fe97f5-568b-425b-85f7-132a1dedf0fe);
      }

      .\38 31c9844-6b47-47ed-8fca-e5d103e52082 {
        fill: url(#4663a77b-9e2e-44c4-9e9e-e5f6c81fbda6);
      }

      .\33 0a72619-9c0e-49d0-9898-129cd76df387 {
        fill: #b3ddcf;
      }

      .e5cc4889-1a5b-45cc-9eaf-ba1e926e679a {
        fill: #86b6a2;
      }

      .ada755e1-9f09-42ee-8dd0-8588878e6d07 {
        fill: #d0d8eb;
      }

      .\37 89ff925-4eec-44ce-922a-1d326a3081e1 {
        fill: #eaeff8;
      }

      .\36 8f0d802-649f-4c9f-86d2-ca26416edaae {
        fill: url(#e30c5266-90aa-4100-9c75-443654447508);
      }

      .\34 a7d2537-7b1c-4a14-99ae-e7e42fb797bc {
        fill: url(#452b7ac4-8b32-4d7c-9604-6c7435e6fa13);
      }

      .\38 7196c4a-e47c-4f4f-9760-6ffe2e522324 {
        fill: url(#6344f5ed-a746-41f7-8419-554f5405df9f);
      }

      .d23538d3-56ba-4536-a47e-3789bd435839 {
        fill: url(#69ae9510-c750-41f2-9405-ba6a63c1671c);
      }

      .\31 898f5c4-7dfc-4037-82f8-12ae7cec20be {
        fill: url(#77d68d7e-9d3d-4b10-b6ad-c257f862894a);
      }

      .bdefb190-1ab0-4e36-bf0a-c7043f0fc2bb {
        fill: url(#248408c8-8ee7-4a45-bba8-28e8040b632a);
      }

      .d90d0877-2086-4781-a25f-6204e58b2282 {
        fill: url(#d756fd57-1102-4790-b37e-513f1c21dbfb);
      }

      .\39 a1720f0-57e7-4ec2-a54c-c26ed05c9187 {
        fill: url(#c3cd6935-1576-45c1-ab03-56bdb9e91ac1);
      }

      .\38 d59653d-67b4-4f46-b4a7-637062933102 {
        fill: url(#f1d9eba4-fbb3-4a62-b483-8ddb717f04ae);
      }

      .\39 e284c0d-70b3-4fe9-b8ab-951794903724 {
        fill: url(#9f2e44c2-9d15-4b41-9be8-87de0fd51ff7);
      }

      .\31 53a6a2c-0539-4aea-ac00-370eaa735ac9 {
        fill: url(#15902275-fa43-495f-b1fb-432865430466);
      }

      .\30 7db88c9-5c72-48bf-9e80-bf0301e79223 {
        fill: url(#b7bbe04f-e780-413b-8bf2-31b599ee7d4e);
      }

      .\32 0def411-8263-44fc-9f5f-a690d00328d1 {
        fill: url(#a7c53c5e-8611-4968-a262-233d19bbd385);
      }
    </style>
    <linearGradient id="9e1092a9-bf3e-44ff-ad5a-810b38aca861" x1="-473.95" y1="364.43" x2="-464.62" y2="364.43" gradientTransform="matrix(-1, 0, 0, 1, -275.12, 0)" gradientUnits="userSpaceOnUse">
      <stop offset="0" stop-color="#f8c1d9"/>
      <stop offset="1" stop-color="#ffdea9"/>
    </linearGradient>
    <linearGradient id="d893069d-1463-4fa7-9ea3-0fc3ae277a06" x1="184.6" y1="372.01" x2="193.61" y2="363.65" gradientUnits="userSpaceOnUse">
      <stop offset="0" stop-color="#f6abcc"/>
      <stop offset="1" stop-color="#ffdea9"/>
    </linearGradient>
    <linearGradient id="dfa0c1d0-7b18-47a8-ab7d-e0723ef32f4a" x1="529.66" y1="388.78" x2="514.46" y2="388.78" gradientUnits="userSpaceOnUse">
      <stop offset="0" stop-color="#ffdea9"/>
      <stop offset="1" stop-color="#f8c1d9"/>
    </linearGradient>
    <linearGradient id="78f2d8a3-abf7-4070-988a-a9b3a85d1da4" x1="153.64" y1="388.4" x2="190.96" y2="388.4" gradientUnits="userSpaceOnUse">
      <stop offset="0" stop-color="#2e3192"/>
      <stop offset="0.36" stop-color="#804189"/>
      <stop offset="0.66" stop-color="#bc4e82"/>
      <stop offset="0.88" stop-color="#e2557e"/>
      <stop offset="1" stop-color="#f0587c"/>
    </linearGradient>
    <linearGradient id="1d546a49-be07-4855-a33d-795da545cd45" x1="215.13" y1="389.27" x2="175.74" y2="392.3" gradientUnits="userSpaceOnUse">
      <stop offset="0" stop-color="#e7bac1"/>
      <stop offset="1" stop-color="#ffdea9"/>
    </linearGradient>
    <linearGradient id="9c18408a-2278-4a59-869e-c9ef3ff3e023" x1="113.96" y1="353.19" x2="111.85" y2="356.83" gradientTransform="translate(101.94)" gradientUnits="userSpaceOnUse">
      <stop offset="0" stop-color="#283e40"/>
      <stop offset="0.1" stop-color="#395452"/>
      <stop offset="0.36" stop-color="#61897c"/>
      <stop offset="0.55" stop-color="#7aaa97"/>
      <stop offset="0.66" stop-color="#83b6a1"/>
      <stop offset="0.75" stop-color="#81b39f"/>
      <stop offset="0.81" stop-color="#7aaa97"/>
      <stop offset="0.86" stop-color="#6e9a8b"/>
      <stop offset="0.91" stop-color="#5d8479"/>
      <stop offset="0.95" stop-color="#486862"/>
      <stop offset="0.99" stop-color="#2e4646"/>
      <stop offset="1" stop-color="#283e40"/>
    </linearGradient>
    <linearGradient id="18cccf0e-ea52-4af1-bf01-d38fff517cac" x1="112.15" y1="352.83" x2="116.05" y2="346.08" gradientTransform="translate(101.94)" gradientUnits="userSpaceOnUse">
      <stop offset="0" stop-color="#283e40"/>
      <stop offset="0.51" stop-color="#83b6a1"/>
      <stop offset="0.63" stop-color="#81b39f"/>
      <stop offset="0.72" stop-color="#7aaa97"/>
      <stop offset="0.79" stop-color="#6e9a8b"/>
      <stop offset="0.86" stop-color="#5d8479"/>
      <stop offset="0.93" stop-color="#486862"/>
      <stop offset="0.99" stop-color="#2e4646"/>
      <stop offset="1" stop-color="#283e40"/>
    </linearGradient>
    <linearGradient id="0779144a-6977-43ec-9e86-a886f1344b45" x1="110.23" y1="351.45" x2="115.74" y2="341.91" gradientTransform="translate(101.94)" gradientUnits="userSpaceOnUse">
      <stop offset="0" stop-color="#283e40"/>
      <stop offset="0.51" stop-color="#83b6a1"/>
      <stop offset="0.63" stop-color="#81b39f"/>
      <stop offset="0.72" stop-color="#7aaa97"/>
      <stop offset="0.79" stop-color="#6e9a8b"/>
      <stop offset="0.86" stop-color="#5d8479"/>
      <stop offset="0.93" stop-color="#486862"/>
      <stop offset="0.99" stop-color="#2e4646"/>
      <stop offset="1" stop-color="#283e40"/>
    </linearGradient>
    <linearGradient id="585318c8-d09f-4ecf-b8a1-c7b8a449b58a" x1="131.71" y1="355.75" x2="141.31" y2="355.75" gradientTransform="translate(101.94)" xlink:href="#9e1092a9-bf3e-44ff-ad5a-810b38aca861"/>
    <linearGradient id="41e5dc75-76bd-4d50-b999-f4a5d6bb644c" x1="68.75" y1="343.34" x2="75.6" y2="343.34" gradientTransform="matrix(1, -0.05, 0.05, 1, 145.27, 9.32)" xlink:href="#9e1092a9-bf3e-44ff-ad5a-810b38aca861"/>
    <linearGradient id="211c59bb-df27-4b14-afbd-80ffb91554f0" x1="133.59" y1="367.27" x2="152.2" y2="367.27" gradientTransform="translate(101.94)" xlink:href="#dfa0c1d0-7b18-47a8-ab7d-e0723ef32f4a"/>
    <linearGradient id="37b79cbf-b03d-44ea-8ff2-c05dd0da73ad" x1="97.92" y1="365.86" x2="134.51" y2="365.86" gradientTransform="translate(101.94)" xlink:href="#dfa0c1d0-7b18-47a8-ab7d-e0723ef32f4a"/>
    <linearGradient id="318047b2-20aa-4626-8afb-a86d8c191852" x1="280.16" y1="331.92" x2="270.77" y2="332.64" gradientTransform="matrix(1, 0, 0, 1, 0, 0)" xlink:href="#9e1092a9-bf3e-44ff-ad5a-810b38aca861"/>
    <linearGradient id="f2f22959-0fa3-4002-a597-77991bb05f04" x1="275.5" y1="400.89" x2="286.35" y2="400.89" gradientTransform="matrix(1, 0, 0, 1, 0, 0)" xlink:href="#9e1092a9-bf3e-44ff-ad5a-810b38aca861"/>
    <linearGradient id="56595931-8516-48ea-a89c-04d5f278b5c1" x1="288.37" y1="404.25" x2="297.38" y2="404.25" gradientTransform="matrix(1, 0, 0, 1, 0, 0)" xlink:href="#9e1092a9-bf3e-44ff-ad5a-810b38aca861"/>
    <linearGradient id="b8ffdb95-dfd1-490b-a4d7-7dbbef6e213b" x1="292.08" y1="331.69" x2="302.18" y2="331.69" gradientTransform="matrix(1, 0, 0, 1, 0, 0)" xlink:href="#9e1092a9-bf3e-44ff-ad5a-810b38aca861"/>
    <linearGradient id="8eca4b7e-8af8-4d33-8b30-e66ae5733b66" x1="285.56" y1="314.73" x2="292.28" y2="323.51" xlink:href="#d893069d-1463-4fa7-9ea3-0fc3ae277a06"/>
    <linearGradient id="73f2f004-8122-4025-a694-68f2b83e42f6" x1="277.8" y1="312.62" x2="291.22" y2="312.62" gradientTransform="matrix(1, 0, 0, 1, 0, 0)" xlink:href="#9e1092a9-bf3e-44ff-ad5a-810b38aca861"/>
    <linearGradient id="dd8484e0-d4b6-4706-83cf-768bba737bd1" x1="292.19" y1="348.03" x2="302.19" y2="348.03" gradientTransform="matrix(1, 0, 0, 1, 0, 0)" xlink:href="#9e1092a9-bf3e-44ff-ad5a-810b38aca861"/>
    <linearGradient id="044cf158-0628-40d0-9d18-9258acd265c0" x1="263.74" y1="321.58" x2="263.95" y2="321.95" gradientUnits="userSpaceOnUse">
      <stop offset="0" stop-color="#f0587c"/>
      <stop offset="1" stop-color="#f384a5"/>
    </linearGradient>
    <linearGradient id="51e987a7-8e9c-4586-b083-2e7479ed4df6" x1="272.24" y1="326.43" x2="273.45" y2="328.54" gradientUnits="userSpaceOnUse">
      <stop offset="0" stop-color="#f384a5"/>
      <stop offset="1" stop-color="#d81d5b"/>
    </linearGradient>
    <linearGradient id="decb7cce-9596-420b-8b11-299d1d154b6f" x1="268.77" y1="339.96" x2="259.67" y2="340.66" gradientTransform="matrix(1, 0, 0, 1, 0, 0)" xlink:href="#9e1092a9-bf3e-44ff-ad5a-810b38aca861"/>
    <linearGradient id="d982c132-2818-41c7-991e-84de7a9e6e9d" x1="437.09" y1="266.55" x2="400.55" y2="202.93" xlink:href="#d893069d-1463-4fa7-9ea3-0fc3ae277a06"/>
    <linearGradient id="2203f92d-4f17-4573-b718-e7a4dcdeafae" x1="440.68" y1="254.21" x2="426.18" y2="238.88" gradientTransform="matrix(1, 0, 0, 1, 0, 0)" xlink:href="#9e1092a9-bf3e-44ff-ad5a-810b38aca861"/>
    <linearGradient id="5d8bb849-49f6-4ead-bf6c-c0f2ea0a9ad0" x1="371.41" y1="269.75" x2="356.21" y2="269.75" gradientTransform="matrix(-1, 0, 0, 1, 465.75, 0)" xlink:href="#dfa0c1d0-7b18-47a8-ab7d-e0723ef32f4a"/>
    <linearGradient id="81ede07b-f3d7-4b53-9e00-3001a1d09a68" x1="1462.6" y1="280.08" x2="1472.2" y2="280.08" gradientTransform="matrix(-1, 0, 0, 1, 1937.51, 0)" xlink:href="#9e1092a9-bf3e-44ff-ad5a-810b38aca861"/>
    <linearGradient id="66e770d2-a91d-41e9-a632-685e50ec6faa" x1="1472.35" y1="282.41" x2="1481.59" y2="282.41" gradientTransform="matrix(-1, 0, 0, 1, 1937.51, 0)" xlink:href="#d893069d-1463-4fa7-9ea3-0fc3ae277a06"/>
    <linearGradient id="f67df20a-9562-40cc-b6b6-cdccee8e45cc" x1="346.01" y1="217.78" x2="346.01" y2="224.19" gradientTransform="matrix(-1, 0, 0, 1, 813.47, 0)" xlink:href="#d893069d-1463-4fa7-9ea3-0fc3ae277a06"/>
    <linearGradient id="0dbe36d7-8f96-4703-a70e-0e47594f45de" x1="1529.61" y1="221.92" x2="1591.92" y2="220.98" gradientTransform="matrix(-1, 0, 0, 1, 2017.51, 0)" xlink:href="#d893069d-1463-4fa7-9ea3-0fc3ae277a06"/>
    <linearGradient id="9e29c233-21f8-48b3-90d7-bc20fb6083ba" x1="327.84" y1="244.04" x2="348.63" y2="244.04" gradientTransform="matrix(-1, 0, 0, 1, 813.47, 0)" xlink:href="#78f2d8a3-abf7-4070-988a-a9b3a85d1da4"/>
    <linearGradient id="39fe97f5-568b-425b-85f7-132a1dedf0fe" x1="344.47" y1="208.47" x2="352.2" y2="224.39" gradientTransform="matrix(-1, 0, 0, 1, 813.47, 0)" xlink:href="#9e1092a9-bf3e-44ff-ad5a-810b38aca861"/>
    <linearGradient id="4663a77b-9e2e-44c4-9e9e-e5f6c81fbda6" x1="344.1" y1="250.83" x2="328.72" y2="209.55" gradientTransform="matrix(-1, 0, 0, 1, 813.47, 0)" xlink:href="#9e1092a9-bf3e-44ff-ad5a-810b38aca861"/>
    <linearGradient id="e30c5266-90aa-4100-9c75-443654447508" x1="1380.15" y1="380.57" x2="1390.09" y2="380.57" gradientTransform="translate(-1009.56)" xlink:href="#9e1092a9-bf3e-44ff-ad5a-810b38aca861"/>
    <linearGradient id="452b7ac4-8b32-4d7c-9604-6c7435e6fa13" x1="1390.24" y1="376.58" x2="1399.81" y2="376.58" gradientTransform="translate(-1009.56)" xlink:href="#d893069d-1463-4fa7-9ea3-0fc3ae277a06"/>
    <linearGradient id="6344f5ed-a746-41f7-8419-554f5405df9f" x1="263.82" y1="293.45" x2="263.82" y2="300.1" gradientTransform="translate(114.47)" xlink:href="#d893069d-1463-4fa7-9ea3-0fc3ae277a06"/>
    <linearGradient id="69ae9510-c750-41f2-9405-ba6a63c1671c" x1="1473.61" y1="296.57" x2="1507.83" y2="296.05" gradientTransform="translate(-1089.56)" xlink:href="#d893069d-1463-4fa7-9ea3-0fc3ae277a06"/>
    <linearGradient id="77d68d7e-9d3d-4b10-b6ad-c257f862894a" x1="263.84" y1="287.01" x2="268.38" y2="296.37" gradientTransform="translate(114.47)" xlink:href="#9e1092a9-bf3e-44ff-ad5a-810b38aca861"/>
    <linearGradient id="248408c8-8ee7-4a45-bba8-28e8040b632a" x1="378.42" y1="343.1" x2="354.38" y2="278.57" gradientTransform="matrix(1, 0, 0, 1, 0, 0)" xlink:href="#9e1092a9-bf3e-44ff-ad5a-810b38aca861"/>
    <linearGradient id="d756fd57-1102-4790-b37e-513f1c21dbfb" x1="514" y1="290.06" x2="523.46" y2="290.06" gradientTransform="matrix(-1, 0, 0, 1, 927.94, 0)" xlink:href="#d893069d-1463-4fa7-9ea3-0fc3ae277a06"/>
    <linearGradient id="c3cd6935-1576-45c1-ab03-56bdb9e91ac1" x1="406.07" y1="347.89" x2="372.19" y2="347.89" xlink:href="#78f2d8a3-abf7-4070-988a-a9b3a85d1da4"/>
    <linearGradient id="f1d9eba4-fbb3-4a62-b483-8ddb717f04ae" x1="340.73" y1="444.97" x2="330.86" y2="370.91" xlink:href="#dfa0c1d0-7b18-47a8-ab7d-e0723ef32f4a"/>
    <linearGradient id="9f2e44c2-9d15-4b41-9be8-87de0fd51ff7" x1="284.04" y1="339.43" x2="293.53" y2="339.43" gradientTransform="matrix(-1, 0, 0, 1, 622.7, 0)" xlink:href="#9e1092a9-bf3e-44ff-ad5a-810b38aca861"/>
    <linearGradient id="15902275-fa43-495f-b1fb-432865430466" x1="221.74" y1="335.18" x2="228.52" y2="335.18" gradientTransform="matrix(-1, -0.05, -0.05, 1, 579.37, 9.32)" xlink:href="#9e1092a9-bf3e-44ff-ad5a-810b38aca861"/>
    <linearGradient id="b7bbe04f-e780-413b-8bf2-31b599ee7d4e" x1="285.59" y1="350.89" x2="303.98" y2="350.89" gradientTransform="matrix(-1, 0, 0, 1, 622.7, 0)" xlink:href="#dfa0c1d0-7b18-47a8-ab7d-e0723ef32f4a"/>
    <linearGradient id="a7c53c5e-8611-4968-a262-233d19bbd385" x1="251.63" y1="349.48" x2="287.81" y2="349.48" gradientTransform="matrix(-1, 0, 0, 1, 622.7, 0)" xlink:href="#dfa0c1d0-7b18-47a8-ab7d-e0723ef32f4a"/>

  </defs>
  <title>5</title>
  <g>
    <g class="screen">
      <g style="opacity: 0;" class="screen">
        <g class="642e1f60-bd01-4be8-a5f6-fd6a7b72f97d">
          <polygon class="8cb9412a-63b2-4a43-aa3d-bb040ff9ca30" points="318.92 171.94 318.92 355.79 502.03 250.06 502.03 66.07 318.92 171.94"/>
        </g>
        <g>
          <polygon class="8cb9412a-63b2-4a43-aa3d-bb040ff9ca30" points="318.92 171.94 502.03 66.07 502.03 77.26 318.92 183.29 318.92 171.94"/>
          <path class="ff21a871-685d-4ca6-a0c9-0909d190ba34" d="M325.6,171.72a1,1,0,0,1,1.56.9,3.42,3.42,0,0,1-1.55,2.69,1,1,0,0,1-1.57-.89A3.43,3.43,0,0,1,325.6,171.72Z"/>
          <path class="713adcc0-a016-406b-8fbc-057aa3cdbe3b" d="M331.51,168.31a1,1,0,0,1,1.56.9,3.42,3.42,0,0,1-1.55,2.69A1,1,0,0,1,330,171,3.43,3.43,0,0,1,331.51,168.31Z"/>
        </g>
      </g>
      <g class="green">
        <g style="opacity: 0;" class="info">
          <g>
            <polygon class="53941685-b0ba-4dde-b9f0-66e33dd92f5d" points="349.18 286.71 349.18 288.89 334.92 297.02 334.92 294.84 349.18 286.71"/>
            <polygon class="53941685-b0ba-4dde-b9f0-66e33dd92f5d" points="344.16 294.72 344.16 296.9 334.92 302.12 334.92 299.94 344.16 294.72"/>
            <polygon class="ff21a871-685d-4ca6-a0c9-0909d190ba34" points="340.83 302.16 340.83 308.51 334.92 311.8 334.92 305.45 340.83 302.16"/>
          </g>
          <g>
            <polygon class="53941685-b0ba-4dde-b9f0-66e33dd92f5d" points="391.17 267.58 391.17 269.76 382.12 274.98 382.12 272.8 391.17 267.58"/>
            <polygon class="53941685-b0ba-4dde-b9f0-66e33dd92f5d" points="396.19 259.57 396.19 261.75 382.12 269.88 382.12 267.7 396.19 259.57"/>
            <polygon class="ff21a871-685d-4ca6-a0c9-0909d190ba34" points="387.84 275.02 387.84 281.37 382.12 284.66 382.12 278.31 387.84 275.02"/>
          </g>
          <g>
            <polygon class="ff21a871-685d-4ca6-a0c9-0909d190ba34" points="364.34 288.59 364.34 294.94 358.62 298.23 358.62 291.88 364.34 288.59"/>
            <polygon class="53941685-b0ba-4dde-b9f0-66e33dd92f5d" points="367.66 281.15 367.66 283.33 358.62 288.55 358.62 286.37 367.66 281.15"/>
            <polygon class="53941685-b0ba-4dde-b9f0-66e33dd92f5d" points="372.68 273.14 372.69 275.32 358.62 283.45 358.62 281.27 372.68 273.14"/>
          </g>
          <polygon class="23005c31-daa7-4781-9025-8a53069a28a6" points="419.69 238.34 419.69 242.15 334.92 290.99 334.92 287.18 419.69 238.34"/>
          <g>
            <polygon class="53941685-b0ba-4dde-b9f0-66e33dd92f5d" points="414.67 254.01 414.67 256.19 405.63 261.41 405.63 259.23 414.67 254.01"/>
            <polygon class="ff21a871-685d-4ca6-a0c9-0909d190ba34" points="411.35 261.45 411.35 267.8 405.63 271.09 405.63 264.74 411.35 261.45"/>
            <polygon class="53941685-b0ba-4dde-b9f0-66e33dd92f5d" points="419.69 246 419.69 248.18 405.63 256.31 405.63 254.13 419.69 246"/>
          </g>
        </g>
        <g>
          <polygon style="opacity: 0;" class="second-graphic-text-4 ff21a871-685d-4ca6-a0c9-0909d190ba34" points="376.63 222.49 376.63 226.01 365.24 232.56 365.24 229.04 376.63 222.49"/>
          <polygon style="opacity: 0;" class="second-graphic-text-3 53941685-b0ba-4dde-b9f0-66e33dd92f5d" points="389.35 210.13 389.35 211.9 365.24 225.82 365.24 224.05 389.35 210.13"/>
          <polygon style="opacity: 0;" class="second-graphic-text-2 53941685-b0ba-4dde-b9f0-66e33dd92f5d" points="389.35 205.15 389.35 206.92 365.24 220.84 365.24 219.07 389.35 205.15"/>
          <polygon style="opacity: 0;" class="second-graphic-text-1 53941685-b0ba-4dde-b9f0-66e33dd92f5d" points="389.35 200.16 389.35 201.93 365.24 215.85 365.24 214.08 389.35 200.16"/>
        </g>
        <g style="opacity: 0;" class="second-graphic">
          <polygon class="8cb9412a-63b2-4a43-aa3d-bb040ff9ca30" points="365.24 186.33 389.35 172.41 389.35 187.88 385.8 186.67 383.81 189.74 379.97 188.26 376.51 193.61 370.71 191.38 365.24 199.88 365.24 186.33"/>
          <path class="23005c31-daa7-4781-9025-8a53069a28a6" d="M375.78,184.27a1.25,1.25,0,0,1,2.06,1.18A4.51,4.51,0,0,1,375.8,189a1.25,1.25,0,0,1-2.06-1.17A4.51,4.51,0,0,1,375.78,184.27Z"/>
          <polygon class="23005c31-daa7-4781-9025-8a53069a28a6" points="370.71 191.38 376.51 193.61 379.97 188.26 383.81 189.74 385.8 186.67 389.35 187.88 389.35 195.46 365.24 209.38 365.24 199.88 370.71 191.38"/>
        </g>
        <g>
          <polygon style="opacity: 0;" class="first-graphic-text-3 53941685-b0ba-4dde-b9f0-66e33dd92f5d" points="359.11 227.59 359.11 229.36 334.92 243.28 334.92 241.51 359.11 227.59"/>
          <polygon style="opacity: 0;" class="first-graphic-text-2 53941685-b0ba-4dde-b9f0-66e33dd92f5d" points="359.11 222.61 359.11 224.38 334.92 238.3 334.92 236.53 359.11 222.61"/>
          <polygon style="opacity: 0;" class="first-graphic-text-1 53941685-b0ba-4dde-b9f0-66e33dd92f5d" points="359.11 217.62 359.11 219.39 334.92 233.31 334.92 231.54 359.11 217.62"/>
          <polygon style="opacity: 0;" class="first-graphic-text-4 ff21a871-685d-4ca6-a0c9-0909d190ba34" points="346.38 239.95 346.38 243.47 334.92 250.02 334.92 246.5 346.38 239.95"/>
        </g>
        <g style="opacity: 0;" class="first-graphic">
          <polygon class="23005c31-daa7-4781-9025-8a53069a28a6" points="334.92 203.79 359.11 189.87 359.11 212.92 334.92 226.84 334.92 203.79"/>
          <path class="8cb9412a-63b2-4a43-aa3d-bb040ff9ca30" d="M344.7,205.72a0.25,0.25,0,0,1,.14,0l5.48,0.48c0.19,0,.19.33,0,0.56l-5.46,6.79a0.53,0.53,0,0,1-.14.13,0.17,0.17,0,0,1-.28-0.16l0-7.26A0.62,0.62,0,0,1,344.7,205.72Z"/>
        </g>
        <g style="opacity: 0;" class="third-graphic">
          <polygon class="8cb9412a-63b2-4a43-aa3d-bb040ff9ca30" points="395.4 168.87 419.69 154.94 419.69 201.18 395.4 215.1 395.4 168.87"/>
          <g>
            <polygon style="opacity: 0;" class="third-graphic-text-4 ff21a871-685d-4ca6-a0c9-0909d190ba34" points="405.36 201.07 405.36 204.55 399.38 207.99 399.38 204.5 405.36 201.07"/>
            <polygon style="opacity: 0;" class="third-graphic-text-3 53941685-b0ba-4dde-b9f0-66e33dd92f5d" points="415.71 184.93 415.71 187.05 399.38 196.48 399.38 194.36 415.71 184.93"/>
            <polygon style="opacity: 0;" class="third-graphic-text-2 53941685-b0ba-4dde-b9f0-66e33dd92f5d" points="415.71 189.21 415.71 191.34 399.38 200.77 399.38 198.64 415.71 189.21"/>
            <polygon style="opacity: 0;" class="third-graphic-text-1 53941685-b0ba-4dde-b9f0-66e33dd92f5d" points="415.71 180.64 415.71 182.76 399.38 192.19 399.38 190.07 415.71 180.64"/>
            <path style="opacity: 0;" class="third-graphic 23005c31-daa7-4781-9025-8a53069a28a6" d="M407.47,165.52c4-2.33,7.31-.46,7.33,4.18a16.05,16.05,0,0,1-7.28,12.61c-4,2.33-7.32.46-7.33-4.17A16.06,16.06,0,0,1,407.47,165.52Z"/>
          </g>
        </g>
      </g>
      <g class="top-right">
        <polygon style="opacity: 0;" class="bar-7 713adcc0-a016-406b-8fbc-057aa3cdbe3b" points="489.99 137.3 489.99 169.37 487.04 171.07 487.04 139.01 489.99 137.3"/>
        <path style="opacity: 0;" class="green-line 23005c31-daa7-4781-9025-8a53069a28a6" d="M490,117.94a6.37,6.37,0,0,0-2.88,5,2.3,2.3,0,0,0,.46,1.52l-9.91,17.17a2.34,2.34,0,0,0-1.55.37,6.07,6.07,0,0,0-2.29,2.62l-8.72.36a3.89,3.89,0,0,0,0-.51c0-1.83-1.31-2.57-2.91-1.65a6.36,6.36,0,0,0-2.88,5,2.28,2.28,0,0,0,.54,1.63L453.4,161.3a2.56,2.56,0,0,0-1.45.39,6.36,6.36,0,0,0-2.88,5c0,1.84,1.31,2.58,2.9,1.67a6.37,6.37,0,0,0,2.89-5,2.26,2.26,0,0,0-.54-1.6l6.46-11.87a2.47,2.47,0,0,0,1.43-.39,6.27,6.27,0,0,0,2.41-2.89l8.63-.35a5.93,5.93,0,0,0-.07.77c0,1.83,1.31,2.57,2.91,1.65a6.36,6.36,0,0,0,2.88-5,2.42,2.42,0,0,0-.46-1.53l9.9-17.15a2.46,2.46,0,0,0,1.56-.38,6.36,6.36,0,0,0,2.88-5C492.87,117.76,491.56,117,490,117.94Zm-38,49a1,1,0,0,1-1.64-.95,3.6,3.6,0,0,1,1.63-2.83,1.57,1.57,0,0,1,.56-0.21,0.83,0.83,0,0,1,.93.44,1.44,1.44,0,0,1,.16.7A3.63,3.63,0,0,1,452,166.91Zm11.5-20.27a3.37,3.37,0,0,1-1.25,1.4,1.43,1.43,0,0,1-.54.2,0.84,0.84,0,0,1-.94-0.42,1.51,1.51,0,0,1-.16-0.73,3.6,3.6,0,0,1,1.63-2.83,1,1,0,0,1,1.64.77v0.16A3.16,3.16,0,0,1,463.47,146.64Zm12.63,0.57a1,1,0,0,1-1.65-.93v-0.08a3.31,3.31,0,0,1,.53-1.62,3.25,3.25,0,0,1,1.1-1.13,1.71,1.71,0,0,1,.63-0.22,0.83,0.83,0,0,1,.88.5,1.59,1.59,0,0,1,.13.65A3.6,3.6,0,0,1,476.1,147.21Zm13.88-24a1.62,1.62,0,0,1-.63.22,0.83,0.83,0,0,1-.88-0.52,1.57,1.57,0,0,1-.13-0.64,3.62,3.62,0,0,1,1.63-2.84,1,1,0,0,1,1.64.95A3.6,3.6,0,0,1,490,123.16Z"/>
        <g>
          <polygon style="opacity: 0;" class="bar-2 56d1eeff-9f99-42b2-903d-3b208660def0" points="460.83 169.68 460.83 186.23 457.88 187.94 457.88 171.38 460.83 169.68"/>
          <polygon style="opacity: 0;" class="bar-5 ff915594-da78-419a-a0be-672ee0d14a04" points="478.34 155.77 478.34 176.11 475.39 177.82 475.39 157.48 478.34 155.77"/>
          <polygon style="opacity: 0;" class="bar-6 713adcc0-a016-406b-8fbc-057aa3cdbe3b" points="484.18 147.43 484.18 172.74 481.22 174.44 481.22 149.14 484.18 147.43"/>
          <polygon style="opacity: 0;" class="bar-4 ff915594-da78-419a-a0be-672ee0d14a04" points="472.51 160.87 472.51 179.48 469.56 181.19 469.56 162.57 472.51 160.87"/>
          <polygon style="opacity: 0;" class="bar-1 8cb9412a-63b2-4a43-aa3d-bb040ff9ca30" points="455 178.55 455 189.6 452.05 191.31 452.05 180.26 455 178.55"/>
          <polygon style="opacity: 0;" class="bar-3 56d1eeff-9f99-42b2-903d-3b208660def0" points="466.65 159.99 466.65 182.86 463.69 184.56 463.69 161.7 466.65 159.99"/>
        </g>
      </g>
      <g class="bottom-right">
        <g style="opacity: 0;" class="text-1">
          <polygon class="ff21a871-685d-4ca6-a0c9-0909d190ba34" points="485.28 184.21 485.28 189.5 453.83 207.61 453.83 202.31 485.28 184.21"/>
          <polygon class="53941685-b0ba-4dde-b9f0-66e33dd92f5d" points="473.93 200.1 473.94 202.97 453.83 214.56 453.83 211.69 473.93 200.1"/>
        </g>
        <g style="opacity: 0;" class="text-3">
          <polygon class="53941685-b0ba-4dde-b9f0-66e33dd92f5d" points="485.28 230.93 485.28 232.29 466.41 243.22 466.4 241.85 485.28 230.93"/>
          <polygon class="53941685-b0ba-4dde-b9f0-66e33dd92f5d" points="485.28 234.3 485.28 235.67 466.42 246.59 466.42 245.23 485.28 234.3"/>
          <polygon class="53941685-b0ba-4dde-b9f0-66e33dd92f5d" points="485.28 227.57 485.28 228.93 466.4 239.86 466.4 238.5 485.28 227.57"/>
        </g>
        <g style="opacity: 0;" class="text-2">
          <polygon class="53941685-b0ba-4dde-b9f0-66e33dd92f5d" points="485.28 202.47 485.28 204.24 453.83 222.34 453.83 220.58 485.28 202.47"/>
          <polygon class="53941685-b0ba-4dde-b9f0-66e33dd92f5d" points="485.28 211.18 485.28 212.94 453.83 231.05 453.83 229.28 485.28 211.18"/>
          <polygon class="53941685-b0ba-4dde-b9f0-66e33dd92f5d" points="485.28 219.88 485.28 221.64 453.83 239.75 453.83 237.99 485.28 219.88"/>
          <polygon class="53941685-b0ba-4dde-b9f0-66e33dd92f5d" points="485.28 215.53 485.28 217.3 453.83 235.4 453.83 233.64 485.28 215.53"/>
          <polygon class="53941685-b0ba-4dde-b9f0-66e33dd92f5d" points="485.28 206.82 485.28 208.58 453.83 226.69 453.83 224.92 485.28 206.82"/>
        </g>
        <polygon style="opacity: 0;" class="text-4 ff21a871-685d-4ca6-a0c9-0909d190ba34" points="462.94 240.49 462.95 245.42 453.83 250.61 453.83 245.68 462.94 240.49"/>
      </g>
      <g style="opacity: 0;" class="search-bar">
        <polygon class="ff21a871-685d-4ca6-a0c9-0909d190ba34" points="384.05 234.57 446.31 198.63 446.34 210.56 384.09 246.5 384.05 234.57"/>
        <path class="713adcc0-a016-406b-8fbc-057aa3cdbe3b" d="M444.2,208.52l-1.33-.76c0.72-1.69.59-3.34-.39-3.89a2,2,0,0,0-2,.21,5.82,5.82,0,0,0-2,2.13c-1.12,1.94-1.11,4,0,4.67a2,2,0,0,0,2-.21,5.39,5.39,0,0,0,1.55-1.42l1.33,0.75a0.43,0.43,0,0,0,.43,0,1.23,1.23,0,0,0,.43-0.45A0.75,0.75,0,0,0,444.2,208.52Zm-2.34-.35a4,4,0,0,1-1.4,1.47,1.41,1.41,0,0,1-1.4.14c-0.78-.44-0.78-1.88,0-3.21a4,4,0,0,1,1.4-1.48,1.4,1.4,0,0,1,1.4-.14C442.63,205.39,442.63,206.83,441.86,208.16Z"/>
        <path id="search-blinker" class="53941685-b0ba-4dde-b9f0-66e33dd92f5d" d="M388.05,235.18a0.27,0.27,0,0,0-.45-0.26,1,1,0,0,0-.45.78v5.82a0.28,0.28,0,0,0,.47.25,1,1,0,0,0,.45-0.77Z"/>
      </g>
    </g>
    <g>
      <path style="opacity: 0;" class="screen-1 8cb9412a-63b2-4a43-aa3d-bb040ff9ca30" d="M282.16,281.69c0-1.66-1.2-2.33-2.64-1.5l-36.39,21a5.75,5.75,0,0,0-2.6,4.52v9.75c0,1.66,1.2,2.32,2.64,1.49l26.75-15.44,5.89,3.36,0-6.75,3.77-2.17a5.73,5.73,0,0,0,2.6-4.51v-9.75Z"/>
      <path style="opacity: 0;" class="screen-2 8cb9412a-63b2-4a43-aa3d-bb040ff9ca30" d="M231.16,310.7c0-1.67-1.19-2.33-2.64-1.5l-36.38,21a5.72,5.72,0,0,0-2.6,4.52v9.74c0,1.66,1.19,2.33,2.64,1.5l3.77-2.17,0,6.74,5.85-10.13L228.56,325a5.73,5.73,0,0,0,2.6-4.52V310.7Z"/>
    </g>
  </g>
  <g>
    <g style="opacity: 0;" class="person-1">
      <path class="2a688cc6-ce82-4546-9857-6edf83af2787" d="M175.63,448.79l3.59-.12a2.91,2.91,0,0,0,0,1.21s0.22,0.86,1.75.1l1.74-.8,2.58,1.36-6.15,3.33L175.45,452A9.07,9.07,0,0,0,175.63,448.79Z"/>
      <path class="2a688cc6-ce82-4546-9857-6edf83af2787" d="M187.68,453.42l3.93-.12a6.19,6.19,0,0,0,.08,1.53s0.44,0.44,2-.33l1.22-.86,2.89,1.56L191.68,459l-4.07-.73S188.4,455.22,187.68,453.42Z"/>
      <path class="8d267bb4-cda9-4262-b7a5-4dd34811fa5c" d="M187.81,456.15A5.76,5.76,0,0,0,191,457c2.63-.07,4.69-0.89,4.88-1.41a0.6,0.6,0,0,0-.19-0.81c-0.54-.47-1.16-0.67-2.55-0.25a24.2,24.2,0,0,1,3.58-1.8,3,3,0,0,1,2.63.28,2,2,0,0,1,1,.89,2.78,2.78,0,0,1-.14,1.55c-1,1.21-3.66,2.61-4.85,3.18-1.42.67-3.58,2-4.22,2.24-1.07.42-2-.08-3-0.54a0.94,0.94,0,0,1-.51-0.63A6.66,6.66,0,0,1,187.81,456.15Z"/>
      <path class="8d267bb4-cda9-4262-b7a5-4dd34811fa5c" d="M175.42,451.6a5.76,5.76,0,0,0,3.17.85c2.63-.07,4.69-0.89,4.88-1.41a0.6,0.6,0,0,0-.19-0.81c-0.54-.47-1.16-0.67-2.55-0.25a24.21,24.21,0,0,1,3.58-1.8,3,3,0,0,1,2.63.28,2,2,0,0,1,1,.89,2.78,2.78,0,0,1-.14,1.55c-1,1.21-3.73,2.22-4.6,2.61a12.72,12.72,0,0,0-2.88,1.59,6.63,6.63,0,0,1-1.59,1.21c-1.07.42-2-.08-3-0.54a0.94,0.94,0,0,1-.51-0.63A6.66,6.66,0,0,1,175.42,451.6Z"/>
      <path class="46c38570-3603-4a6a-9837-eb51c38c2a43" d="M195.36,366.12l-2.11,2.3-2.75-.5-0.42-4,6.13-3.47,0.13,0.17a1.37,1.37,0,0,1,.09,1.49l-0.87,1.52Z"/>
      <path class="1d414c8e-dcdc-4c64-a0f6-35a6f5df9836" d="M184.11,370.49a15.93,15.93,0,0,0,1.68-5.91c0.06-1.06,1.22-.49,2-0.31a21.14,21.14,0,0,0,5.54-.08s-1.93,5.08-1.72,7.79C191.73,373.34,183.91,371.18,184.11,370.49Z"/>
      <path class="a9a55757-123b-4647-9b4e-b0260faaf91c" d="M180.35,382.06a46.34,46.34,0,0,1-6.66-2.49,16,16,0,0,0,.3,9.84c-0.5,2.85.71,6.12,2,8.6,1.34-.51,2.6-1.26,3.93-1.82-0.48-4.39-1.11-6.3-1.54-7.14A26.34,26.34,0,0,0,180.35,382.06Z"/>
      <path class="7d6df59d-6da4-424d-88fe-5404f4a4cba4" d="M194.27,454.79c-0.27.48-4.1,1.81-7.4,0.17,0,0,.13-12.77.5-24.16l-1.13-12L184,431.43s-2.62,10.22-2.13,19c-0.48.73-6.35,1.71-8-.49,0,0,.79-4.91,1.78-19,0.24-3.35,1.06-9.55.92-12.94-0.43-10.31-.24-17.55,2.35-19.49L195,398.88a209.28,209.28,0,0,1,1.13,29C195.86,435.67,194.52,448.54,194.27,454.79Z"/>
      <path class="732085e6-2c49-4578-8c34-be51fd2b08b1" d="M177.25,371a12.4,12.4,0,0,1,6.14-1.88c5.53-.36,11.15,2.33,13.15,3.62a10.28,10.28,0,0,1,4.91,8c0.05,0.57.23,2.72,0.29,3.35s-4.49,1.78-7.12,1.22c0,0,.32-0.28.79,1.77,0.95,4.23,2.25,11.76,1.37,18.27-1.7,2.41-16,4.75-20.91-2.6,0,0-1.88-12.52-.5-18.9a34.1,34.1,0,0,1-2.44-2.44S172,374.82,177.25,371Z"/>
      <path class="8d267bb4-cda9-4262-b7a5-4dd34811fa5c" d="M196.91,360.81c2.58-2.54.52-4.37-1.27-4.27-1.26.07-5-2.06-6.76-.7a14.88,14.88,0,0,0-2.15,1.66,4.74,4.74,0,0,0-1,2,12.45,12.45,0,0,0-.14,3.39,4.92,4.92,0,0,0,.29,2A2.64,2.64,0,0,0,187,366.2a3.69,3.69,0,0,0,2.52.08,12.21,12.21,0,0,0,2.16-1.12,7.48,7.48,0,0,1,1-.53,1.65,1.65,0,0,1,.54-0.09l-0.6.57a6.17,6.17,0,0,0-1,1.28,1.82,1.82,0,0,0-.34,1.5,3.8,3.8,0,0,0,.43,1.14,1.76,1.76,0,0,0,2.14.84,2.33,2.33,0,0,0,.76-1.63,1,1,0,0,0-.33-1.1c-0.07,0-.66-0.22-0.66-0.23l0-2.41,1.07-2.66C195.39,361.09,196.33,361.38,196.91,360.81Z"/>
      <path class="e8b205ec-118e-48f2-bfc8-c434a695fc41" d="M216.9,390.46c0.39-.53,1.82-0.83,1.61-1.33s-0.61-.13-1.39,0a0.74,0.74,0,0,0-.26.09l-1.58.95c0.08-.81-0.73-0.74-1.1-0.55a12,12,0,0,0-1.26,1,2.43,2.43,0,0,1-1.89,1.12,13.22,13.22,0,0,1-4.47-.35c-3.15-.58-5.64-0.8-5.81-0.81a15.93,15.93,0,0,0,.38-5.94c-3.29.89-4.74,0.94-7.28,0.33a31,31,0,0,0,.4,6.92,8.17,8.17,0,0,0,1.22,3.29,3.29,3.29,0,0,0,1.93,1.11c2,0.55,4-.19,6-0.45,2.8-.38,4.62-0.82,6.52-1.13a12.07,12.07,0,0,1,2.7-.24,7.1,7.1,0,0,0,3-.48c1-.23.69-0.82,0.85-1.13,0.58-.51.11-1,0.35-1.42A1.11,1.11,0,0,0,216.9,390.46Z"/>
    </g>
    <g style="opacity: 0;" class="person-2">
      <g>
        <path class="b4533a8e-82f9-4191-b421-562f6fa43a17" d="M215.25,357.25v-4.11l-1.13-.66v4.11a0.67,0.67,0,0,0,.07.28,0.38,0.38,0,0,0,.15.17l1.13,0.66A0.5,0.5,0,0,1,215.25,357.25Z"/>
        <path class="713de7d4-cafe-4061-a90b-e48868a0d0de" d="M218.28,348.13a2.68,2.68,0,0,0-.12-1.44,1.22,1.22,0,0,0-.49-0.55l-1.24-.63a1.6,1.6,0,0,1,.67,1.47,3.86,3.86,0,0,1-.17,1.08,5.39,5.39,0,0,1-1.3,2.22,3.87,3.87,0,0,1-.81.64,2.24,2.24,0,0,1-.85.3H213.9a1.45,1.45,0,0,1-.7-0.15,5.46,5.46,0,0,0,1.09.73,1.74,1.74,0,0,0,1.23,0,4.37,4.37,0,0,0,2.33-2.31A5.6,5.6,0,0,0,218.28,348.13Z"/>
        <path class="b77cc7e6-3398-4854-be41-5cd3b0fed101" d="M218.33,344.85l-1.13-.66h0L217,344.1a2,2,0,0,0-1.27-.06l-0.07,0a3.4,3.4,0,0,0-.56.21l-0.31.16a5.67,5.67,0,0,0-1.2.95,7.86,7.86,0,0,0-1.84,3l0,0.12a5.9,5.9,0,0,0-.29,1.74,3.82,3.82,0,0,0,.07.74,2,2,0,0,0,.93,1.41l1.13,0.66a8.16,8.16,0,0,1-.38-3.35,10.09,10.09,0,0,1,2.23-3.84C216,345.17,218.33,344.85,218.33,344.85Z"/>
        <path class="23005c31-daa7-4781-9025-8a53069a28a6" d="M219.31,347c0-2.14-1.52-3-3.38-1.93a7.4,7.4,0,0,0-3.36,5.81c0,1.86,1.14,2.75,2.67,2.25v4.11a0.44,0.44,0,0,0,.73.41,1.56,1.56,0,0,0,.7-1.23v-4.11A7.51,7.51,0,0,0,219.31,347ZM216,351.58c-1.26.73-2.29,0.14-2.29-1.31a5,5,0,0,1,2.28-3.94c1.26-.73,2.29-0.14,2.29,1.31A5,5,0,0,1,216,351.58Z"/>
      </g>
      <path class="fba5b298-8cb6-46d6-a321-78cda5b6ecc4" d="M241,351.79s-0.09,6,2.22,7.08l-9.6.85s3-2.07,2-6.9Z"/>
      <path class="8d267bb4-cda9-4262-b7a5-4dd34811fa5c" d="M228.47,443.54a7.52,7.52,0,0,1,.13-2.54l-3-.42a6.36,6.36,0,0,0-3.12.86s-0.32.33-2.51,0.55c-0.76.07-1.85-.53-2.22,0.14-0.7,1.28,1,2.78,2.17,3.05,1.56,0.37,3.38-.61,5.1.77a2.4,2.4,0,0,0,2.07.84,1.3,1.3,0,0,0,1.27-.89A5.91,5.91,0,0,0,228.47,443.54Z"/>
      <path class="8d267bb4-cda9-4262-b7a5-4dd34811fa5c" d="M246.61,440.87l-3-.42c-0.86.49-1.28,0.27-2.66,0.45a7.17,7.17,0,0,1-1.71-.46c-0.65-.11-2.16-0.18-2.71.55-0.87,1.16.5,2.88,1.64,3.14,0.88,0.21,1.8.11,2.69,0.26a4.75,4.75,0,0,1,2,.95,3.08,3.08,0,0,0,2,.7c1.36,0.1,1.86-1.2,1.66-2.37A9.07,9.07,0,0,1,246.61,440.87Z"/>
      <path class="54efb918-30e0-47f7-9c46-b2421359c393" d="M232,345.68c-0.15,1.9-.09,6.28,3.38,7.52,0,0,6.56-.1,2-7.34-0.41-.66-1.64-2.45-3.28-2.26A4,4,0,0,0,232,345.68Z"/>
      <path class="3efbac57-d24c-4f31-8b13-833e4255ff6c" d="M246.35,384.21a15.78,15.78,0,0,1,1.22,3.77,35.06,35.06,0,0,1,.12,13.31c-1.28,7.84-.73,12.4-1.46,19.33a143.56,143.56,0,0,1,1,21c0,1-5.78.66-7.47-.73a32.88,32.88,0,0,0,.85-7.88,85.52,85.52,0,0,0-1.15-12c0.43-8.61-1-21.51-1.28-21-1,2-2.78,5.42-4.38,8.75-2.19,4.56-3,7.73-3.1,11.3,0,0,.49,17.48-1.4,22.36-0.94.87-5,1.12-7.35-1.25l1.46-25.86s0.24-2.27,1.82-10.21c1.64-8.2,4-15.8,4.68-20.36C229.94,384.76,240.7,389.68,246.35,384.21Z"/>
      <path class="eeaa9cf0-8d85-4cfc-aece-9c193d2e6fb1" d="M244.77,356.37s4.65,1.4,2.19,10.06a59.09,59.09,0,0,0-1.28,11.88s2.21-2.18,3.52-3.28a1.52,1.52,0,0,0,.54-1c0.16-1.74,1.76-7.65,0-14.14C249.78,359.87,248.78,355.4,244.77,356.37Z"/>
      <path class="7d6df59d-6da4-424d-88fe-5404f4a4cba4" d="M248.07,364.94a15.17,15.17,0,0,0,.38-3.55c-0.05-1.56-.63-5-2.77-5.07-0.86,0-1.64.18-3,.24a2.7,2.7,0,0,1-.79-0.91c-0.73,1.46-7.17,1.34-7.17,1.34a2.6,2.6,0,0,1-1.22,1c-1.34.49-4.36,0.2-5.82,2.2-0.61.83-.16,10.83-0.14,11,0,0,4.8,8,0,20.72,0.85,2.19,9.73,5.06,14.34,2.07a19.47,19.47,0,0,1-.24-2.92c0-1.77.33-3.4,0.49-2.67a28,28,0,0,0,1.82,5.35s4.25-.61,5.71-1.58a38.59,38.59,0,0,1-2.25-6.12,34.2,34.2,0,0,1-1.18-5.86,24.53,24.53,0,0,1,.32-6.49C247,370.71,247.48,367.83,248.07,364.94Z"/>
      <path class="31f8721b-416f-4252-b176-6c5ba96b0fd7" d="M231.39,363.55a8.21,8.21,0,0,0-.07-1.43,4.18,4.18,0,0,0-.7-2,2.11,2.11,0,0,0-3-.53,5.5,5.5,0,0,0-1.37,2.9c-0.56,2.08-2.11,7.56-2.25,8.08-0.62-1-1.62-3.08-2.55-4.38s-1.49-2.58-1.49-2.58c-1-1.72-2.09-3.92-2.09-3.92l0.36-1.44a1.23,1.23,0,0,0,0-.3L218,356.4a1.13,1.13,0,0,0-.57-1l-0.77-.33a7.53,7.53,0,0,1,0,.93,0.76,0.76,0,0,1-.85.79,2,2,0,0,1-1.52-1,1.32,1.32,0,0,1-.14-0.37c0-.22-0.63-0.26-0.81.19l-0.59,1.81a1,1,0,0,0,.11,1l2.22,1.8a46.09,46.09,0,0,1,2.39,5.43,77.67,77.67,0,0,0,3.46,7.89c0.79,1.43,2.83,3.57,4.08,2.86,1.93-1.09,3.13-4.09,4.08-6C230.15,368.34,231.3,366,231.39,363.55Z"/>
      <path class="8d267bb4-cda9-4262-b7a5-4dd34811fa5c" d="M244.11,343.59c-1.29-3-3.51-6.19-10.66-2.58,0,0-4-.22-2.54,5l3.45,0.07a5.66,5.66,0,0,1-2,7.56,10.08,10.08,0,0,0,5.73.5c0.34-.06.7-0.13,1.07-0.23a15.33,15.33,0,0,0,1.51-.47q0.47-.17,1-0.38a18.42,18.42,0,0,0,1.94-1C247.47,349.84,245,345.68,244.11,343.59Z"/>
    </g>
    <g style="opacity: 0;" class="person-3">
      <path class="43e97ed0-49b9-41b5-9525-95dc0e30c6bd" d="M279.87,323.25s-1.93,14.87-4.8,18.94a6.62,6.62,0,0,1-2.78.81c-0.35,0-1.11-3.25-1.23-4.36-0.31-2.95-.74-10.83,4.64-16.89Z"/>
      <polygon class="7d6df59d-6da4-424d-88fe-5404f4a4cba4" points="294.05 332.95 294.05 348.48 297.75 347.62 298.24 332.09 294.05 332.95"/>
      <path class="5602b348-501d-4b89-871b-f12879786e1e" d="M283.66,395.71l-3.68-.26a20.93,20.93,0,0,1-.23,3.84s-0.62,3.47-2,3.92l-4.18,1.69v0.62l5.52,0.8,5.34-3.47-0.8-3.65S283.54,397.46,283.66,395.71Z"/>
      <path class="ebce8d6d-7980-4261-ba41-ceedbb16baf2" d="M294.51,398.27h-3.67a19.32,19.32,0,0,1-.23,3.42,8.56,8.56,0,0,1-2.29,5.15l-2.1,2.4v0.62l4.81,0.36,4.2-5-0.8-3.65S294.4,400,294.51,398.27Z"/>
      <path class="8d267bb4-cda9-4262-b7a5-4dd34811fa5c" d="M277.88,378s0.44,19.22.09,20.75c0.27,0.47,4.23,1.9,7.47.29a136.68,136.68,0,0,0,.44-20.56L286,367.72l1.78,11.68,1.25,2.4a86.16,86.16,0,0,1-.09,18.26c0.47,0.72,6.25,1.68,7.92-.48,0,0,.8-4.83-0.18-18.74-0.23-3.3.57-10.45,0.71-13.79,0.42-10.15.24-17.28-2.31-19.19l-18,.86s-1.28,7.68-.39,21.32l0.56,6.85Z"/>
      <path class="bc2e731c-0a74-4f53-8edb-8e5dada093d8" d="M294.26,324.9s0.52,10.44,3.08,14.71a20.42,20.42,0,0,0,4-.06,16.17,16.17,0,0,0-2.76-15.83Z"/>
      <path class="7d6df59d-6da4-424d-88fe-5404f4a4cba4" d="M296.93,320.63a17.11,17.11,0,0,0-17.45-1.88c-2,.93-7.95,3.42-8.87,13.31-0.09.65,4.25,1.2,6.84,0.65,0,0-.28,11.22-1.46,17.11a27.21,27.21,0,0,0,20.35-.83s-0.59-9-.89-14.59c0,0,5.52-.83,7.12-2.55A18.3,18.3,0,0,0,296.93,320.63Z"/>
      <path class="8cb9412a-63b2-4a43-aa3d-bb040ff9ca30" d="M285.55,322.52l-2.09,1.65s0.89,7.55-.52,20.64c0,0.33.26,0.44,0.35,0.13,0.63-2.28,1.82-7.74,3.09-19.37Z"/>
      <path class="c6690aa7-ba01-449c-8638-21ce42c11a9c" d="M290.72,320.54a1.72,1.72,0,0,0,.66-1.81,23.4,23.4,0,0,1-.68-5.27c-0.06-1-1.2-.49-2-0.3a30.48,30.48,0,0,0-4.67,1.8l0.09,1.8a2.9,2.9,0,0,1-.92,2.38c-0.3.44,0.43,1.55,1,1.94a5.08,5.08,0,0,0,3.65.6A7.44,7.44,0,0,0,290.72,320.54Z"/>
      <polygon class="e55ee59e-c31d-457b-b28d-4ec0f4492b4c" points="281.62 312.8 284.27 318 287.93 317.74 290.39 313.99 289.88 307.24 281 308.03 281.62 312.8"/>
      <path class="8d267bb4-cda9-4262-b7a5-4dd34811fa5c" d="M280.14,308.44l3.63-.27-1.64,1,4-.31,1.88,1.15,0.72-.1,1,2.42,1.24,1.48-0.75-6.33a2.57,2.57,0,0,0-2.64-2.27,20.24,20.24,0,0,1-3.72-.15,7.56,7.56,0,0,1-1.61-.39,2.41,2.41,0,0,0-2.61.08,1.89,1.89,0,0,0-.62,2A6.08,6.08,0,0,0,280.14,308.44Z"/>
      <path class="5b2d3f59-fdf6-43f4-8f66-1b47b9377664" d="M297.54,338.43s-1.4.43-2.19,9.43a9.3,9.3,0,0,1-.73,3.22l-2.08,2.29a0.84,0.84,0,0,0-.11,1l0.31,0.56-1.23,1.64a0.58,0.58,0,0,0,0,.64l0.21,0.36a0.77,0.77,0,0,0,.83.36l2.11-.45,1.58-2.19,0.85-3.59s5.53-7.3,4.2-12.71A3.51,3.51,0,0,0,297.54,338.43Z"/>
      <path class="8d267bb4-cda9-4262-b7a5-4dd34811fa5c" d="M294.75,402.72s-0.2,2.34-3.24,4.3a0.21,0.21,0,0,1-.17,0,3,3,0,0,0-3.08-1c-0.54.16-.12,1.73-3,2.59-1.53.47-.74,1.48,0.06,1.91a8.75,8.75,0,0,0,5.67.68c1.11-.31,1.62-1.4,2.16-2.16,0.92-1.29,1.6-2.4,2.1-3.08C295.28,406,295.65,404.93,294.75,402.72Z"/>
      <path class="8d267bb4-cda9-4262-b7a5-4dd34811fa5c" d="M283.92,400s-0.59,1.89-4.7,3.74a0.25,0.25,0,0,1-.17,0s-2.09-1.45-2.85-1a7.69,7.69,0,0,1-2.35,1.76c-2.08.86-2.28,0.62-2.88,0.95-0.42.36,0.18,0.77,1.1,1.33a5.81,5.81,0,0,0,3,.86,7.23,7.23,0,0,0,2.74-.6c4.72-2,6.3-2.48,7.08-3.43A8.05,8.05,0,0,0,283.92,400Z"/>
      <g>
        <path class="b9a811fd-47cd-403e-9be8-820892b0eddb" d="M264.7,321.66a1.41,1.41,0,0,0-.53-0.17,0.83,0.83,0,0,0-.32,0l-0.12.05L263,322a3.87,3.87,0,0,1,1,.1l0.71-.41Z"/>
        <path class="713adcc0-a016-406b-8fbc-057aa3cdbe3b" d="M273,329s-0.27,17.26-.35,17.31l0.71-.41a1.08,1.08,0,0,0,.47-0.93v-16.4Z"/>
        <polygon class="56d1eeff-9f99-42b2-903d-3b208660def0" points="264.75 321.69 264.04 322.1 271.64 326.49 272.36 326.08 264.75 321.69"/>
        <path class="4e66daf7-b799-414f-88e5-f507a3f4fed4" d="M273.78,328.49a2.34,2.34,0,0,0,0-.35,3,3,0,0,0-.18-0.59,3.45,3.45,0,0,0-.47-0.81,3,3,0,0,0-.45-0.46,2.25,2.25,0,0,0-.29-0.2l-0.71.41A23.94,23.94,0,0,1,273,329l0.79-.45S273.78,328.51,273.78,328.49Z"/>
        <path class="ff915594-da78-419a-a0be-672ee0d14a04" d="M271.65,326.49L264,322.1a0.88,0.88,0,0,0-1.44.82v16.4A3.11,3.11,0,0,0,264,341.8l7.61,4.39a0.88,0.88,0,0,0,1.44-.83V329A3.11,3.11,0,0,0,271.65,326.49Z"/>
      </g>
      <path class="c85b49e9-ffca-46cc-b0aa-d681a1d0559c" d="M261.7,338.5l2.62-1a0.51,0.51,0,0,1,.67.31l0,0.1a0.51,0.51,0,0,1-.28.64l-1.16.49,1.69-.43a0.59,0.59,0,0,1,.7.38h0a0.59,0.59,0,0,1-.35.74l-0.38.14a0.58,0.58,0,0,1,.73.36l0,0.07a0.58,0.58,0,0,1-.38.74l-0.42.15a0.9,0.9,0,0,1,.62.3,0.38,0.38,0,0,1,.06.18,0.68,0.68,0,0,1-.47.68L266,343h-2.55a1.06,1.06,0,0,1-1-.19l-0.68-.8-0.43-1.11-0.1-1.68Z"/>
    </g>
    <g style="opacity: 0;" class="person-5">
      <path class="fbd435fd-571b-4e44-a040-a8dbf128a549" d="M418.53,244.06c-0.3-3-.37-2.2-1.09-5.1-0.39-1.58-.66-7.39-1-9-0.43-2.23-1.64-3.33-1.22-5.76,0.64-.5,1.5-0.82,2.05-1.19-0.09-.68-0.48-1.23-0.57-1.91a0.67,0.67,0,0,1,.11-0.57,0.65,0.65,0,0,1,.78,0,8.52,8.52,0,0,1,.55,1c0.68,1.23,1.94,2.57,2.39,4.3,0.34,1.29-.56,2.62-0.39,3.81a30.85,30.85,0,0,0,1,3.81c0.87,2.8,1.86,5.29,1.88,8.22,0,1.28,1.56,1.35,3.2,4.22,0.74,1.29,3.79,3.13,4.56,4.4s-2.67,3.17-3.08,4.6c-1.28,4.48-3.62.32-5.1-1.63A19,19,0,0,1,418.53,244.06Z"/>
      <path class="2a688cc6-ce82-4546-9857-6edf83af2787" d="M448.09,329.76l-3.59-.12a2.91,2.91,0,0,1,0,1.21s-0.22.86-1.75,0.1l-1.74-.8-2.58,1.36,6.15,3.33,3.71-1.83A9.07,9.07,0,0,1,448.09,329.76Z"/>
      <path class="2a688cc6-ce82-4546-9857-6edf83af2787" d="M436,334.39l-3.93-.12a6.19,6.19,0,0,1-.08,1.53s-0.35.25-1.91-.53l-1.7-.43-2.51,1.32,7.28,4.12,2.92-1S435.32,336.19,436,334.39Z"/>
      <path class="8d267bb4-cda9-4262-b7a5-4dd34811fa5c" d="M435.91,337.13a5.76,5.76,0,0,1-3.17.85c-2.63-.07-4.69-0.89-4.88-1.41a0.6,0.6,0,0,1,.19-0.81c0.54-.47,1.16-0.67,2.55-0.25a24.22,24.22,0,0,0-3.58-1.8,3,3,0,0,0-2.63.28,2,2,0,0,0-1,.89,2.78,2.78,0,0,0,.14,1.55c1,1.21,3.66,2.61,4.85,3.18,1.42,0.67,3.59,2,4.22,2.24,1.07,0.42,2-.08,3-0.54a0.94,0.94,0,0,0,.51-0.63A6.66,6.66,0,0,0,435.91,337.13Z"/>
      <path class="8d267bb4-cda9-4262-b7a5-4dd34811fa5c" d="M448.31,332.57a5.76,5.76,0,0,1-3.17.85c-2.63-.07-4.69-0.89-4.88-1.41a0.6,0.6,0,0,1,.19-0.81c0.54-.47,1.16-0.67,2.55-0.25a24.21,24.21,0,0,0-3.58-1.8,3,3,0,0,0-2.63.28,2,2,0,0,0-1,.89,2.78,2.78,0,0,0,.14,1.55c1,1.21,3.73,2.22,4.6,2.61a12.73,12.73,0,0,1,2.88,1.59,6.63,6.63,0,0,0,1.59,1.21c1.07,0.42,2-.08,3-0.54a0.94,0.94,0,0,0,.51-0.63A6.66,6.66,0,0,0,448.31,332.57Z"/>
      <path class="656cecdd-223e-4055-945c-0d49064c4ea9" d="M440.25,246.94c0.22-1-9.12-6.62-9.12-6.62a1.37,1.37,0,0,0-.48,1.42l0.44,1.7-0.22,1.41,0.85,3.59,1.48,0.23a13.41,13.41,0,0,1-.54,3.87c-0.46,1.28,7.65,1.27,7.64.54A15.93,15.93,0,0,1,440.25,246.94Z"/>
      <path class="d806f29e-a4f0-487c-8bba-518137849ecb" d="M443.65,263a46.35,46.35,0,0,0,6.66-2.49,16,16,0,0,1-.3,9.84c0.5,2.85-.71,6.12-2,8.6-1.34-.51-2.6-1.26-3.93-1.82,0.48-4.39,1.11-6.3,1.54-7.14A26.34,26.34,0,0,1,443.65,263Z"/>
      <path class="7d6df59d-6da4-424d-88fe-5404f4a4cba4" d="M429.45,335.77c0.27,0.48,4.1,1.81,7.4.17,0,0-.13-12.77-0.5-24.16l1.13-12,2.25,12.64s2.62,10.22,2.13,19c0.48,0.73,6.35,1.71,8-.49,0,0-.79-4.91-1.78-19-0.24-3.35-1.06-9.55-.92-12.94,0.43-10.31.24-17.55-2.35-19.49l-16.14.38a209.28,209.28,0,0,0-1.13,29C427.87,316.64,429.2,329.51,429.45,335.77Z"/>
      <path class="8d267bb4-cda9-4262-b7a5-4dd34811fa5c" d="M446.48,252a12.41,12.41,0,0,0-6.14-1.88c-2.65-.17-5.57.61-8.2-0.55a23.29,23.29,0,0,1-5.1-3.4s-1.34.36-3.77,2.92a5.64,5.64,0,0,0-1.7,3.65c-0.07.47,2.68,6.14,3.52,8.51a22.64,22.64,0,0,1,1.82,8c0.12,4-.34,14.25.05,17.11,1.7,2.41,16,4.75,20.91-2.6,0,0,1.88-12.52.5-18.9a34.13,34.13,0,0,0,2.44-2.44S451.7,255.79,446.48,252Z"/>
      <path class="8d267bb4-cda9-4262-b7a5-4dd34811fa5c" d="M441.68,242.06a4.74,4.74,0,0,0-.46-2.2,14.89,14.89,0,0,0-1.64-2.17c-1.3-1.76-5.51-.72-6.71-1.11-1.7-.56-4.17.65-2.36,3.78,0.41,0.7,1.39.67,2,1.62l0.33,2.85,0.34,0.13a1.65,1.65,0,0,1,.5.22,7.49,7.49,0,0,1,.78.76,12.21,12.21,0,0,0,1.78,1.66,3.69,3.69,0,0,0,2.45.59,2.64,2.64,0,0,0,1.43-1,4.92,4.92,0,0,0,.8-1.82A12.45,12.45,0,0,0,441.68,242.06Z"/>
    </g>
    <g style="opacity: 0;" class="person-6">
      <path class="8d267bb4-cda9-4262-b7a5-4dd34811fa5c" d="M463.42,224a11.38,11.38,0,0,1-.8-3.32,23.13,23.13,0,0,0-.26-3.51c-0.35-1.69-1.32-3.22-1.56-4.93a6.74,6.74,0,0,1,2.87-6.23,5.44,5.44,0,0,1,7,.25c1.94,1.8,3.2,4.19,5.08,6,1.35,1.34,3,2.36,4.35,3.67a5.32,5.32,0,0,1,1.58,5.16c-0.26,1.73-1.1,3.43-.8,5.15,0.26,1.49,1.35,2.79,1.35,4.3a5.83,5.83,0,0,1-1.91,3.69c-1.64,1.8-3.74,3.75-6.2,4.3s-5.26-1.09-6.55-3a13.83,13.83,0,0,1-1.46-3.42c-0.66-2-1.25-4.07-1.91-6.1C463.92,225.34,463.66,224.68,463.42,224Z"/>
      <path class="8d9ef7a3-85df-4bd0-a608-89acd71012ab" d="M474.58,265.6c-0.56,4-1.63,7.89-1.73,11.91-0.11,4.42,1,8.8.95,13.23a52.1,52.1,0,0,1-1.16,9.15c-0.21,1.15-.38,3.86-1.09,4.79-1,1.29-1.84,2.41-3.5,2.56-0.68.06-2.07-1.43-2.23-1.88,0.58-1.41,1.73-2,2.33-3.32,0.95-2.05,1.75-2.93,1.71-5.89a80,80,0,0,0-2-15.6,81.19,81.19,0,0,1-2.53-21.31c0-2.34.51-5.14,2.67-6.05a5.44,5.44,0,0,1,4.29.47c1.36,0.64,1.63,1.52,2,3A22.26,22.26,0,0,1,474.58,265.6Z"/>
      <path class="d834cc3b-fcf1-46b6-baa4-085070277e4f" d="M465.14,265c-0.56,4-2.29,9.66-2.39,13.7-0.11,4.45,1.33,4,1.81,9.49,0.28,3.09-1.81,8.37-1.38,11.34,0.17,1.16-1.69,1.92-1.69,1.92a21.67,21.67,0,0,1-5.58,1.12,8,8,0,0,0,2.64-2.57c1.44-1.81,2-4.14,2-7.05,0-3.95-1-6.94-2-10.58-0.12-.46-0.53-1-0.65-1.53-1.76-7-1.54-10-1.39-17.19C456.52,261.29,465.56,262,465.14,265Z"/>
      <path class="8d267bb4-cda9-4262-b7a5-4dd34811fa5c" d="M466.79,303.54c0.05-.39-1.19,2-3.7,2.65a0.92,0.92,0,0,0,0,1.74,8,8,0,0,0,4.61.56c2.65-.49,2.51-2.09,4.6-2.09,0.8,0,.17-4.88.17-4.88a4.83,4.83,0,0,1-4,3C467.24,304.66,466.64,304.62,466.79,303.54Z"/>
      <path class="8d267bb4-cda9-4262-b7a5-4dd34811fa5c" d="M458,300.49c0-.37-1.12,1.91-3.49,2.5a0.87,0.87,0,0,0,0,1.64,6,6,0,0,0,4.38.51c1-.35,2.41-2,4.29-2.09,0.75,0,.18-4.47.18-4.47a4.55,4.55,0,0,1-3.78,2.83C458.45,301.54,457.88,301.51,458,300.49Z"/>
      <path class="512ee995-4a60-4bfc-a628-6a6c645d47f9" d="M470.2,215.13a10.23,10.23,0,0,0-.64,4.3l-4.84,2.93a17,17,0,0,0,.5-4.6Z"/>
      <path class="d7406470-49b0-4b1b-b223-9a6ffb4ce0ca" d="M458.53,223.35c-2.52.31-3.85-.29-7.55-0.61-0.72-.06-1-0.57-2.24-1.26-2.42-1.41-4.69-2.28-6.38-4a13.7,13.7,0,0,0-6.91-3.8,0.64,0.64,0,0,0,.21.88c0.36,0.28.8,0.42,1.16,0.68s0.14,0.15.08,0.43a0.49,0.49,0,0,0,.07.48,0.6,0.6,0,0,0,0,.72,1.47,1.47,0,0,0,0,.5,0.68,0.68,0,0,0,.21.24,4,4,0,0,0,1.17.53,7.38,7.38,0,0,1,1.25.5,13.16,13.16,0,0,1,2.12,1.49,31.28,31.28,0,0,0,7.26,5.14l1,0.51a40.1,40.1,0,0,0,9.44,3.1,4.17,4.17,0,0,0,1.74,0c1.29-.3,1.65-1,2.23-1.94,0.74-1.12,1.71-2.83,1.41-3.92-0.36-1.34-4-.07-5,0.13Q459.17,223.27,458.53,223.35Z"/>
      <path class="f3bf180f-57a5-473e-9153-6fbc57c5ddc8" d="M464.63,219.63a2.11,2.11,0,0,1-.83,2.28,12.38,12.38,0,0,0-1.86,1.31,35.68,35.68,0,0,0-2.07,4C459,229,458.18,231,458.65,233c0.28,1.16,1,2.17,1.29,3.34,0.53,2.48-.73,6.41-1.37,8.66a97.17,97.17,0,0,0-3.63,22.18c3.53,2.28,6.47,1.73,10.62,1s7.28-1.76,11.22-.29c0.3-12.62-1.86-14.7-5.72-26.65-0.64-2-.42-3.77.1-7a68,68,0,0,1,2.62-6.7s0.1-2.62.06-4.34c0-1-1.76-2-2.73-2.3s-1.33-.55-1.46-1.57a4.31,4.31,0,0,1-2.77.89C465.16,220.26,464.63,219.63,464.63,219.63Z"/>
      <path class="53af280a-4565-4789-abc0-834ffeb1066e" d="M464.35,217.29a5,5,0,0,1-.92-1.87,10.74,10.74,0,0,1-.26-4.44,2.72,2.72,0,0,1,.9-1.77c1.42-1,2.25.56,3.15,1.93s2.1,1.42,2.65,2.37a3.61,3.61,0,0,1-2.22,5A3.07,3.07,0,0,1,464.35,217.29Z"/>
      <path class="831c9844-6b47-47ed-8fca-e5d103e52082" d="M467.78,245.06l1.15-.5a1,1,0,0,1,.91.05,2.43,2.43,0,0,0,2.77-.11s2.62-3.06,3.48-4.21c0.46-.62,1.28-1.62,1.78-2.19s1.3-1.58,1.13-1.78c-0.73-.89-4.28-4.9-5.26-6.21s-1.46-1.94-2.37-3.22a4.39,4.39,0,0,1-.82-3.87c1-2.56,3.72-1.43,5.13,0a16.93,16.93,0,0,1,2.25,3.28l3.9,6.7a12.1,12.1,0,0,1,1.31,2.83,3.26,3.26,0,0,1-.58,3.39c-1.07,1-2.24,1.8-3.35,2.73s-5.72,4.69-5.72,4.69a2.26,2.26,0,0,1-1.62,1.21l-1.54-.08-1.2.54a0.82,0.82,0,0,1-.8-0.07l-1.59-1.1a0.53,0.53,0,0,1-.17-0.67l0.31-.63A1.77,1.77,0,0,1,467.78,245.06Z"/>
    </g>
    <g style="opacity: 0;" class="person-7">
      <g>
        <g style="opacity:0;" class="bar-1">
          <polygon class="56d1eeff-9f99-42b2-903d-3b208660def0" points="408.48 281.56 409.81 282.33 408.48 283.1 407.15 282.33 408.48 281.56"/>
          <polygon class="713adcc0-a016-406b-8fbc-057aa3cdbe3b" points="409.81 282.33 409.81 375.08 408.48 375.85 408.48 283.1 409.81 282.33"/>
          <polygon class="ff915594-da78-419a-a0be-672ee0d14a04" points="408.48 283.1 408.48 375.85 407.15 375.08 407.15 282.33 408.48 283.1"/>
        </g>
        <g style="opacity:0;" class="bar-2">
          <polygon class="30a72619-9c0e-49d0-9898-129cd76df387" points="413.63 304.71 414.96 305.48 413.63 306.25 412.3 305.48 413.63 304.71"/>
          <polygon class="ff21a871-685d-4ca6-a0c9-0909d190ba34" points="414.96 305.48 414.96 378.02 413.63 378.79 413.63 306.25 414.96 305.48"/>
          <polygon class="e5cc4889-1a5b-45cc-9eaf-ba1e926e679a" points="413.63 306.25 413.63 378.79 412.3 378.02 412.3 305.48 413.63 306.25"/>
        </g>
        <g style="opacity:0;" class="bar-3">
          <polygon class="8cb9412a-63b2-4a43-aa3d-bb040ff9ca30" points="418.79 315.69 420.12 316.46 418.79 317.23 417.45 316.46 418.79 315.69"/>
          <polygon class="ada755e1-9f09-42ee-8dd0-8588878e6d07" points="420.12 316.46 420.12 380.98 418.79 381.75 418.79 317.23 420.12 316.46"/>
          <polygon class="789ff925-4eec-44ce-922a-1d326a3081e1" points="418.79 317.23 418.79 381.75 417.45 380.98 417.45 316.46 418.79 317.23"/>
        </g>
      </g>
      <g>
        <path class="8d267bb4-cda9-4262-b7a5-4dd34811fa5c" d="M381.15,293.26a4.37,4.37,0,0,0,.73-0.21,5.39,5.39,0,0,0,3-3.95c0.7-3.15.22-6.44-2.55-8.36s-6.41-1.22-8.63,1.46c-1.79,2.15-2.53,6.05-1.09,8.59,1,1.81,3.4,2.22,5.47,2.45A10.07,10.07,0,0,0,381.15,293.26Z"/>
        <path class="68f0d802-649f-4c9f-86d2-ca26416edaae" d="M375.82,375.24c-1.16-.09-2.33-0.2-3.49-0.18,0.19,1.14.39,2.27,0.6,3.4s0.39,4,1.13,5c1,1.33,1.9,2.5,3.63,2.65,0.71,0.06,2.15-1.48,2.31-1.95-0.6-1.46-1.79-2.08-2.41-3.43C376.68,378.73,375.91,377.78,375.82,375.24Z"/>
        <path class="4a7d2537-7b1c-4a14-99ae-e7e42fb797bc" d="M387.5,378.57a10.58,10.58,0,0,1-2-6.64L382,372a20.17,20.17,0,0,1,.71,6.12c-0.18,1.2,1.75,2,1.75,2a22.44,22.44,0,0,0,5.78,1.16A8.26,8.26,0,0,1,387.5,378.57Z"/>
        <path class="8d267bb4-cda9-4262-b7a5-4dd34811fa5c" d="M379,382.24c-0.05-.41,1.23,2.1,3.83,2.74a1,1,0,0,1,0,1.81,8.27,8.27,0,0,1-4.77.58c-2.74-.51-2.6-2.17-4.77-2.17-0.83,0-.17-5.05-0.17-5.05a5,5,0,0,0,4.15,3.11C378.51,383.4,379.13,383.37,379,382.24Z"/>
        <path class="8d267bb4-cda9-4262-b7a5-4dd34811fa5c" d="M388.06,379.09c-0.05-.38,1.16,2,3.61,2.59a0.9,0.9,0,0,1,0,1.7,6.26,6.26,0,0,1-4.54.53c-1.08-.36-2.49-2.06-4.44-2.17-0.78,0-.18-4.63-0.18-4.63a4.71,4.71,0,0,0,3.92,2.93C387.62,380.18,388.21,380.15,388.06,379.09Z"/>
        <path class="87196c4a-e47c-4f4f-9760-6ffe2e522324" d="M375.46,290.72a10.59,10.59,0,0,1,.66,4.45l5,3a17.62,17.62,0,0,1-.51-4.77Z"/>
        <path class="d23538d3-56ba-4536-a47e-3789bd435839" d="M387.53,299.22c2.61,0.32,4-.3,7.82-0.63,0.75-.06,1.08-0.59,2.31-1.31,2.51-1.46,4.85-2.37,6.61-4.15,0.93-.94.65-1.71,1.37-2.83,0.36-.57.76-2,1-2.31s0.91-.29.79,0.25c-0.66,3.17.31,4.84-.16,5.72-0.61,1.16-1.08.74-2.3,1.91a32.38,32.38,0,0,1-7.52,5.32l-1.06.53a41.52,41.52,0,0,1-9.78,3.21,4.32,4.32,0,0,1-1.8,0c-1.34-.31-1.7-1.08-2.31-2-0.76-1.16-1.77-2.93-1.46-4.06,0.38-1.39,4.14-.07,5.2.14Q386.87,299.14,387.53,299.22Z"/>
        <path class="7d6df59d-6da4-424d-88fe-5404f4a4cba4" d="M387.41,309.16c0.49-2-.32-4.08-1.26-5.9a36.93,36.93,0,0,0-2.15-4.17,12.81,12.81,0,0,0-1.92-1.35,2.18,2.18,0,0,1-.86-2.37s-0.54.65-2.31,0.58A4.46,4.46,0,0,1,376,295c-0.14,1.06-.51,1.26-1.52,1.63s-2.8,1.31-2.83,2.38c0,1.78.06,4.49,0.06,4.49a70.37,70.37,0,0,1,2.71,6.93c0.54,3.36.77,5.2,0.11,7.26-0.07.23-.35,1.62-0.42,1.84l6.83,0.38,5.58-1.33a16.34,16.34,0,0,1-.5-6C386.33,311.41,387.12,310.37,387.41,309.16Z"/>
        <path class="1898f5c4-7dfc-4037-82f8-12ae7cec20be" d="M381.51,293a5.15,5.15,0,0,0,1-1.94c0.36-1.09,1.09-5.57-.48-6.12a1.18,1.18,0,0,0-1,.21,5,5,0,0,0-.77.77,7.89,7.89,0,0,1-2.41,1.79,4,4,0,0,0-2,1.37,3.74,3.74,0,0,0,2.3,5.13A3.18,3.18,0,0,0,381.51,293Z"/>
        <path class="bdefb190-1ab0-4e36-bf0a-c7043f0fc2bb" d="M375.08,298.89c-1.05-2.65-3.85-1.48-5.31,0a17.53,17.53,0,0,0-2.33,3.39l-4,6.94A12.53,12.53,0,0,0,362,312.2a5.38,5.38,0,0,0,.08,2.12c0,0.6.08,1.22,0.13,1.67,0.16,1.47.34,5.65,0.34,5.65a14.56,14.56,0,0,0-2.52,1.26c-0.28.18-.09,1.08-0.22,1.38l-0.53,1.19a1.83,1.83,0,0,0-.08,1.26l0.21,0.7a0.55,0.55,0,0,0,.6.39l2-.29a0.85,0.85,0,0,0,.66-0.51l0.53-1.25,1.22-1a2.34,2.34,0,0,0,.37-2.06s0.57-4.15.87-6.43c0.43-1.43.54-3.42,0.66-3.57,0.75-.92,4.43-5.07,5.45-6.43s1.51-2,2.45-3.33A4.55,4.55,0,0,0,375.08,298.89Z"/>
        <path class="d90d0877-2086-4781-a25f-6204e58b2282" d="M410.09,287.85a0.67,0.67,0,0,1,.29.92,0.75,0.75,0,0,1,.37.86,0.5,0.5,0,0,1-.15.19,0.76,0.76,0,0,1-.06,1.28,0.47,0.47,0,0,1,.15.62,1.11,1.11,0,0,1-.54.45,1.06,1.06,0,0,1-.84.11,0.45,0.45,0,0,1-.19-0.7,0.55,0.55,0,0,1-.25-1,0.58,0.58,0,0,1-.51-1,0.32,0.32,0,0,1-.34-0.31,0.71,0.71,0,0,1,.19-0.47C408.52,288.47,409.58,287.63,410.09,287.85Z"/>
        <path class="9a1720f0-57e7-4ec2-a54c-c26ed05c9187" d="M387.5,321.59c-0.28-1-.66-2.23-1-3.56-5.32,2.24-12.1.18-12.16,0.36-1.24,3.7-2.65,7.35-3.82,11.07a23.53,23.53,0,0,0-1,6.74c0,0.86.61,11.49,1.25,21.75,0.58,9.48,1.17,18.64,1.24,19.44a7.58,7.58,0,0,0,5.23-.18c-0.87-2.31-.19-17.94-0.19-17.94l3.69-21.44,1.13,20.13s-0.75,13.93-1,16.82a5.75,5.75,0,0,0,5.59-.07c0.05,0,.38-14.62.38-14.62s3.45-21.23,3-26.14A68.87,68.87,0,0,0,387.5,321.59Z"/>
      </g>
    </g>
    <g style="opacity: 0;" class="person-4">
      <g>
        <polygon class="56d1eeff-9f99-42b2-903d-3b208660def0" points="355.76 320.42 357.09 321.19 355.76 321.96 354.43 321.19 355.76 320.42"/>
        <polygon class="713adcc0-a016-406b-8fbc-057aa3cdbe3b" points="357.09 321.19 357.09 349.21 355.76 349.98 355.76 321.96 357.09 321.19"/>
        <polygon class="ff915594-da78-419a-a0be-672ee0d14a04" points="355.76 321.96 355.76 349.98 354.43 349.21 354.43 321.19 355.76 321.96"/>
      </g>
      <g>
        <path class="8d59653d-67b4-4f46-b4a7-637062933102" d="M348.26,427c-0.22.06-.52,0.22-0.77,0.28a0.23,0.23,0,0,1-.27,0c-0.35-.32-0.62-1.21-0.67-3.5,1.11-19.41.39-22.19,0.39-22.19a77.7,77.7,0,0,0-1.59-12.34c-1-5.16-2.49-10-3.51-13.87-0.5-1.91-15.72-3.81-16.15-.41a89.83,89.83,0,0,0-.9,10.69c0.17,8,1.37,11.95,2,18.44-1.65,6.28-.64,14.16-0.06,22.78l-0.24,3.48s-0.38,1.44,3.49.47a16.52,16.52,0,0,0,3.4-2.14s0.61-2-1.1-1.83c-0.59,0-1.13.47-1.78,0.49a0.86,0.86,0,0,1-.63-0.63,42.55,42.55,0,0,1,.67-6.85c1.19-6,2.3-16.36,2.3-16.36,1.19-8.11,1.81-14.8,2-14.25,0.68,2.39,1.59,4.75,5.34,13.88,0.25,7.63,3,20.4,3.19,24.84L343,430.8s-0.27,1.63,3.6.66c1-.25,3.78-2.76,3.78-2.76S348.9,426.84,348.26,427Z"/>
        <path class="8d267bb4-cda9-4262-b7a5-4dd34811fa5c" d="M326.61,429.19a0.69,0.69,0,0,0,.1.36,1.12,1.12,0,0,0,.79.48,4.86,4.86,0,0,0,3.39-.64c0.45-.23,2.39-1,1.71-1.74a1.71,1.71,0,0,0-1.37-.4l-0.53,0c-0.15,0-.27,0-0.13-0.05l2.35-.89a6.08,6.08,0,0,1,4,.37c1.07,0.79-.4,1.73-0.85,2a66.07,66.07,0,0,0-6,3.3,3.12,3.12,0,0,1-3.6,0C325.73,431.41,325.92,429.88,326.61,429.19Z"/>
        <path class="8d267bb4-cda9-4262-b7a5-4dd34811fa5c" d="M343.18,429.63a0.44,0.44,0,0,0,.06.3,1.09,1.09,0,0,0,.76.47,4.86,4.86,0,0,0,3.39-.64c0.45-.23,2.39-1,1.71-1.74a1.8,1.8,0,0,0-1.72-.68l-0.11-.06,1.4-.7a6.31,6.31,0,0,1,2.08-.8,3.59,3.59,0,0,1,2.16,1.54c0.64,1.17-.52,1.81-1,2.08a60,60,0,0,1-5.29,3.1,3.5,3.5,0,0,1-3.87-.17C342.11,431.69,342.49,430.32,343.18,429.63Z"/>
        <path class="8d267bb4-cda9-4262-b7a5-4dd34811fa5c" d="M343,372.55a177,177,0,0,0,5.21,19c-16.73,9.39-25.6.34-25.6,0.34,1.37-2.39,1.88-13.31,1.88-13.31h0a54.5,54.5,0,0,1,.86-6.13C326.1,368,342.42,369.91,343,372.55Z"/>
        <path class="9e284c0d-70b3-4fe9-b8ab-951794903724" d="M331.36,335.51s0.09,5.92-2.19,7l9.49,0.84s-3-2-2-6.83Z"/>
        <path class="153a6a2c-0539-4aea-ac00-370eaa735ac9" d="M340.24,329.47c0.15,1.88.09,6.21-3.34,7.43,0,0-6.49-.09-2-7.26,0.41-.65,1.62-2.43,3.24-2.23A4,4,0,0,1,340.24,329.47Z"/>
        <path class="07db88c9-5c72-48bf-9e80-bf0301e79223" d="M328,340.11s-4.6,1.38-2.16,9.94a58.43,58.43,0,0,1,1.26,11.75s-2.18-2.16-3.49-3.24a1.5,1.5,0,0,1-.54-1c-0.16-1.72-1.74-7.56,0-14C323,343.57,324,339.15,328,340.11Z"/>
        <path class="7d6df59d-6da4-424d-88fe-5404f4a4cba4" d="M324.89,348.53a15,15,0,0,1-.38-3.51c0.05-1.54.62-4.91,2.74-5,0.85,0,1.13.17,2.51,0.23a2.67,2.67,0,0,0,.78-0.9c0.72,1.44,7.09,1.32,7.09,1.32a2.57,2.57,0,0,0,1.2,1c1.32,0.48,3.54.34,5,2.33,0.6,0.82.93,10.56,0.91,10.71,0,0-4.75,7.93,0,20.49-0.84,2.16-9.62,5-14.18,2a19.24,19.24,0,0,0,.24-2.88c0-1.75-.33-3.36-0.48-2.64a27.7,27.7,0,0,1-1.8,5.29s-4.21-.6-5.65-1.56a40.37,40.37,0,0,0,2.72-6,33.82,33.82,0,0,0,1.16-5.8,24.26,24.26,0,0,0-.31-6.42C326,354.23,325.48,351.39,324.89,348.53Z"/>
        <path class="20def411-8263-44fc-9f5f-a690d00328d1" d="M339.89,347.14a8.11,8.11,0,0,1,.07-1.42,4.13,4.13,0,0,1,.7-1.95,2.09,2.09,0,0,1,2.93-.52,5.44,5.44,0,0,1,1.36,2.87c0.55,2.05,2.09,7.48,2.22,8,0.61-1,1.6-3,2.52-4.33s1.48-2.56,1.48-2.56c0.94-1.7,2.07-3.87,2.07-3.87l-0.36-1.42a1.22,1.22,0,0,1,0-.3l0.3-1.56a1.11,1.11,0,0,1,.56-1l0.74-.23a5.83,5.83,0,0,0,.06.82,0.75,0.75,0,0,0,.84.78,2.17,2.17,0,0,0,1.51-.89,1.47,1.47,0,0,0,.25-0.48c0-.22.51-0.22,0.69,0.23l0.59,1.79a1,1,0,0,1-.1,1l-2.19,1.78a45.58,45.58,0,0,0-2.36,5.37,76.8,76.8,0,0,1-3.42,7.8c-0.78,1.41-2.8,3.53-4,2.83-1.91-1.08-3.1-4-4-5.89C341.12,351.88,340,349.59,339.89,347.14Z"/>
        <path class="8d267bb4-cda9-4262-b7a5-4dd34811fa5c" d="M328.31,327.41c1.28-3,3.47-6.12,10.54-2.56,0,0,3.94-.22,2.51,5l-3.41.06a5.6,5.6,0,0,0,2,7.48,10,10,0,0,1-5.66.5c-0.34-.06-0.7-0.13-1.06-0.22a15.17,15.17,0,0,1-1.49-.46q-0.47-.17-0.95-0.38a18.2,18.2,0,0,1-1.92-1C325,333.59,327.42,329.48,328.31,327.41Z"/>
      </g>
    </g>
  </g>
</svg>
